solid Extrude24-Extrude26
	facet normal	-0.219191	-0.975682	0.000000
		outer loop
			vertex	0.350000	1.50997	0.750000
			vertex	0.350000	1.50997	1.50000
			vertex	0.329476	1.51458	1.50000
		endloop
	endfacet
	facet normal	0.219190	0.975682	-0.000000
		outer loop
			vertex	-0.350000	-1.50997	0.750000
			vertex	-0.350000	-1.50997	1.50000
			vertex	-0.329476	-1.51458	1.50000
		endloop
	endfacet
	facet normal	0.253876	0.967236	0.00100109
		outer loop
			vertex	-0.436685	-1.48721	0.750000
			vertex	-0.350000	-1.50997	0.750000
			vertex	-0.329476	-1.51458	0.000000
		endloop
	endfacet
	facet normal	0.315800	-0.948826	0.000000
		outer loop
			vertex	-0.436685	1.48721	0.000000
			vertex	-0.541669	1.45227	0.750000
			vertex	-0.541669	1.45227	0.000000
		endloop
	endfacet
	facet normal	0.382683	-0.923880	-0.000000
		outer loop
			vertex	-0.643893	1.40993	0.750000
			vertex	-0.541669	1.45227	0.000000
			vertex	-0.541669	1.45227	0.750000
		endloop
	endfacet
	facet normal	0.382683	-0.923880	0.000000
		outer loop
			vertex	-0.541669	1.45227	0.000000
			vertex	-0.643893	1.40993	0.750000
			vertex	-0.643893	1.40993	0.000000
		endloop
	endfacet
	facet normal	0.447617	-0.894225	-0.000000
		outer loop
			vertex	-0.742836	1.36040	0.750000
			vertex	-0.643893	1.40993	0.000000
			vertex	-0.643893	1.40993	0.750000
		endloop
	endfacet
	facet normal	0.447617	-0.894225	0.000000
		outer loop
			vertex	-0.643893	1.40993	0.000000
			vertex	-0.742836	1.36040	0.750000
			vertex	-0.742836	1.36040	0.000000
		endloop
	endfacet
	facet normal	0.510270	-0.860014	-0.000000
		outer loop
			vertex	-0.837993	1.30394	0.750000
			vertex	-0.742836	1.36040	0.000000
			vertex	-0.742836	1.36040	0.750000
		endloop
	endfacet
	facet normal	0.510270	-0.860014	0.000000
		outer loop
			vertex	-0.742836	1.36040	0.000000
			vertex	-0.837993	1.30394	0.750000
			vertex	-0.837993	1.30394	0.000000
		endloop
	endfacet
	facet normal	0.570323	-0.821420	-0.000000
		outer loop
			vertex	-0.928880	1.24084	0.750000
			vertex	-0.837993	1.30394	0.000000
			vertex	-0.837993	1.30394	0.750000
		endloop
	endfacet
	facet normal	0.570323	-0.821420	0.000000
		outer loop
			vertex	-0.837993	1.30394	0.000000
			vertex	-0.928880	1.24084	0.750000
			vertex	-0.928880	1.24084	0.000000
		endloop
	endfacet
	facet normal	0.627469	-0.778642	-0.000000
		outer loop
			vertex	-1.01503	1.17141	0.750000
			vertex	-0.928880	1.24084	0.000000
			vertex	-0.928880	1.24084	0.750000
		endloop
	endfacet
	facet normal	0.627469	-0.778642	0.000000
		outer loop
			vertex	-0.928880	1.24084	0.000000
			vertex	-1.01503	1.17141	0.750000
			vertex	-1.01503	1.17141	0.000000
		endloop
	endfacet
	facet normal	0.681417	-0.731895	-0.000000
		outer loop
			vertex	-1.09602	1.09602	0.750000
			vertex	-1.01503	1.17141	0.000000
			vertex	-1.01503	1.17141	0.750000
		endloop
	endfacet
	facet normal	0.681417	-0.731895	0.000000
		outer loop
			vertex	-1.01503	1.17141	0.000000
			vertex	-1.09602	1.09602	0.750000
			vertex	-1.09602	1.09602	0.000000
		endloop
	endfacet
	facet normal	0.731895	-0.681417	-0.000000
		outer loop
			vertex	-1.17141	1.01503	0.750000
			vertex	-1.09602	1.09602	0.000000
			vertex	-1.09602	1.09602	0.750000
		endloop
	endfacet
	facet normal	0.731895	-0.681417	0.000000
		outer loop
			vertex	-1.09602	1.09602	0.000000
			vertex	-1.17141	1.01503	0.750000
			vertex	-1.17141	1.01503	0.000000
		endloop
	endfacet
	facet normal	0.778642	-0.627469	-0.000000
		outer loop
			vertex	-1.24084	0.928880	0.750000
			vertex	-1.17141	1.01503	0.000000
			vertex	-1.17141	1.01503	0.750000
		endloop
	endfacet
	facet normal	0.778642	-0.627469	0.000000
		outer loop
			vertex	-1.17141	1.01503	0.000000
			vertex	-1.24084	0.928880	0.750000
			vertex	-1.24084	0.928880	0.000000
		endloop
	endfacet
	facet normal	0.821420	-0.570323	-0.000000
		outer loop
			vertex	-1.30394	0.837993	0.750000
			vertex	-1.24084	0.928880	0.000000
			vertex	-1.24084	0.928880	0.750000
		endloop
	endfacet
	facet normal	0.821420	-0.570323	0.000000
		outer loop
			vertex	-1.24084	0.928880	0.000000
			vertex	-1.30394	0.837993	0.750000
			vertex	-1.30394	0.837993	0.000000
		endloop
	endfacet
	facet normal	0.860014	-0.510270	-0.000000
		outer loop
			vertex	-1.36040	0.742836	0.750000
			vertex	-1.30394	0.837993	0.000000
			vertex	-1.30394	0.837993	0.750000
		endloop
	endfacet
	facet normal	0.860014	-0.510270	0.000000
		outer loop
			vertex	-1.30394	0.837993	0.000000
			vertex	-1.36040	0.742836	0.750000
			vertex	-1.36040	0.742836	0.000000
		endloop
	endfacet
	facet normal	0.894225	-0.447617	-0.000000
		outer loop
			vertex	-1.40993	0.643893	0.750000
			vertex	-1.36040	0.742836	0.000000
			vertex	-1.36040	0.742836	0.750000
		endloop
	endfacet
	facet normal	0.894225	-0.447617	0.000000
		outer loop
			vertex	-1.36040	0.742836	0.000000
			vertex	-1.40993	0.643893	0.750000
			vertex	-1.40993	0.643893	0.000000
		endloop
	endfacet
	facet normal	0.923880	-0.382683	-0.000000
		outer loop
			vertex	-1.45227	0.541669	0.750000
			vertex	-1.40993	0.643893	0.000000
			vertex	-1.40993	0.643893	0.750000
		endloop
	endfacet
	facet normal	0.923880	-0.382683	0.000000
		outer loop
			vertex	-1.40993	0.643893	0.000000
			vertex	-1.45227	0.541669	0.750000
			vertex	-1.45227	0.541669	0.000000
		endloop
	endfacet
	facet normal	0.948826	-0.315800	-0.000000
		outer loop
			vertex	-1.48721	0.436685	0.750000
			vertex	-1.45227	0.541669	0.000000
			vertex	-1.45227	0.541669	0.750000
		endloop
	endfacet
	facet normal	0.948826	-0.315800	0.000000
		outer loop
			vertex	-1.45227	0.541669	0.000000
			vertex	-1.48721	0.436685	0.750000
			vertex	-1.48721	0.436685	0.000000
		endloop
	endfacet
	facet normal	0.968937	-0.247307	-0.000000
		outer loop
			vertex	-1.51458	0.329476	0.750000
			vertex	-1.48721	0.436685	0.000000
			vertex	-1.48721	0.436685	0.750000
		endloop
	endfacet
	facet normal	0.968937	-0.247307	0.000000
		outer loop
			vertex	-1.48721	0.436685	0.000000
			vertex	-1.51458	0.329476	0.750000
			vertex	-1.51458	0.329476	0.000000
		endloop
	endfacet
	facet normal	0.984111	-0.177553	-0.000000
		outer loop
			vertex	-1.53422	0.220588	0.750000
			vertex	-1.51458	0.329476	0.000000
			vertex	-1.51458	0.329476	0.750000
		endloop
	endfacet
	facet normal	0.984111	-0.177553	0.000000
		outer loop
			vertex	-1.51458	0.329476	0.000000
			vertex	-1.53422	0.220588	0.750000
			vertex	-1.53422	0.220588	0.000000
		endloop
	endfacet
	facet normal	0.994270	-0.106895	-0.000000
		outer loop
			vertex	-1.54605	0.110576	0.750000
			vertex	-1.53422	0.220588	0.000000
			vertex	-1.53422	0.220588	0.750000
		endloop
	endfacet
	facet normal	0.994270	-0.106895	0.000000
		outer loop
			vertex	-1.53422	0.220588	0.000000
			vertex	-1.54605	0.110576	0.750000
			vertex	-1.54605	0.110576	0.000000
		endloop
	endfacet
	facet normal	0.999363	-0.0356928	-0.000000
		outer loop
			vertex	-1.55000	1.89820e-016	0.750000
			vertex	-1.54605	0.110576	0.000000
			vertex	-1.54605	0.110576	0.750000
		endloop
	endfacet
	facet normal	0.999363	-0.0356928	0.000000
		outer loop
			vertex	-1.54605	0.110576	0.000000
			vertex	-1.55000	1.89820e-016	0.750000
			vertex	-1.55000	1.89820e-016	0.000000
		endloop
	endfacet
	facet normal	0.999363	0.0356928	0.000000
		outer loop
			vertex	-1.54605	-0.110576	0.750000
			vertex	-1.55000	1.89820e-016	0.000000
			vertex	-1.55000	1.89820e-016	0.750000
		endloop
	endfacet
	facet normal	0.999363	0.0356928	0.000000
		outer loop
			vertex	-1.55000	1.89820e-016	0.000000
			vertex	-1.54605	-0.110576	0.750000
			vertex	-1.54605	-0.110576	0.000000
		endloop
	endfacet
	facet normal	0.994270	0.106895	0.000000
		outer loop
			vertex	-1.53422	-0.220588	0.750000
			vertex	-1.54605	-0.110576	0.000000
			vertex	-1.54605	-0.110576	0.750000
		endloop
	endfacet
	facet normal	0.994270	0.106895	0.000000
		outer loop
			vertex	-1.54605	-0.110576	0.000000
			vertex	-1.53422	-0.220588	0.750000
			vertex	-1.53422	-0.220588	0.000000
		endloop
	endfacet
	facet normal	0.984111	0.177553	0.000000
		outer loop
			vertex	-1.51458	-0.329476	0.750000
			vertex	-1.53422	-0.220588	0.000000
			vertex	-1.53422	-0.220588	0.750000
		endloop
	endfacet
	facet normal	0.984111	0.177553	0.000000
		outer loop
			vertex	-1.53422	-0.220588	0.000000
			vertex	-1.51458	-0.329476	0.750000
			vertex	-1.51458	-0.329476	0.000000
		endloop
	endfacet
	facet normal	0.968937	0.247307	0.000000
		outer loop
			vertex	-1.48721	-0.436685	0.750000
			vertex	-1.51458	-0.329476	0.000000
			vertex	-1.51458	-0.329476	0.750000
		endloop
	endfacet
	facet normal	0.968937	0.247307	0.000000
		outer loop
			vertex	-1.51458	-0.329476	0.000000
			vertex	-1.48721	-0.436685	0.750000
			vertex	-1.48721	-0.436685	0.000000
		endloop
	endfacet
	facet normal	0.948826	0.315800	0.000000
		outer loop
			vertex	-1.45227	-0.541669	0.750000
			vertex	-1.48721	-0.436685	0.000000
			vertex	-1.48721	-0.436685	0.750000
		endloop
	endfacet
	facet normal	0.948826	0.315800	0.000000
		outer loop
			vertex	-1.48721	-0.436685	0.000000
			vertex	-1.45227	-0.541669	0.750000
			vertex	-1.45227	-0.541669	0.000000
		endloop
	endfacet
	facet normal	0.923880	0.382683	0.000000
		outer loop
			vertex	-1.40993	-0.643893	0.750000
			vertex	-1.45227	-0.541669	0.000000
			vertex	-1.45227	-0.541669	0.750000
		endloop
	endfacet
	facet normal	0.923880	0.382683	0.000000
		outer loop
			vertex	-1.45227	-0.541669	0.000000
			vertex	-1.40993	-0.643893	0.750000
			vertex	-1.40993	-0.643893	0.000000
		endloop
	endfacet
	facet normal	0.894225	0.447617	0.000000
		outer loop
			vertex	-1.36040	-0.742836	0.750000
			vertex	-1.40993	-0.643893	0.000000
			vertex	-1.40993	-0.643893	0.750000
		endloop
	endfacet
	facet normal	0.894225	0.447617	0.000000
		outer loop
			vertex	-1.40993	-0.643893	0.000000
			vertex	-1.36040	-0.742836	0.750000
			vertex	-1.36040	-0.742836	0.000000
		endloop
	endfacet
	facet normal	0.860014	0.510270	0.000000
		outer loop
			vertex	-1.30394	-0.837993	0.750000
			vertex	-1.36040	-0.742836	0.000000
			vertex	-1.36040	-0.742836	0.750000
		endloop
	endfacet
	facet normal	0.860014	0.510270	0.000000
		outer loop
			vertex	-1.36040	-0.742836	0.000000
			vertex	-1.30394	-0.837993	0.750000
			vertex	-1.30394	-0.837993	0.000000
		endloop
	endfacet
	facet normal	0.821420	0.570323	0.000000
		outer loop
			vertex	-1.24084	-0.928880	0.750000
			vertex	-1.30394	-0.837993	0.000000
			vertex	-1.30394	-0.837993	0.750000
		endloop
	endfacet
	facet normal	0.821420	0.570323	0.000000
		outer loop
			vertex	-1.30394	-0.837993	0.000000
			vertex	-1.24084	-0.928880	0.750000
			vertex	-1.24084	-0.928880	0.000000
		endloop
	endfacet
	facet normal	0.778642	0.627469	0.000000
		outer loop
			vertex	-1.17141	-1.01503	0.750000
			vertex	-1.24084	-0.928880	0.000000
			vertex	-1.24084	-0.928880	0.750000
		endloop
	endfacet
	facet normal	0.778642	0.627469	0.000000
		outer loop
			vertex	-1.24084	-0.928880	0.000000
			vertex	-1.17141	-1.01503	0.750000
			vertex	-1.17141	-1.01503	0.000000
		endloop
	endfacet
	facet normal	0.731895	0.681417	0.000000
		outer loop
			vertex	-1.09602	-1.09602	0.750000
			vertex	-1.17141	-1.01503	0.000000
			vertex	-1.17141	-1.01503	0.750000
		endloop
	endfacet
	facet normal	0.731895	0.681417	0.000000
		outer loop
			vertex	-1.17141	-1.01503	0.000000
			vertex	-1.09602	-1.09602	0.750000
			vertex	-1.09602	-1.09602	0.000000
		endloop
	endfacet
	facet normal	0.681417	0.731895	0.000000
		outer loop
			vertex	-1.01503	-1.17141	0.750000
			vertex	-1.09602	-1.09602	0.000000
			vertex	-1.09602	-1.09602	0.750000
		endloop
	endfacet
	facet normal	0.681417	0.731895	0.000000
		outer loop
			vertex	-1.09602	-1.09602	0.000000
			vertex	-1.01503	-1.17141	0.750000
			vertex	-1.01503	-1.17141	0.000000
		endloop
	endfacet
	facet normal	0.627469	0.778642	0.000000
		outer loop
			vertex	-0.928880	-1.24084	0.750000
			vertex	-1.01503	-1.17141	0.000000
			vertex	-1.01503	-1.17141	0.750000
		endloop
	endfacet
	facet normal	0.627469	0.778642	0.000000
		outer loop
			vertex	-1.01503	-1.17141	0.000000
			vertex	-0.928880	-1.24084	0.750000
			vertex	-0.928880	-1.24084	0.000000
		endloop
	endfacet
	facet normal	0.570323	0.821420	0.000000
		outer loop
			vertex	-0.837993	-1.30394	0.750000
			vertex	-0.928880	-1.24084	0.000000
			vertex	-0.928880	-1.24084	0.750000
		endloop
	endfacet
	facet normal	0.570323	0.821420	0.000000
		outer loop
			vertex	-0.928880	-1.24084	0.000000
			vertex	-0.837993	-1.30394	0.750000
			vertex	-0.837993	-1.30394	0.000000
		endloop
	endfacet
	facet normal	0.510270	0.860014	0.000000
		outer loop
			vertex	-0.742836	-1.36040	0.750000
			vertex	-0.837993	-1.30394	0.000000
			vertex	-0.837993	-1.30394	0.750000
		endloop
	endfacet
	facet normal	0.510270	0.860014	0.000000
		outer loop
			vertex	-0.837993	-1.30394	0.000000
			vertex	-0.742836	-1.36040	0.750000
			vertex	-0.742836	-1.36040	0.000000
		endloop
	endfacet
	facet normal	0.447617	0.894225	0.000000
		outer loop
			vertex	-0.643893	-1.40993	0.750000
			vertex	-0.742836	-1.36040	0.000000
			vertex	-0.742836	-1.36040	0.750000
		endloop
	endfacet
	facet normal	0.447617	0.894225	0.000000
		outer loop
			vertex	-0.742836	-1.36040	0.000000
			vertex	-0.643893	-1.40993	0.750000
			vertex	-0.643893	-1.40993	0.000000
		endloop
	endfacet
	facet normal	0.382683	0.923880	0.000000
		outer loop
			vertex	-0.541669	-1.45227	0.750000
			vertex	-0.643893	-1.40993	0.000000
			vertex	-0.643893	-1.40993	0.750000
		endloop
	endfacet
	facet normal	0.382683	0.923880	0.000000
		outer loop
			vertex	-0.643893	-1.40993	0.000000
			vertex	-0.541669	-1.45227	0.750000
			vertex	-0.541669	-1.45227	0.000000
		endloop
	endfacet
	facet normal	0.315800	0.948826	0.000000
		outer loop
			vertex	-0.436685	-1.48721	0.750000
			vertex	-0.541669	-1.45227	0.000000
			vertex	-0.541669	-1.45227	0.750000
		endloop
	endfacet
	facet normal	0.315800	0.948826	0.000000
		outer loop
			vertex	-0.541669	-1.45227	0.000000
			vertex	-0.436685	-1.48721	0.750000
			vertex	-0.436685	-1.48721	0.000000
		endloop
	endfacet
	facet normal	0.247307	0.968937	0.000000
		outer loop
			vertex	-0.329476	-1.51458	0.000000
			vertex	-0.436685	-1.48721	0.000000
			vertex	-0.436685	-1.48721	0.750000
		endloop
	endfacet
	facet normal	0.247306	-0.968937	0.000810869
		outer loop
			vertex	-0.329476	1.51458	0.000000
			vertex	-0.350000	1.50997	0.750000
			vertex	-0.436685	1.48721	0.000000
		endloop
	endfacet
	facet normal	0.253876	-0.967237	-0.000000
		outer loop
			vertex	-0.436685	1.48721	0.750000
			vertex	-0.436685	1.48721	0.000000
			vertex	-0.350000	1.50997	0.750000
		endloop
	endfacet
	facet normal	0.315800	-0.948826	0.000000
		outer loop
			vertex	-0.436685	1.48721	0.000000
			vertex	-0.436685	1.48721	0.750000
			vertex	-0.541669	1.45227	0.750000
		endloop
	endfacet
	facet normal	-0.253876	-0.967236	0.00100108
		outer loop
			vertex	0.436685	1.48721	0.750000
			vertex	0.350000	1.50997	0.750000
			vertex	0.329476	1.51458	0.000000
		endloop
	endfacet
	facet normal	-0.315800	0.948826	0.000000
		outer loop
			vertex	0.436685	-1.48721	0.000000
			vertex	0.541669	-1.45227	0.750000
			vertex	0.541669	-1.45227	0.000000
		endloop
	endfacet
	facet normal	-0.382683	0.923880	-0.000000
		outer loop
			vertex	0.643893	-1.40993	0.750000
			vertex	0.541669	-1.45227	0.000000
			vertex	0.541669	-1.45227	0.750000
		endloop
	endfacet
	facet normal	-0.382683	0.923880	0.000000
		outer loop
			vertex	0.541669	-1.45227	0.000000
			vertex	0.643893	-1.40993	0.750000
			vertex	0.643893	-1.40993	0.000000
		endloop
	endfacet
	facet normal	-0.447617	0.894225	-0.000000
		outer loop
			vertex	0.742836	-1.36040	0.750000
			vertex	0.643893	-1.40993	0.000000
			vertex	0.643893	-1.40993	0.750000
		endloop
	endfacet
	facet normal	-0.447617	0.894225	0.000000
		outer loop
			vertex	0.643893	-1.40993	0.000000
			vertex	0.742836	-1.36040	0.750000
			vertex	0.742836	-1.36040	0.000000
		endloop
	endfacet
	facet normal	-0.510270	0.860014	-0.000000
		outer loop
			vertex	0.837993	-1.30394	0.750000
			vertex	0.742836	-1.36040	0.000000
			vertex	0.742836	-1.36040	0.750000
		endloop
	endfacet
	facet normal	-0.510270	0.860014	0.000000
		outer loop
			vertex	0.742836	-1.36040	0.000000
			vertex	0.837993	-1.30394	0.750000
			vertex	0.837993	-1.30394	0.000000
		endloop
	endfacet
	facet normal	-0.570323	0.821420	-0.000000
		outer loop
			vertex	0.928880	-1.24084	0.750000
			vertex	0.837993	-1.30394	0.000000
			vertex	0.837993	-1.30394	0.750000
		endloop
	endfacet
	facet normal	-0.570323	0.821420	0.000000
		outer loop
			vertex	0.837993	-1.30394	0.000000
			vertex	0.928880	-1.24084	0.750000
			vertex	0.928880	-1.24084	0.000000
		endloop
	endfacet
	facet normal	-0.627469	0.778642	-0.000000
		outer loop
			vertex	1.01503	-1.17141	0.750000
			vertex	0.928880	-1.24084	0.000000
			vertex	0.928880	-1.24084	0.750000
		endloop
	endfacet
	facet normal	-0.627469	0.778642	0.000000
		outer loop
			vertex	0.928880	-1.24084	0.000000
			vertex	1.01503	-1.17141	0.750000
			vertex	1.01503	-1.17141	0.000000
		endloop
	endfacet
	facet normal	-0.681417	0.731895	-0.000000
		outer loop
			vertex	1.09602	-1.09602	0.750000
			vertex	1.01503	-1.17141	0.000000
			vertex	1.01503	-1.17141	0.750000
		endloop
	endfacet
	facet normal	-0.681417	0.731895	0.000000
		outer loop
			vertex	1.01503	-1.17141	0.000000
			vertex	1.09602	-1.09602	0.750000
			vertex	1.09602	-1.09602	0.000000
		endloop
	endfacet
	facet normal	-0.731895	0.681417	-0.000000
		outer loop
			vertex	1.17141	-1.01503	0.750000
			vertex	1.09602	-1.09602	0.000000
			vertex	1.09602	-1.09602	0.750000
		endloop
	endfacet
	facet normal	-0.731895	0.681417	0.000000
		outer loop
			vertex	1.09602	-1.09602	0.000000
			vertex	1.17141	-1.01503	0.750000
			vertex	1.17141	-1.01503	0.000000
		endloop
	endfacet
	facet normal	-0.778642	0.627469	-0.000000
		outer loop
			vertex	1.24084	-0.928880	0.750000
			vertex	1.17141	-1.01503	0.000000
			vertex	1.17141	-1.01503	0.750000
		endloop
	endfacet
	facet normal	-0.778642	0.627469	0.000000
		outer loop
			vertex	1.17141	-1.01503	0.000000
			vertex	1.24084	-0.928880	0.750000
			vertex	1.24084	-0.928880	0.000000
		endloop
	endfacet
	facet normal	-0.821420	0.570323	-0.000000
		outer loop
			vertex	1.30394	-0.837993	0.750000
			vertex	1.24084	-0.928880	0.000000
			vertex	1.24084	-0.928880	0.750000
		endloop
	endfacet
	facet normal	-0.821420	0.570323	0.000000
		outer loop
			vertex	1.24084	-0.928880	0.000000
			vertex	1.30394	-0.837993	0.750000
			vertex	1.30394	-0.837993	0.000000
		endloop
	endfacet
	facet normal	-0.860014	0.510270	-0.000000
		outer loop
			vertex	1.36040	-0.742836	0.750000
			vertex	1.30394	-0.837993	0.000000
			vertex	1.30394	-0.837993	0.750000
		endloop
	endfacet
	facet normal	-0.860014	0.510270	0.000000
		outer loop
			vertex	1.30394	-0.837993	0.000000
			vertex	1.36040	-0.742836	0.750000
			vertex	1.36040	-0.742836	0.000000
		endloop
	endfacet
	facet normal	-0.894225	0.447617	-0.000000
		outer loop
			vertex	1.40993	-0.643893	0.750000
			vertex	1.36040	-0.742836	0.000000
			vertex	1.36040	-0.742836	0.750000
		endloop
	endfacet
	facet normal	-0.894225	0.447617	0.000000
		outer loop
			vertex	1.36040	-0.742836	0.000000
			vertex	1.40993	-0.643893	0.750000
			vertex	1.40993	-0.643893	0.000000
		endloop
	endfacet
	facet normal	-0.923880	0.382683	-0.000000
		outer loop
			vertex	1.45227	-0.541669	0.750000
			vertex	1.40993	-0.643893	0.000000
			vertex	1.40993	-0.643893	0.750000
		endloop
	endfacet
	facet normal	-0.923880	0.382683	0.000000
		outer loop
			vertex	1.40993	-0.643893	0.000000
			vertex	1.45227	-0.541669	0.750000
			vertex	1.45227	-0.541669	0.000000
		endloop
	endfacet
	facet normal	-0.948826	0.315800	-0.000000
		outer loop
			vertex	1.48721	-0.436685	0.750000
			vertex	1.45227	-0.541669	0.000000
			vertex	1.45227	-0.541669	0.750000
		endloop
	endfacet
	facet normal	-0.948826	0.315800	0.000000
		outer loop
			vertex	1.45227	-0.541669	0.000000
			vertex	1.48721	-0.436685	0.750000
			vertex	1.48721	-0.436685	0.000000
		endloop
	endfacet
	facet normal	-0.968937	0.247307	-0.000000
		outer loop
			vertex	1.51458	-0.329476	0.750000
			vertex	1.48721	-0.436685	0.000000
			vertex	1.48721	-0.436685	0.750000
		endloop
	endfacet
	facet normal	-0.968937	0.247307	0.000000
		outer loop
			vertex	1.48721	-0.436685	0.000000
			vertex	1.51458	-0.329476	0.750000
			vertex	1.51458	-0.329476	0.000000
		endloop
	endfacet
	facet normal	-0.984111	0.177553	-0.000000
		outer loop
			vertex	1.53422	-0.220588	0.750000
			vertex	1.51458	-0.329476	0.000000
			vertex	1.51458	-0.329476	0.750000
		endloop
	endfacet
	facet normal	-0.984111	0.177553	0.000000
		outer loop
			vertex	1.51458	-0.329476	0.000000
			vertex	1.53422	-0.220588	0.750000
			vertex	1.53422	-0.220588	0.000000
		endloop
	endfacet
	facet normal	-0.994270	0.106895	-0.000000
		outer loop
			vertex	1.54605	-0.110576	0.750000
			vertex	1.53422	-0.220588	0.000000
			vertex	1.53422	-0.220588	0.750000
		endloop
	endfacet
	facet normal	-0.994270	0.106895	0.000000
		outer loop
			vertex	1.53422	-0.220588	0.000000
			vertex	1.54605	-0.110576	0.750000
			vertex	1.54605	-0.110576	0.000000
		endloop
	endfacet
	facet normal	-0.999363	0.0356928	-0.000000
		outer loop
			vertex	1.55000	0.000000	0.750000
			vertex	1.54605	-0.110576	0.000000
			vertex	1.54605	-0.110576	0.750000
		endloop
	endfacet
	facet normal	-0.999363	0.0356928	-1.76379e-017
		outer loop
			vertex	1.54605	-0.110576	0.000000
			vertex	1.55000	0.000000	0.750000
			vertex	1.55000	-3.79641e-016	0.000000
		endloop
	endfacet
	facet normal	-0.999363	-0.0356928	1.80672e-017
		outer loop
			vertex	1.54605	0.110576	0.750000
			vertex	1.55000	-3.79641e-016	0.000000
			vertex	1.55000	0.000000	0.750000
		endloop
	endfacet
	facet normal	-0.999363	-0.0356928	0.000000
		outer loop
			vertex	1.55000	-3.79641e-016	0.000000
			vertex	1.54605	0.110576	0.750000
			vertex	1.54605	0.110576	0.000000
		endloop
	endfacet
	facet normal	-0.994270	-0.106895	-0.000000
		outer loop
			vertex	1.53422	0.220588	0.750000
			vertex	1.54605	0.110576	0.000000
			vertex	1.54605	0.110576	0.750000
		endloop
	endfacet
	facet normal	-0.994270	-0.106895	0.000000
		outer loop
			vertex	1.54605	0.110576	0.000000
			vertex	1.53422	0.220588	0.750000
			vertex	1.53422	0.220588	0.000000
		endloop
	endfacet
	facet normal	-0.984111	-0.177553	-0.000000
		outer loop
			vertex	1.51458	0.329476	0.750000
			vertex	1.53422	0.220588	0.000000
			vertex	1.53422	0.220588	0.750000
		endloop
	endfacet
	facet normal	-0.984111	-0.177553	0.000000
		outer loop
			vertex	1.53422	0.220588	0.000000
			vertex	1.51458	0.329476	0.750000
			vertex	1.51458	0.329476	0.000000
		endloop
	endfacet
	facet normal	-0.968937	-0.247307	-0.000000
		outer loop
			vertex	1.48721	0.436685	0.750000
			vertex	1.51458	0.329476	0.000000
			vertex	1.51458	0.329476	0.750000
		endloop
	endfacet
	facet normal	-0.968937	-0.247307	0.000000
		outer loop
			vertex	1.51458	0.329476	0.000000
			vertex	1.48721	0.436685	0.750000
			vertex	1.48721	0.436685	0.000000
		endloop
	endfacet
	facet normal	-0.948826	-0.315800	-0.000000
		outer loop
			vertex	1.45227	0.541669	0.750000
			vertex	1.48721	0.436685	0.000000
			vertex	1.48721	0.436685	0.750000
		endloop
	endfacet
	facet normal	-0.948826	-0.315800	0.000000
		outer loop
			vertex	1.48721	0.436685	0.000000
			vertex	1.45227	0.541669	0.750000
			vertex	1.45227	0.541669	0.000000
		endloop
	endfacet
	facet normal	-0.923880	-0.382683	-0.000000
		outer loop
			vertex	1.40993	0.643893	0.750000
			vertex	1.45227	0.541669	0.000000
			vertex	1.45227	0.541669	0.750000
		endloop
	endfacet
	facet normal	-0.923880	-0.382683	0.000000
		outer loop
			vertex	1.45227	0.541669	0.000000
			vertex	1.40993	0.643893	0.750000
			vertex	1.40993	0.643893	0.000000
		endloop
	endfacet
	facet normal	-0.894225	-0.447617	-0.000000
		outer loop
			vertex	1.36040	0.742836	0.750000
			vertex	1.40993	0.643893	0.000000
			vertex	1.40993	0.643893	0.750000
		endloop
	endfacet
	facet normal	-0.894225	-0.447617	0.000000
		outer loop
			vertex	1.40993	0.643893	0.000000
			vertex	1.36040	0.742836	0.750000
			vertex	1.36040	0.742836	0.000000
		endloop
	endfacet
	facet normal	-0.860014	-0.510270	-0.000000
		outer loop
			vertex	1.30394	0.837993	0.750000
			vertex	1.36040	0.742836	0.000000
			vertex	1.36040	0.742836	0.750000
		endloop
	endfacet
	facet normal	-0.860014	-0.510270	0.000000
		outer loop
			vertex	1.36040	0.742836	0.000000
			vertex	1.30394	0.837993	0.750000
			vertex	1.30394	0.837993	0.000000
		endloop
	endfacet
	facet normal	-0.821420	-0.570323	-0.000000
		outer loop
			vertex	1.24084	0.928880	0.750000
			vertex	1.30394	0.837993	0.000000
			vertex	1.30394	0.837993	0.750000
		endloop
	endfacet
	facet normal	-0.821420	-0.570323	0.000000
		outer loop
			vertex	1.30394	0.837993	0.000000
			vertex	1.24084	0.928880	0.750000
			vertex	1.24084	0.928880	0.000000
		endloop
	endfacet
	facet normal	-0.778642	-0.627469	-0.000000
		outer loop
			vertex	1.17141	1.01503	0.750000
			vertex	1.24084	0.928880	0.000000
			vertex	1.24084	0.928880	0.750000
		endloop
	endfacet
	facet normal	-0.778642	-0.627469	0.000000
		outer loop
			vertex	1.24084	0.928880	0.000000
			vertex	1.17141	1.01503	0.750000
			vertex	1.17141	1.01503	0.000000
		endloop
	endfacet
	facet normal	-0.731895	-0.681417	-0.000000
		outer loop
			vertex	1.09602	1.09602	0.750000
			vertex	1.17141	1.01503	0.000000
			vertex	1.17141	1.01503	0.750000
		endloop
	endfacet
	facet normal	-0.731895	-0.681417	0.000000
		outer loop
			vertex	1.17141	1.01503	0.000000
			vertex	1.09602	1.09602	0.750000
			vertex	1.09602	1.09602	0.000000
		endloop
	endfacet
	facet normal	-0.681417	-0.731895	-0.000000
		outer loop
			vertex	1.01503	1.17141	0.750000
			vertex	1.09602	1.09602	0.000000
			vertex	1.09602	1.09602	0.750000
		endloop
	endfacet
	facet normal	-0.681417	-0.731895	0.000000
		outer loop
			vertex	1.09602	1.09602	0.000000
			vertex	1.01503	1.17141	0.750000
			vertex	1.01503	1.17141	0.000000
		endloop
	endfacet
	facet normal	-0.627469	-0.778642	-0.000000
		outer loop
			vertex	0.928880	1.24084	0.750000
			vertex	1.01503	1.17141	0.000000
			vertex	1.01503	1.17141	0.750000
		endloop
	endfacet
	facet normal	-0.627469	-0.778642	0.000000
		outer loop
			vertex	1.01503	1.17141	0.000000
			vertex	0.928880	1.24084	0.750000
			vertex	0.928880	1.24084	0.000000
		endloop
	endfacet
	facet normal	-0.570323	-0.821420	-0.000000
		outer loop
			vertex	0.837993	1.30394	0.750000
			vertex	0.928880	1.24084	0.000000
			vertex	0.928880	1.24084	0.750000
		endloop
	endfacet
	facet normal	-0.570323	-0.821420	0.000000
		outer loop
			vertex	0.928880	1.24084	0.000000
			vertex	0.837993	1.30394	0.750000
			vertex	0.837993	1.30394	0.000000
		endloop
	endfacet
	facet normal	-0.510270	-0.860014	-0.000000
		outer loop
			vertex	0.742836	1.36040	0.750000
			vertex	0.837993	1.30394	0.000000
			vertex	0.837993	1.30394	0.750000
		endloop
	endfacet
	facet normal	-0.510270	-0.860014	0.000000
		outer loop
			vertex	0.837993	1.30394	0.000000
			vertex	0.742836	1.36040	0.750000
			vertex	0.742836	1.36040	0.000000
		endloop
	endfacet
	facet normal	-0.447617	-0.894225	-0.000000
		outer loop
			vertex	0.643893	1.40993	0.750000
			vertex	0.742836	1.36040	0.000000
			vertex	0.742836	1.36040	0.750000
		endloop
	endfacet
	facet normal	-0.447617	-0.894225	0.000000
		outer loop
			vertex	0.742836	1.36040	0.000000
			vertex	0.643893	1.40993	0.750000
			vertex	0.643893	1.40993	0.000000
		endloop
	endfacet
	facet normal	-0.382683	-0.923880	-0.000000
		outer loop
			vertex	0.541669	1.45227	0.750000
			vertex	0.643893	1.40993	0.000000
			vertex	0.643893	1.40993	0.750000
		endloop
	endfacet
	facet normal	-0.382683	-0.923880	0.000000
		outer loop
			vertex	0.643893	1.40993	0.000000
			vertex	0.541669	1.45227	0.750000
			vertex	0.541669	1.45227	0.000000
		endloop
	endfacet
	facet normal	-0.315800	-0.948826	-0.000000
		outer loop
			vertex	0.436685	1.48721	0.750000
			vertex	0.541669	1.45227	0.000000
			vertex	0.541669	1.45227	0.750000
		endloop
	endfacet
	facet normal	-0.315800	-0.948826	0.000000
		outer loop
			vertex	0.541669	1.45227	0.000000
			vertex	0.436685	1.48721	0.750000
			vertex	0.436685	1.48721	0.000000
		endloop
	endfacet
	facet normal	-0.247307	-0.968937	-0.000000
		outer loop
			vertex	0.329476	1.51458	0.000000
			vertex	0.436685	1.48721	0.000000
			vertex	0.436685	1.48721	0.750000
		endloop
	endfacet
	facet normal	-0.247306	0.968937	0.000810859
		outer loop
			vertex	0.329476	-1.51458	0.000000
			vertex	0.350000	-1.50997	0.750000
			vertex	0.436685	-1.48721	0.000000
		endloop
	endfacet
	facet normal	-0.253876	0.967237	-0.000000
		outer loop
			vertex	0.436685	-1.48721	0.750000
			vertex	0.436685	-1.48721	0.000000
			vertex	0.350000	-1.50997	0.750000
		endloop
	endfacet
	facet normal	-0.315800	0.948826	0.000000
		outer loop
			vertex	0.436685	-1.48721	0.000000
			vertex	0.436685	-1.48721	0.750000
			vertex	0.541669	-1.45227	0.750000
		endloop
	endfacet
	facet normal	-0.219191	-0.975682	0.000000
		outer loop
			vertex	0.350000	1.50997	0.750000
			vertex	0.329476	1.51458	1.50000
			vertex	0.329476	1.51458	0.000000
		endloop
	endfacet
	facet normal	-0.177553	-0.984111	-0.000000
		outer loop
			vertex	0.220588	1.53422	1.50000
			vertex	0.329476	1.51458	0.000000
			vertex	0.329476	1.51458	1.50000
		endloop
	endfacet
	facet normal	-0.177553	-0.984111	0.000000
		outer loop
			vertex	0.329476	1.51458	0.000000
			vertex	0.220588	1.53422	1.50000
			vertex	0.220588	1.53422	0.000000
		endloop
	endfacet
	facet normal	-0.106895	-0.994270	-0.000000
		outer loop
			vertex	0.110576	1.54605	1.50000
			vertex	0.220588	1.53422	0.000000
			vertex	0.220588	1.53422	1.50000
		endloop
	endfacet
	facet normal	-0.106895	-0.994270	0.000000
		outer loop
			vertex	0.220588	1.53422	0.000000
			vertex	0.110576	1.54605	1.50000
			vertex	0.110576	1.54605	0.000000
		endloop
	endfacet
	facet normal	-0.0356928	-0.999363	-0.000000
		outer loop
			vertex	-2.49259e-016	1.55000	1.50000
			vertex	0.110576	1.54605	0.000000
			vertex	0.110576	1.54605	1.50000
		endloop
	endfacet
	facet normal	-0.0356928	-0.999363	0.000000
		outer loop
			vertex	0.110576	1.54605	0.000000
			vertex	-2.49259e-016	1.55000	1.50000
			vertex	-2.49259e-016	1.55000	0.000000
		endloop
	endfacet
	facet normal	0.0356928	-0.999363	-0.000000
		outer loop
			vertex	-0.110576	1.54605	1.50000
			vertex	-2.49259e-016	1.55000	0.000000
			vertex	-2.49259e-016	1.55000	1.50000
		endloop
	endfacet
	facet normal	0.0356928	-0.999363	0.000000
		outer loop
			vertex	-2.49259e-016	1.55000	0.000000
			vertex	-0.110576	1.54605	1.50000
			vertex	-0.110576	1.54605	0.000000
		endloop
	endfacet
	facet normal	0.106895	-0.994270	-0.000000
		outer loop
			vertex	-0.220588	1.53422	1.50000
			vertex	-0.110576	1.54605	0.000000
			vertex	-0.110576	1.54605	1.50000
		endloop
	endfacet
	facet normal	0.106895	-0.994270	0.000000
		outer loop
			vertex	-0.110576	1.54605	0.000000
			vertex	-0.220588	1.53422	1.50000
			vertex	-0.220588	1.53422	0.000000
		endloop
	endfacet
	facet normal	0.177553	-0.984111	-0.000000
		outer loop
			vertex	-0.329476	1.51458	1.50000
			vertex	-0.220588	1.53422	0.000000
			vertex	-0.220588	1.53422	1.50000
		endloop
	endfacet
	facet normal	0.177553	-0.984111	0.000000
		outer loop
			vertex	-0.220588	1.53422	0.000000
			vertex	-0.329476	1.51458	1.50000
			vertex	-0.329476	1.51458	0.000000
		endloop
	endfacet
	facet normal	0.219190	-0.975682	-0.000000
		outer loop
			vertex	-0.350000	1.50997	1.50000
			vertex	-0.329476	1.51458	0.000000
			vertex	-0.329476	1.51458	1.50000
		endloop
	endfacet
	facet normal	0.219190	-0.975682	0.000000
		outer loop
			vertex	-0.329476	1.51458	0.000000
			vertex	-0.350000	1.50997	1.50000
			vertex	-0.350000	1.50997	0.750000
		endloop
	endfacet
	facet normal	0.219190	0.975682	0.000000
		outer loop
			vertex	-0.350000	-1.50997	0.750000
			vertex	-0.329476	-1.51458	1.50000
			vertex	-0.329476	-1.51458	0.000000
		endloop
	endfacet
	facet normal	0.177553	0.984111	0.000000
		outer loop
			vertex	-0.220588	-1.53422	1.50000
			vertex	-0.329476	-1.51458	0.000000
			vertex	-0.329476	-1.51458	1.50000
		endloop
	endfacet
	facet normal	0.177553	0.984111	0.000000
		outer loop
			vertex	-0.329476	-1.51458	0.000000
			vertex	-0.220588	-1.53422	1.50000
			vertex	-0.220588	-1.53422	0.000000
		endloop
	endfacet
	facet normal	0.106895	0.994270	0.000000
		outer loop
			vertex	-0.110576	-1.54605	1.50000
			vertex	-0.220588	-1.53422	0.000000
			vertex	-0.220588	-1.53422	1.50000
		endloop
	endfacet
	facet normal	0.106895	0.994270	0.000000
		outer loop
			vertex	-0.220588	-1.53422	0.000000
			vertex	-0.110576	-1.54605	1.50000
			vertex	-0.110576	-1.54605	0.000000
		endloop
	endfacet
	facet normal	0.0356928	0.999363	0.000000
		outer loop
			vertex	-2.84730e-016	-1.55000	1.50000
			vertex	-0.110576	-1.54605	0.000000
			vertex	-0.110576	-1.54605	1.50000
		endloop
	endfacet
	facet normal	0.0356928	0.999363	0.000000
		outer loop
			vertex	-0.110576	-1.54605	0.000000
			vertex	-2.84730e-016	-1.55000	1.50000
			vertex	-2.84730e-016	-1.55000	0.000000
		endloop
	endfacet
	facet normal	-0.0356928	0.999363	-0.000000
		outer loop
			vertex	0.110576	-1.54605	1.50000
			vertex	-2.84730e-016	-1.55000	0.000000
			vertex	-2.84730e-016	-1.55000	1.50000
		endloop
	endfacet
	facet normal	-0.0356928	0.999363	0.000000
		outer loop
			vertex	-2.84730e-016	-1.55000	0.000000
			vertex	0.110576	-1.54605	1.50000
			vertex	0.110576	-1.54605	0.000000
		endloop
	endfacet
	facet normal	-0.106895	0.994270	-0.000000
		outer loop
			vertex	0.220588	-1.53422	1.50000
			vertex	0.110576	-1.54605	0.000000
			vertex	0.110576	-1.54605	1.50000
		endloop
	endfacet
	facet normal	-0.106895	0.994270	0.000000
		outer loop
			vertex	0.110576	-1.54605	0.000000
			vertex	0.220588	-1.53422	1.50000
			vertex	0.220588	-1.53422	0.000000
		endloop
	endfacet
	facet normal	-0.177553	0.984111	-0.000000
		outer loop
			vertex	0.329476	-1.51458	1.50000
			vertex	0.220588	-1.53422	0.000000
			vertex	0.220588	-1.53422	1.50000
		endloop
	endfacet
	facet normal	-0.177553	0.984111	0.000000
		outer loop
			vertex	0.220588	-1.53422	0.000000
			vertex	0.329476	-1.51458	1.50000
			vertex	0.329476	-1.51458	0.000000
		endloop
	endfacet
	facet normal	-0.219191	0.975682	-0.000000
		outer loop
			vertex	0.350000	-1.50997	1.50000
			vertex	0.329476	-1.51458	0.000000
			vertex	0.329476	-1.51458	1.50000
		endloop
	endfacet
	facet normal	-0.219191	0.975682	0.000000
		outer loop
			vertex	0.329476	-1.51458	0.000000
			vertex	0.350000	-1.50997	1.50000
			vertex	0.350000	-1.50997	0.750000
		endloop
	endfacet
	facet normal	-0.000000	0.000000	1.00000
		outer loop
			vertex	4.35000	3.50000	0.750000
			vertex	4.35000	-3.50000	0.750000
			vertex	5.00000	3.50000	0.750000
		endloop
	endfacet
	facet normal	-0.000000	-0.000000	1.00000
		outer loop
			vertex	5.00000	-3.50000	0.750000
			vertex	5.00000	3.50000	0.750000
			vertex	4.35000	-3.50000	0.750000
		endloop
	endfacet
	facet normal	0.000000	-1.00000	0.000000
		outer loop
			vertex	4.35000	3.50000	0.750000
			vertex	5.00000	3.50000	0.750000
			vertex	4.35000	3.50000	1.50000
		endloop
	endfacet
	facet normal	-0.000000	-1.00000	0.000000
		outer loop
			vertex	5.00000	3.50000	1.50000
			vertex	4.35000	3.50000	1.50000
			vertex	5.00000	3.50000	0.750000
		endloop
	endfacet
	facet normal	0.000000	1.00000	-0.000000
		outer loop
			vertex	5.00000	-3.50000	0.750000
			vertex	4.35000	-3.50000	0.750000
			vertex	5.00000	-3.50000	1.50000
		endloop
	endfacet
	facet normal	-0.000000	1.00000	-0.000000
		outer loop
			vertex	4.35000	-3.50000	1.50000
			vertex	5.00000	-3.50000	1.50000
			vertex	4.35000	-3.50000	0.750000
		endloop
	endfacet
	facet normal	1.00000	0.000000	0.000000
		outer loop
			vertex	4.35000	-3.50000	0.750000
			vertex	4.35000	3.50000	0.750000
			vertex	4.35000	-3.50000	1.50000
		endloop
	endfacet
	facet normal	1.00000	-0.000000	-0.000000
		outer loop
			vertex	4.35000	3.50000	1.50000
			vertex	4.35000	-3.50000	1.50000
			vertex	4.35000	3.50000	0.750000
		endloop
	endfacet
	facet normal	-0.000000	0.000000	1.00000
		outer loop
			vertex	2.35000	3.50000	0.750000
			vertex	2.35000	-3.50000	0.750000
			vertex	3.65000	3.50000	0.750000
		endloop
	endfacet
	facet normal	-0.000000	-0.000000	1.00000
		outer loop
			vertex	3.65000	-3.50000	0.750000
			vertex	3.65000	3.50000	0.750000
			vertex	2.35000	-3.50000	0.750000
		endloop
	endfacet
	facet normal	0.000000	-1.00000	0.000000
		outer loop
			vertex	2.35000	3.50000	0.750000
			vertex	3.65000	3.50000	0.750000
			vertex	2.35000	3.50000	1.50000
		endloop
	endfacet
	facet normal	-0.000000	-1.00000	0.000000
		outer loop
			vertex	3.65000	3.50000	1.50000
			vertex	2.35000	3.50000	1.50000
			vertex	3.65000	3.50000	0.750000
		endloop
	endfacet
	facet normal	1.00000	0.000000	0.000000
		outer loop
			vertex	2.35000	-3.50000	0.750000
			vertex	2.35000	3.50000	0.750000
			vertex	2.35000	-3.50000	1.50000
		endloop
	endfacet
	facet normal	1.00000	-0.000000	-0.000000
		outer loop
			vertex	2.35000	3.50000	1.50000
			vertex	2.35000	-3.50000	1.50000
			vertex	2.35000	3.50000	0.750000
		endloop
	endfacet
	facet normal	0.000000	1.00000	-0.000000
		outer loop
			vertex	3.65000	-3.50000	0.750000
			vertex	2.35000	-3.50000	0.750000
			vertex	3.65000	-3.50000	1.50000
		endloop
	endfacet
	facet normal	-0.000000	1.00000	-0.000000
		outer loop
			vertex	2.35000	-3.50000	1.50000
			vertex	3.65000	-3.50000	1.50000
			vertex	2.35000	-3.50000	0.750000
		endloop
	endfacet
	facet normal	-1.00000	0.000000	0.000000
		outer loop
			vertex	3.65000	3.50000	0.750000
			vertex	3.65000	-3.50000	0.750000
			vertex	3.65000	3.50000	1.50000
		endloop
	endfacet
	facet normal	-1.00000	-0.000000	-0.000000
		outer loop
			vertex	3.65000	-3.50000	1.50000
			vertex	3.65000	3.50000	1.50000
			vertex	3.65000	-3.50000	0.750000
		endloop
	endfacet
	facet normal	0.000000	-1.00000	0.000000
		outer loop
			vertex	0.350000	3.50000	0.750000
			vertex	1.65000	3.50000	0.750000
			vertex	0.350000	3.50000	1.50000
		endloop
	endfacet
	facet normal	-0.000000	-1.00000	0.000000
		outer loop
			vertex	1.65000	3.50000	1.50000
			vertex	0.350000	3.50000	1.50000
			vertex	1.65000	3.50000	0.750000
		endloop
	endfacet
	facet normal	0.000000	1.00000	-0.000000
		outer loop
			vertex	1.65000	-3.50000	0.750000
			vertex	0.350000	-3.50000	0.750000
			vertex	1.65000	-3.50000	1.50000
		endloop
	endfacet
	facet normal	-0.000000	1.00000	-0.000000
		outer loop
			vertex	0.350000	-3.50000	1.50000
			vertex	1.65000	-3.50000	1.50000
			vertex	0.350000	-3.50000	0.750000
		endloop
	endfacet
	facet normal	-1.00000	0.000000	0.000000
		outer loop
			vertex	1.65000	3.50000	0.750000
			vertex	1.65000	-3.50000	0.750000
			vertex	1.65000	3.50000	1.50000
		endloop
	endfacet
	facet normal	-1.00000	-0.000000	-0.000000
		outer loop
			vertex	1.65000	-3.50000	1.50000
			vertex	1.65000	3.50000	1.50000
			vertex	1.65000	-3.50000	0.750000
		endloop
	endfacet
	facet normal	0.000000	-1.00000	0.000000
		outer loop
			vertex	-1.65000	3.50000	0.750000
			vertex	-0.350000	3.50000	0.750000
			vertex	-1.65000	3.50000	1.50000
		endloop
	endfacet
	facet normal	-0.000000	-1.00000	0.000000
		outer loop
			vertex	-0.350000	3.50000	1.50000
			vertex	-1.65000	3.50000	1.50000
			vertex	-0.350000	3.50000	0.750000
		endloop
	endfacet
	facet normal	1.00000	0.000000	0.000000
		outer loop
			vertex	-1.65000	-3.50000	0.750000
			vertex	-1.65000	3.50000	0.750000
			vertex	-1.65000	-3.50000	1.50000
		endloop
	endfacet
	facet normal	1.00000	-0.000000	-0.000000
		outer loop
			vertex	-1.65000	3.50000	1.50000
			vertex	-1.65000	-3.50000	1.50000
			vertex	-1.65000	3.50000	0.750000
		endloop
	endfacet
	facet normal	0.000000	1.00000	-0.000000
		outer loop
			vertex	-0.350000	-3.50000	0.750000
			vertex	-1.65000	-3.50000	0.750000
			vertex	-0.350000	-3.50000	1.50000
		endloop
	endfacet
	facet normal	-0.000000	1.00000	-0.000000
		outer loop
			vertex	-1.65000	-3.50000	1.50000
			vertex	-0.350000	-3.50000	1.50000
			vertex	-1.65000	-3.50000	0.750000
		endloop
	endfacet
	facet normal	-0.000000	0.000000	1.00000
		outer loop
			vertex	-3.65000	3.50000	0.750000
			vertex	-3.65000	-3.50000	0.750000
			vertex	-2.35000	3.50000	0.750000
		endloop
	endfacet
	facet normal	-0.000000	-0.000000	1.00000
		outer loop
			vertex	-2.35000	-3.50000	0.750000
			vertex	-2.35000	3.50000	0.750000
			vertex	-3.65000	-3.50000	0.750000
		endloop
	endfacet
	facet normal	0.000000	-1.00000	0.000000
		outer loop
			vertex	-3.65000	3.50000	0.750000
			vertex	-2.35000	3.50000	0.750000
			vertex	-3.65000	3.50000	1.50000
		endloop
	endfacet
	facet normal	-0.000000	-1.00000	0.000000
		outer loop
			vertex	-2.35000	3.50000	1.50000
			vertex	-3.65000	3.50000	1.50000
			vertex	-2.35000	3.50000	0.750000
		endloop
	endfacet
	facet normal	1.00000	0.000000	0.000000
		outer loop
			vertex	-3.65000	-3.50000	0.750000
			vertex	-3.65000	3.50000	0.750000
			vertex	-3.65000	-3.50000	1.50000
		endloop
	endfacet
	facet normal	1.00000	-0.000000	-0.000000
		outer loop
			vertex	-3.65000	3.50000	1.50000
			vertex	-3.65000	-3.50000	1.50000
			vertex	-3.65000	3.50000	0.750000
		endloop
	endfacet
	facet normal	0.000000	1.00000	-0.000000
		outer loop
			vertex	-2.35000	-3.50000	0.750000
			vertex	-3.65000	-3.50000	0.750000
			vertex	-2.35000	-3.50000	1.50000
		endloop
	endfacet
	facet normal	-0.000000	1.00000	-0.000000
		outer loop
			vertex	-3.65000	-3.50000	1.50000
			vertex	-2.35000	-3.50000	1.50000
			vertex	-3.65000	-3.50000	0.750000
		endloop
	endfacet
	facet normal	-1.00000	0.000000	0.000000
		outer loop
			vertex	-2.35000	3.50000	0.750000
			vertex	-2.35000	-3.50000	0.750000
			vertex	-2.35000	3.50000	1.50000
		endloop
	endfacet
	facet normal	-1.00000	-0.000000	-0.000000
		outer loop
			vertex	-2.35000	-3.50000	1.50000
			vertex	-2.35000	3.50000	1.50000
			vertex	-2.35000	-3.50000	0.750000
		endloop
	endfacet
	facet normal	-0.000000	0.000000	1.00000
		outer loop
			vertex	-5.00000	3.50000	0.750000
			vertex	-5.00000	-3.50000	0.750000
			vertex	-4.35000	3.50000	0.750000
		endloop
	endfacet
	facet normal	-0.000000	-0.000000	1.00000
		outer loop
			vertex	-4.35000	-3.50000	0.750000
			vertex	-4.35000	3.50000	0.750000
			vertex	-5.00000	-3.50000	0.750000
		endloop
	endfacet
	facet normal	0.000000	-1.00000	0.000000
		outer loop
			vertex	-5.00000	3.50000	0.750000
			vertex	-4.35000	3.50000	0.750000
			vertex	-5.00000	3.50000	1.50000
		endloop
	endfacet
	facet normal	-0.000000	-1.00000	0.000000
		outer loop
			vertex	-4.35000	3.50000	1.50000
			vertex	-5.00000	3.50000	1.50000
			vertex	-4.35000	3.50000	0.750000
		endloop
	endfacet
	facet normal	0.000000	1.00000	-0.000000
		outer loop
			vertex	-4.35000	-3.50000	0.750000
			vertex	-5.00000	-3.50000	0.750000
			vertex	-4.35000	-3.50000	1.50000
		endloop
	endfacet
	facet normal	-0.000000	1.00000	-0.000000
		outer loop
			vertex	-5.00000	-3.50000	1.50000
			vertex	-4.35000	-3.50000	1.50000
			vertex	-5.00000	-3.50000	0.750000
		endloop
	endfacet
	facet normal	-1.00000	0.000000	0.000000
		outer loop
			vertex	-4.35000	3.50000	0.750000
			vertex	-4.35000	-3.50000	0.750000
			vertex	-4.35000	3.50000	1.50000
		endloop
	endfacet
	facet normal	-1.00000	-0.000000	-0.000000
		outer loop
			vertex	-4.35000	-3.50000	1.50000
			vertex	-4.35000	3.50000	1.50000
			vertex	-4.35000	-3.50000	0.750000
		endloop
	endfacet
	facet normal	0.000000	1.00000	-0.000000
		outer loop
			vertex	5.00000	5.50000	-3.36778e-016
			vertex	-5.00000	5.50000	-3.36778e-016
			vertex	5.00000	5.50000	1.50000
		endloop
	endfacet
	facet normal	-0.000000	1.00000	-0.000000
		outer loop
			vertex	-5.00000	5.50000	1.50000
			vertex	5.00000	5.50000	1.50000
			vertex	-5.00000	5.50000	-3.36778e-016
		endloop
	endfacet
	facet normal	0.000000	-1.00000	0.000000
		outer loop
			vertex	-5.00000	-5.50000	3.36778e-016
			vertex	5.00000	-5.50000	3.36778e-016
			vertex	-5.00000	-5.50000	1.50000
		endloop
	endfacet
	facet normal	-0.000000	-1.00000	0.000000
		outer loop
			vertex	5.00000	-5.50000	1.50000
			vertex	-5.00000	-5.50000	1.50000
			vertex	5.00000	-5.50000	3.36778e-016
		endloop
	endfacet
	facet normal	-1.00000	0.000000	0.000000
		outer loop
			vertex	-5.00000	3.50000	1.50000
			vertex	-5.00000	5.50000	1.50000
			vertex	-5.00000	3.50000	0.750000
		endloop
	endfacet
	facet normal	-1.00000	-0.000000	-0.000000
		outer loop
			vertex	-5.00000	5.50000	-3.36778e-016
			vertex	-5.00000	3.50000	0.750000
			vertex	-5.00000	5.50000	1.50000
		endloop
	endfacet
	facet normal	-1.00000	-0.000000	-0.000000
		outer loop
			vertex	-5.00000	3.50000	0.750000
			vertex	-5.00000	5.50000	-3.36778e-016
			vertex	-5.00000	-3.50000	0.750000
		endloop
	endfacet
	facet normal	-1.00000	-0.000000	-0.000000
		outer loop
			vertex	-5.00000	-5.50000	3.36778e-016
			vertex	-5.00000	-3.50000	0.750000
			vertex	-5.00000	5.50000	-3.36778e-016
		endloop
	endfacet
	facet normal	-1.00000	-0.000000	0.000000
		outer loop
			vertex	-5.00000	-3.50000	0.750000
			vertex	-5.00000	-5.50000	3.36778e-016
			vertex	-5.00000	-3.50000	1.50000
		endloop
	endfacet
	facet normal	-1.00000	-0.000000	-0.000000
		outer loop
			vertex	-5.00000	-5.50000	1.50000
			vertex	-5.00000	-3.50000	1.50000
			vertex	-5.00000	-5.50000	3.36778e-016
		endloop
	endfacet
	facet normal	1.00000	0.000000	0.000000
		outer loop
			vertex	5.00000	-3.50000	1.50000
			vertex	5.00000	-5.50000	1.50000
			vertex	5.00000	-3.50000	0.750000
		endloop
	endfacet
	facet normal	1.00000	-0.000000	-0.000000
		outer loop
			vertex	5.00000	-5.50000	3.36778e-016
			vertex	5.00000	-3.50000	0.750000
			vertex	5.00000	-5.50000	1.50000
		endloop
	endfacet
	facet normal	1.00000	-0.000000	0.000000
		outer loop
			vertex	5.00000	-3.50000	0.750000
			vertex	5.00000	-5.50000	3.36778e-016
			vertex	5.00000	3.50000	0.750000
		endloop
	endfacet
	facet normal	1.00000	-0.000000	-0.000000
		outer loop
			vertex	5.00000	5.50000	-3.36778e-016
			vertex	5.00000	3.50000	0.750000
			vertex	5.00000	-5.50000	3.36778e-016
		endloop
	endfacet
	facet normal	1.00000	-0.000000	0.000000
		outer loop
			vertex	5.00000	3.50000	0.750000
			vertex	5.00000	5.50000	-3.36778e-016
			vertex	5.00000	3.50000	1.50000
		endloop
	endfacet
	facet normal	1.00000	-0.000000	-0.000000
		outer loop
			vertex	5.00000	5.50000	1.50000
			vertex	5.00000	3.50000	1.50000
			vertex	5.00000	5.50000	-3.36778e-016
		endloop
	endfacet
	facet normal	0.000000	0.000000	1.00000
		outer loop
			vertex	1.36040	-0.742836	0.750000
			vertex	1.30394	-0.837993	0.750000
			vertex	1.65000	-3.50000	0.750000
		endloop
	endfacet
	facet normal	-0.000000	0.000000	1.00000
		outer loop
			vertex	1.24084	-0.928880	0.750000
			vertex	1.65000	-3.50000	0.750000
			vertex	1.30394	-0.837993	0.750000
		endloop
	endfacet
	facet normal	0.000000	0.000000	1.00000
		outer loop
			vertex	1.65000	-3.50000	0.750000
			vertex	1.24084	-0.928880	0.750000
			vertex	1.17141	-1.01503	0.750000
		endloop
	endfacet
	facet normal	0.000000	0.000000	1.00000
		outer loop
			vertex	1.17141	-1.01503	0.750000
			vertex	1.09602	-1.09602	0.750000
			vertex	1.65000	-3.50000	0.750000
		endloop
	endfacet
	facet normal	-0.000000	0.000000	1.00000
		outer loop
			vertex	1.01503	-1.17141	0.750000
			vertex	1.65000	-3.50000	0.750000
			vertex	1.09602	-1.09602	0.750000
		endloop
	endfacet
	facet normal	0.000000	0.000000	1.00000
		outer loop
			vertex	1.65000	-3.50000	0.750000
			vertex	1.01503	-1.17141	0.750000
			vertex	0.928880	-1.24084	0.750000
		endloop
	endfacet
	facet normal	-0.000000	0.000000	1.00000
		outer loop
			vertex	0.350000	-1.50997	0.750000
			vertex	0.350000	-3.50000	0.750000
			vertex	0.436685	-1.48721	0.750000
		endloop
	endfacet
	facet normal	-0.000000	-0.000000	1.00000
		outer loop
			vertex	1.65000	-3.50000	0.750000
			vertex	0.436685	-1.48721	0.750000
			vertex	0.350000	-3.50000	0.750000
		endloop
	endfacet
	facet normal	-0.000000	0.000000	1.00000
		outer loop
			vertex	0.436685	-1.48721	0.750000
			vertex	1.65000	-3.50000	0.750000
			vertex	0.541669	-1.45227	0.750000
		endloop
	endfacet
	facet normal	-0.000000	-0.000000	1.00000
		outer loop
			vertex	0.643893	-1.40993	0.750000
			vertex	0.541669	-1.45227	0.750000
			vertex	1.65000	-3.50000	0.750000
		endloop
	endfacet
	facet normal	0.000000	0.000000	1.00000
		outer loop
			vertex	0.928880	-1.24084	0.750000
			vertex	0.837993	-1.30394	0.750000
			vertex	1.65000	-3.50000	0.750000
		endloop
	endfacet
	facet normal	-0.000000	0.000000	1.00000
		outer loop
			vertex	0.742836	-1.36040	0.750000
			vertex	1.65000	-3.50000	0.750000
			vertex	0.837993	-1.30394	0.750000
		endloop
	endfacet
	facet normal	0.000000	0.000000	1.00000
		outer loop
			vertex	1.65000	-3.50000	0.750000
			vertex	0.742836	-1.36040	0.750000
			vertex	0.643893	-1.40993	0.750000
		endloop
	endfacet
	facet normal	-0.000000	0.000000	1.00000
		outer loop
			vertex	0.350000	3.50000	0.750000
			vertex	0.350000	1.50997	0.750000
			vertex	1.65000	3.50000	0.750000
		endloop
	endfacet
	facet normal	-0.000000	-0.000000	1.00000
		outer loop
			vertex	0.436685	1.48721	0.750000
			vertex	1.65000	3.50000	0.750000
			vertex	0.350000	1.50997	0.750000
		endloop
	endfacet
	facet normal	0.000000	0.000000	1.00000
		outer loop
			vertex	1.65000	3.50000	0.750000
			vertex	0.436685	1.48721	0.750000
			vertex	0.541669	1.45227	0.750000
		endloop
	endfacet
	facet normal	-0.000000	0.000000	1.00000
		outer loop
			vertex	0.541669	1.45227	0.750000
			vertex	0.643893	1.40993	0.750000
			vertex	1.65000	3.50000	0.750000
		endloop
	endfacet
	facet normal	-0.000000	-0.000000	1.00000
		outer loop
			vertex	0.742836	1.36040	0.750000
			vertex	1.65000	3.50000	0.750000
			vertex	0.643893	1.40993	0.750000
		endloop
	endfacet
	facet normal	0.000000	0.000000	1.00000
		outer loop
			vertex	1.65000	3.50000	0.750000
			vertex	0.742836	1.36040	0.750000
			vertex	0.837993	1.30394	0.750000
		endloop
	endfacet
	facet normal	0.000000	-0.000000	1.00000
		outer loop
			vertex	1.24084	0.928880	0.750000
			vertex	1.65000	3.50000	0.750000
			vertex	1.17141	1.01503	0.750000
		endloop
	endfacet
	facet normal	-0.000000	-0.000000	1.00000
		outer loop
			vertex	1.09602	1.09602	0.750000
			vertex	1.17141	1.01503	0.750000
			vertex	1.65000	3.50000	0.750000
		endloop
	endfacet
	facet normal	-0.000000	0.000000	1.00000
		outer loop
			vertex	0.837993	1.30394	0.750000
			vertex	0.928880	1.24084	0.750000
			vertex	1.65000	3.50000	0.750000
		endloop
	endfacet
	facet normal	-0.000000	-0.000000	1.00000
		outer loop
			vertex	1.01503	1.17141	0.750000
			vertex	1.65000	3.50000	0.750000
			vertex	0.928880	1.24084	0.750000
		endloop
	endfacet
	facet normal	0.000000	0.000000	1.00000
		outer loop
			vertex	1.65000	3.50000	0.750000
			vertex	1.01503	1.17141	0.750000
			vertex	1.09602	1.09602	0.750000
		endloop
	endfacet
	facet normal	0.000000	0.000000	1.00000
		outer loop
			vertex	1.53422	-0.220588	0.750000
			vertex	1.51458	-0.329476	0.750000
			vertex	1.65000	-3.50000	0.750000
		endloop
	endfacet
	facet normal	-0.000000	0.000000	1.00000
		outer loop
			vertex	1.48721	-0.436685	0.750000
			vertex	1.65000	-3.50000	0.750000
			vertex	1.51458	-0.329476	0.750000
		endloop
	endfacet
	facet normal	0.000000	0.000000	1.00000
		outer loop
			vertex	1.48721	-0.436685	0.750000
			vertex	1.45227	-0.541669	0.750000
			vertex	1.65000	-3.50000	0.750000
		endloop
	endfacet
	facet normal	-0.000000	0.000000	1.00000
		outer loop
			vertex	1.40993	-0.643893	0.750000
			vertex	1.65000	-3.50000	0.750000
			vertex	1.45227	-0.541669	0.750000
		endloop
	endfacet
	facet normal	0.000000	0.000000	1.00000
		outer loop
			vertex	1.65000	-3.50000	0.750000
			vertex	1.40993	-0.643893	0.750000
			vertex	1.36040	-0.742836	0.750000
		endloop
	endfacet
	facet normal	-0.000000	0.000000	1.00000
		outer loop
			vertex	1.24084	0.928880	0.750000
			vertex	1.30394	0.837993	0.750000
			vertex	1.65000	3.50000	0.750000
		endloop
	endfacet
	facet normal	-0.000000	-0.000000	1.00000
		outer loop
			vertex	1.36040	0.742836	0.750000
			vertex	1.65000	3.50000	0.750000
			vertex	1.30394	0.837993	0.750000
		endloop
	endfacet
	facet normal	0.000000	0.000000	1.00000
		outer loop
			vertex	1.65000	3.50000	0.750000
			vertex	1.36040	0.742836	0.750000
			vertex	1.40993	0.643893	0.750000
		endloop
	endfacet
	facet normal	0.000000	0.000000	1.00000
		outer loop
			vertex	1.65000	3.50000	0.750000
			vertex	1.55000	0.000000	0.750000
			vertex	1.65000	-3.50000	0.750000
		endloop
	endfacet
	facet normal	-0.000000	0.000000	1.00000
		outer loop
			vertex	1.54605	-0.110576	0.750000
			vertex	1.65000	-3.50000	0.750000
			vertex	1.55000	0.000000	0.750000
		endloop
	endfacet
	facet normal	0.000000	0.000000	1.00000
		outer loop
			vertex	1.65000	-3.50000	0.750000
			vertex	1.54605	-0.110576	0.750000
			vertex	1.53422	-0.220588	0.750000
		endloop
	endfacet
	facet normal	-0.000000	0.000000	1.00000
		outer loop
			vertex	1.40993	0.643893	0.750000
			vertex	1.45227	0.541669	0.750000
			vertex	1.65000	3.50000	0.750000
		endloop
	endfacet
	facet normal	-0.000000	-0.000000	1.00000
		outer loop
			vertex	1.48721	0.436685	0.750000
			vertex	1.65000	3.50000	0.750000
			vertex	1.45227	0.541669	0.750000
		endloop
	endfacet
	facet normal	0.000000	0.000000	1.00000
		outer loop
			vertex	1.65000	3.50000	0.750000
			vertex	1.48721	0.436685	0.750000
			vertex	1.51458	0.329476	0.750000
		endloop
	endfacet
	facet normal	-0.000000	0.000000	1.00000
		outer loop
			vertex	1.51458	0.329476	0.750000
			vertex	1.53422	0.220588	0.750000
			vertex	1.65000	3.50000	0.750000
		endloop
	endfacet
	facet normal	-0.000000	-0.000000	1.00000
		outer loop
			vertex	1.54605	0.110576	0.750000
			vertex	1.65000	3.50000	0.750000
			vertex	1.53422	0.220588	0.750000
		endloop
	endfacet
	facet normal	0.000000	0.000000	1.00000
		outer loop
			vertex	1.65000	3.50000	0.750000
			vertex	1.54605	0.110576	0.750000
			vertex	1.55000	0.000000	0.750000
		endloop
	endfacet
	facet normal	1.00000	0.000000	0.000000
		outer loop
			vertex	0.350000	-1.50997	1.50000
			vertex	0.350000	-3.50000	1.50000
			vertex	0.350000	-1.50997	0.750000
		endloop
	endfacet
	facet normal	1.00000	-0.000000	-0.000000
		outer loop
			vertex	0.350000	-3.50000	0.750000
			vertex	0.350000	-1.50997	0.750000
			vertex	0.350000	-3.50000	1.50000
		endloop
	endfacet
	facet normal	1.00000	0.000000	0.000000
		outer loop
			vertex	0.350000	1.50997	0.750000
			vertex	0.350000	3.50000	0.750000
			vertex	0.350000	1.50997	1.50000
		endloop
	endfacet
	facet normal	1.00000	-0.000000	-0.000000
		outer loop
			vertex	0.350000	3.50000	1.50000
			vertex	0.350000	1.50997	1.50000
			vertex	0.350000	3.50000	0.750000
		endloop
	endfacet
	facet normal	0.000000	-0.000000	1.00000
		outer loop
			vertex	-0.350000	-3.50000	0.750000
			vertex	-0.350000	-1.50997	0.750000
			vertex	-1.65000	-3.50000	0.750000
		endloop
	endfacet
	facet normal	0.000000	-0.000000	1.00000
		outer loop
			vertex	-0.436685	-1.48721	0.750000
			vertex	-1.65000	-3.50000	0.750000
			vertex	-0.350000	-1.50997	0.750000
		endloop
	endfacet
	facet normal	0.000000	0.000000	1.00000
		outer loop
			vertex	-1.65000	-3.50000	0.750000
			vertex	-0.436685	-1.48721	0.750000
			vertex	-0.541669	-1.45227	0.750000
		endloop
	endfacet
	facet normal	0.000000	0.000000	1.00000
		outer loop
			vertex	-0.541669	-1.45227	0.750000
			vertex	-0.643893	-1.40993	0.750000
			vertex	-1.65000	-3.50000	0.750000
		endloop
	endfacet
	facet normal	0.000000	-0.000000	1.00000
		outer loop
			vertex	-0.742836	-1.36040	0.750000
			vertex	-1.65000	-3.50000	0.750000
			vertex	-0.643893	-1.40993	0.750000
		endloop
	endfacet
	facet normal	0.000000	0.000000	1.00000
		outer loop
			vertex	-1.65000	-3.50000	0.750000
			vertex	-0.742836	-1.36040	0.750000
			vertex	-0.837993	-1.30394	0.750000
		endloop
	endfacet
	facet normal	0.000000	-0.000000	1.00000
		outer loop
			vertex	-1.24084	0.928880	0.750000
			vertex	-1.17141	1.01503	0.750000
			vertex	-1.65000	3.50000	0.750000
		endloop
	endfacet
	facet normal	0.000000	-0.000000	1.00000
		outer loop
			vertex	-0.350000	1.50997	0.750000
			vertex	-0.350000	3.50000	0.750000
			vertex	-0.436685	1.48721	0.750000
		endloop
	endfacet
	facet normal	0.000000	-0.000000	1.00000
		outer loop
			vertex	-1.65000	3.50000	0.750000
			vertex	-0.436685	1.48721	0.750000
			vertex	-0.350000	3.50000	0.750000
		endloop
	endfacet
	facet normal	0.000000	0.000000	1.00000
		outer loop
			vertex	-0.436685	1.48721	0.750000
			vertex	-1.65000	3.50000	0.750000
			vertex	-0.541669	1.45227	0.750000
		endloop
	endfacet
	facet normal	-0.000000	-0.000000	1.00000
		outer loop
			vertex	-0.643893	1.40993	0.750000
			vertex	-0.541669	1.45227	0.750000
			vertex	-1.65000	3.50000	0.750000
		endloop
	endfacet
	facet normal	0.000000	0.000000	1.00000
		outer loop
			vertex	-0.837993	-1.30394	0.750000
			vertex	-0.928880	-1.24084	0.750000
			vertex	-1.65000	-3.50000	0.750000
		endloop
	endfacet
	facet normal	0.000000	-0.000000	1.00000
		outer loop
			vertex	-1.01503	-1.17141	0.750000
			vertex	-1.65000	-3.50000	0.750000
			vertex	-0.928880	-1.24084	0.750000
		endloop
	endfacet
	facet normal	0.000000	0.000000	1.00000
		outer loop
			vertex	-1.65000	-3.50000	0.750000
			vertex	-1.01503	-1.17141	0.750000
			vertex	-1.09602	-1.09602	0.750000
		endloop
	endfacet
	facet normal	0.000000	0.000000	1.00000
		outer loop
			vertex	-1.09602	-1.09602	0.750000
			vertex	-1.17141	-1.01503	0.750000
			vertex	-1.65000	-3.50000	0.750000
		endloop
	endfacet
	facet normal	0.000000	-0.000000	1.00000
		outer loop
			vertex	-1.24084	-0.928880	0.750000
			vertex	-1.65000	-3.50000	0.750000
			vertex	-1.17141	-1.01503	0.750000
		endloop
	endfacet
	facet normal	0.000000	0.000000	1.00000
		outer loop
			vertex	-1.65000	-3.50000	0.750000
			vertex	-1.24084	-0.928880	0.750000
			vertex	-1.30394	-0.837993	0.750000
		endloop
	endfacet
	facet normal	0.000000	-0.000000	1.00000
		outer loop
			vertex	-0.928880	1.24084	0.750000
			vertex	-0.837993	1.30394	0.750000
			vertex	-1.65000	3.50000	0.750000
		endloop
	endfacet
	facet normal	-0.000000	-0.000000	1.00000
		outer loop
			vertex	-0.742836	1.36040	0.750000
			vertex	-1.65000	3.50000	0.750000
			vertex	-0.837993	1.30394	0.750000
		endloop
	endfacet
	facet normal	0.000000	0.000000	1.00000
		outer loop
			vertex	-1.65000	3.50000	0.750000
			vertex	-0.742836	1.36040	0.750000
			vertex	-0.643893	1.40993	0.750000
		endloop
	endfacet
	facet normal	0.000000	-0.000000	1.00000
		outer loop
			vertex	-1.17141	1.01503	0.750000
			vertex	-1.09602	1.09602	0.750000
			vertex	-1.65000	3.50000	0.750000
		endloop
	endfacet
	facet normal	-0.000000	-0.000000	1.00000
		outer loop
			vertex	-1.01503	1.17141	0.750000
			vertex	-1.65000	3.50000	0.750000
			vertex	-1.09602	1.09602	0.750000
		endloop
	endfacet
	facet normal	0.000000	0.000000	1.00000
		outer loop
			vertex	-1.65000	3.50000	0.750000
			vertex	-1.01503	1.17141	0.750000
			vertex	-0.928880	1.24084	0.750000
		endloop
	endfacet
	facet normal	0.000000	-0.000000	1.00000
		outer loop
			vertex	-1.40993	0.643893	0.750000
			vertex	-1.36040	0.742836	0.750000
			vertex	-1.65000	3.50000	0.750000
		endloop
	endfacet
	facet normal	-0.000000	-0.000000	1.00000
		outer loop
			vertex	-1.30394	0.837993	0.750000
			vertex	-1.65000	3.50000	0.750000
			vertex	-1.36040	0.742836	0.750000
		endloop
	endfacet
	facet normal	0.000000	0.000000	1.00000
		outer loop
			vertex	-1.65000	3.50000	0.750000
			vertex	-1.30394	0.837993	0.750000
			vertex	-1.24084	0.928880	0.750000
		endloop
	endfacet
	facet normal	0.000000	0.000000	1.00000
		outer loop
			vertex	-1.30394	-0.837993	0.750000
			vertex	-1.36040	-0.742836	0.750000
			vertex	-1.65000	-3.50000	0.750000
		endloop
	endfacet
	facet normal	0.000000	-0.000000	1.00000
		outer loop
			vertex	-1.40993	-0.643893	0.750000
			vertex	-1.65000	-3.50000	0.750000
			vertex	-1.36040	-0.742836	0.750000
		endloop
	endfacet
	facet normal	0.000000	0.000000	1.00000
		outer loop
			vertex	-1.65000	-3.50000	0.750000
			vertex	-1.40993	-0.643893	0.750000
			vertex	-1.45227	-0.541669	0.750000
		endloop
	endfacet
	facet normal	0.000000	0.000000	1.00000
		outer loop
			vertex	-1.45227	-0.541669	0.750000
			vertex	-1.48721	-0.436685	0.750000
			vertex	-1.65000	-3.50000	0.750000
		endloop
	endfacet
	facet normal	0.000000	-0.000000	1.00000
		outer loop
			vertex	-1.51458	-0.329476	0.750000
			vertex	-1.65000	-3.50000	0.750000
			vertex	-1.48721	-0.436685	0.750000
		endloop
	endfacet
	facet normal	0.000000	0.000000	1.00000
		outer loop
			vertex	-1.65000	-3.50000	0.750000
			vertex	-1.51458	-0.329476	0.750000
			vertex	-1.53422	-0.220588	0.750000
		endloop
	endfacet
	facet normal	0.000000	-0.000000	1.00000
		outer loop
			vertex	-1.53422	0.220588	0.750000
			vertex	-1.51458	0.329476	0.750000
			vertex	-1.65000	3.50000	0.750000
		endloop
	endfacet
	facet normal	0.000000	0.000000	1.00000
		outer loop
			vertex	-1.53422	-0.220588	0.750000
			vertex	-1.54605	-0.110576	0.750000
			vertex	-1.65000	-3.50000	0.750000
		endloop
	endfacet
	facet normal	0.000000	-0.000000	1.00000
		outer loop
			vertex	-1.55000	0.000000	0.750000
			vertex	-1.65000	-3.50000	0.750000
			vertex	-1.54605	-0.110576	0.750000
		endloop
	endfacet
	facet normal	0.000000	0.000000	1.00000
		outer loop
			vertex	-1.65000	-3.50000	0.750000
			vertex	-1.55000	0.000000	0.750000
			vertex	-1.65000	3.50000	0.750000
		endloop
	endfacet
	facet normal	-0.000000	-0.000000	1.00000
		outer loop
			vertex	-1.54605	0.110576	0.750000
			vertex	-1.65000	3.50000	0.750000
			vertex	-1.55000	0.000000	0.750000
		endloop
	endfacet
	facet normal	0.000000	0.000000	1.00000
		outer loop
			vertex	-1.65000	3.50000	0.750000
			vertex	-1.54605	0.110576	0.750000
			vertex	-1.53422	0.220588	0.750000
		endloop
	endfacet
	facet normal	0.000000	-0.000000	1.00000
		outer loop
			vertex	-1.51458	0.329476	0.750000
			vertex	-1.48721	0.436685	0.750000
			vertex	-1.65000	3.50000	0.750000
		endloop
	endfacet
	facet normal	-0.000000	-0.000000	1.00000
		outer loop
			vertex	-1.45227	0.541669	0.750000
			vertex	-1.65000	3.50000	0.750000
			vertex	-1.48721	0.436685	0.750000
		endloop
	endfacet
	facet normal	0.000000	0.000000	1.00000
		outer loop
			vertex	-1.65000	3.50000	0.750000
			vertex	-1.45227	0.541669	0.750000
			vertex	-1.40993	0.643893	0.750000
		endloop
	endfacet
	facet normal	-1.00000	0.000000	0.000000
		outer loop
			vertex	-0.350000	1.50997	1.50000
			vertex	-0.350000	3.50000	1.50000
			vertex	-0.350000	1.50997	0.750000
		endloop
	endfacet
	facet normal	-1.00000	-0.000000	-0.000000
		outer loop
			vertex	-0.350000	3.50000	0.750000
			vertex	-0.350000	1.50997	0.750000
			vertex	-0.350000	3.50000	1.50000
		endloop
	endfacet
	facet normal	-1.00000	0.000000	0.000000
		outer loop
			vertex	-0.350000	-1.50997	0.750000
			vertex	-0.350000	-3.50000	0.750000
			vertex	-0.350000	-1.50997	1.50000
		endloop
	endfacet
	facet normal	-1.00000	-0.000000	-0.000000
		outer loop
			vertex	-0.350000	-3.50000	1.50000
			vertex	-0.350000	-1.50997	1.50000
			vertex	-0.350000	-3.50000	0.750000
		endloop
	endfacet
	facet normal	2.78560e-023	-6.12324e-017	-1.00000
		outer loop
			vertex	0.329476	1.51458	-9.27411e-017
			vertex	0.220588	1.53422	-9.39441e-017
			vertex	5.00000	5.50000	-3.36778e-016
		endloop
	endfacet
	facet normal	-3.38629e-023	-6.12323e-017	-1.00000
		outer loop
			vertex	1.17141	1.01503	-6.21529e-017
			vertex	1.09602	1.09602	-6.71116e-017
			vertex	5.00000	5.50000	-3.36778e-016
		endloop
	endfacet
	facet normal	3.57915e-023	-6.12324e-017	-1.00000
		outer loop
			vertex	1.01503	1.17141	-7.17283e-017
			vertex	5.00000	5.50000	-3.36778e-016
			vertex	1.09602	1.09602	-6.71116e-017
		endloop
	endfacet
	facet normal	1.84863e-023	-6.12324e-017	-1.00000
		outer loop
			vertex	5.00000	5.50000	-3.36778e-016
			vertex	1.01503	1.17141	-7.17283e-017
			vertex	0.928880	1.24084	-7.59795e-017
		endloop
	endfacet
	facet normal	-3.23581e-023	-6.12323e-017	-1.00000
		outer loop
			vertex	0.928880	1.24084	-7.59795e-017
			vertex	0.837993	1.30394	-7.98435e-017
			vertex	5.00000	5.50000	-3.36778e-016
		endloop
	endfacet
	facet normal	-8.35592e-024	-6.12323e-017	-1.00000
		outer loop
			vertex	0.742836	1.36040	-8.33006e-017
			vertex	5.00000	5.50000	-3.36778e-016
			vertex	0.837993	1.30394	-7.98435e-017
		endloop
	endfacet
	facet normal	1.98041e-024	-6.12323e-017	-1.00000
		outer loop
			vertex	5.00000	5.50000	-3.36778e-016
			vertex	0.742836	1.36040	-8.33006e-017
			vertex	0.643893	1.40993	-8.63333e-017
		endloop
	endfacet
	facet normal	3.21451e-023	-6.12324e-017	-1.00000
		outer loop
			vertex	0.643893	1.40993	-8.63333e-017
			vertex	0.541669	1.45227	-8.89260e-017
			vertex	5.00000	5.50000	-3.36778e-016
		endloop
	endfacet
	facet normal	-2.69046e-023	-6.12323e-017	-1.00000
		outer loop
			vertex	0.436685	1.48721	-9.10656e-017
			vertex	5.00000	5.50000	-3.36778e-016
			vertex	0.541669	1.45227	-8.89260e-017
		endloop
	endfacet
	facet normal	-1.17522e-023	-6.12323e-017	-1.00000
		outer loop
			vertex	5.00000	5.50000	-3.36778e-016
			vertex	0.436685	1.48721	-9.10656e-017
			vertex	0.329476	1.51458	-9.27411e-017
		endloop
	endfacet
	facet normal	-3.95220e-024	-6.12323e-017	-1.00000
		outer loop
			vertex	0.220588	1.53422	-9.39441e-017
			vertex	0.110576	1.54605	-9.46683e-017
			vertex	5.00000	5.50000	-3.36778e-016
		endloop
	endfacet
	facet normal	-1.88309e-023	-6.12323e-017	-1.00000
		outer loop
			vertex	0.000000	1.55000	-9.49101e-017
			vertex	5.00000	5.50000	-3.36778e-016
			vertex	0.110576	1.54605	-9.46683e-017
		endloop
	endfacet
	facet normal	-0.000000	-6.12323e-017	-1.00000
		outer loop
			vertex	5.00000	5.50000	-3.36778e-016
			vertex	0.000000	1.55000	-9.49101e-017
			vertex	-5.00000	5.50000	-3.36778e-016
		endloop
	endfacet
	facet normal	3.49305e-024	-6.12323e-017	-1.00000
		outer loop
			vertex	-1.53422	-0.220588	1.35071e-017
			vertex	-1.51458	-0.329476	2.01746e-017
			vertex	-5.00000	-5.50000	3.36778e-016
		endloop
	endfacet
	facet normal	-3.21451e-023	-6.12324e-017	-1.00000
		outer loop
			vertex	0.541669	-1.45227	8.89260e-017
			vertex	0.643893	-1.40993	8.63333e-017
			vertex	5.00000	-5.50000	3.36778e-016
		endloop
	endfacet
	facet normal	1.88309e-023	-6.12323e-017	-1.00000
		outer loop
			vertex	0.000000	1.55000	-9.49101e-017
			vertex	-0.110576	1.54605	-9.46683e-017
			vertex	-5.00000	5.50000	-3.36778e-016
		endloop
	endfacet
	facet normal	3.95220e-024	-6.12323e-017	-1.00000
		outer loop
			vertex	-0.220588	1.53422	-9.39441e-017
			vertex	-5.00000	5.50000	-3.36778e-016
			vertex	-0.110576	1.54605	-9.46683e-017
		endloop
	endfacet
	facet normal	-2.78560e-023	-6.12324e-017	-1.00000
		outer loop
			vertex	-5.00000	5.50000	-3.36778e-016
			vertex	-0.220588	1.53422	-9.39441e-017
			vertex	-0.329476	1.51458	-9.27411e-017
		endloop
	endfacet
	facet normal	-1.98041e-024	-6.12323e-017	-1.00000
		outer loop
			vertex	-0.643893	1.40993	-8.63333e-017
			vertex	-0.742836	1.36040	-8.33006e-017
			vertex	-5.00000	5.50000	-3.36778e-016
		endloop
	endfacet
	facet normal	8.35592e-024	-6.12323e-017	-1.00000
		outer loop
			vertex	-0.837993	1.30394	-7.98435e-017
			vertex	-5.00000	5.50000	-3.36778e-016
			vertex	-0.742836	1.36040	-8.33006e-017
		endloop
	endfacet
	facet normal	3.23581e-023	-6.12323e-017	-1.00000
		outer loop
			vertex	-0.837993	1.30394	-7.98435e-017
			vertex	-0.928880	1.24084	-7.59795e-017
			vertex	-5.00000	5.50000	-3.36778e-016
		endloop
	endfacet
	facet normal	-1.84863e-023	-6.12324e-017	-1.00000
		outer loop
			vertex	-1.01503	1.17141	-7.17283e-017
			vertex	-5.00000	5.50000	-3.36778e-016
			vertex	-0.928880	1.24084	-7.59795e-017
		endloop
	endfacet
	facet normal	-3.57915e-023	-6.12324e-017	-1.00000
		outer loop
			vertex	-5.00000	5.50000	-3.36778e-016
			vertex	-1.01503	1.17141	-7.17283e-017
			vertex	-1.09602	1.09602	-6.71116e-017
		endloop
	endfacet
	facet normal	-4.12672e-024	-6.12323e-017	-1.00000
		outer loop
			vertex	-1.51458	-0.329476	2.01746e-017
			vertex	-1.48721	-0.436685	2.67393e-017
			vertex	-5.00000	-5.50000	3.36778e-016
		endloop
	endfacet
	facet normal	-3.11743e-024	-6.12323e-017	-1.00000
		outer loop
			vertex	-1.45227	-0.541669	3.31677e-017
			vertex	-5.00000	-5.50000	3.36778e-016
			vertex	-1.48721	-0.436685	2.67393e-017
		endloop
	endfacet
	facet normal	7.89767e-024	-6.12323e-017	-1.00000
		outer loop
			vertex	-5.00000	-5.50000	3.36778e-016
			vertex	-1.45227	-0.541669	3.31677e-017
			vertex	-1.40993	-0.643893	3.94271e-017
		endloop
	endfacet
	facet normal	3.95220e-024	-6.12323e-017	-1.00000
		outer loop
			vertex	5.00000	-5.50000	3.36778e-016
			vertex	0.110576	-1.54605	9.46683e-017
			vertex	0.220588	-1.53422	9.39441e-017
		endloop
	endfacet
	facet normal	1.17522e-023	-6.12323e-017	-1.00000
		outer loop
			vertex	-0.329476	1.51458	-9.27411e-017
			vertex	-0.436685	1.48721	-9.10656e-017
			vertex	-5.00000	5.50000	-3.36778e-016
		endloop
	endfacet
	facet normal	2.69046e-023	-6.12323e-017	-1.00000
		outer loop
			vertex	-0.541669	1.45227	-8.89260e-017
			vertex	-5.00000	5.50000	-3.36778e-016
			vertex	-0.436685	1.48721	-9.10656e-017
		endloop
	endfacet
	facet normal	-3.21451e-023	-6.12324e-017	-1.00000
		outer loop
			vertex	-5.00000	5.50000	-3.36778e-016
			vertex	-0.541669	1.45227	-8.89260e-017
			vertex	-0.643893	1.40993	-8.63333e-017
		endloop
	endfacet
	facet normal	3.38629e-023	-6.12323e-017	-1.00000
		outer loop
			vertex	-1.09602	1.09602	-6.71116e-017
			vertex	-1.17141	1.01503	-6.21529e-017
			vertex	-5.00000	5.50000	-3.36778e-016
		endloop
	endfacet
	facet normal	1.95978e-023	-6.12323e-017	-1.00000
		outer loop
			vertex	-1.24084	0.928880	-5.68775e-017
			vertex	-5.00000	5.50000	-3.36778e-016
			vertex	-1.17141	1.01503	-6.21529e-017
		endloop
	endfacet
	facet normal	-3.07276e-023	-6.12324e-017	-1.00000
		outer loop
			vertex	-5.00000	5.50000	-3.36778e-016
			vertex	-1.24084	0.928880	-5.68775e-017
			vertex	-1.30394	0.837993	-5.13123e-017
		endloop
	endfacet
	facet normal	3.11743e-024	-6.12323e-017	-1.00000
		outer loop
			vertex	-1.45227	0.541669	-3.31677e-017
			vertex	-1.48721	0.436685	-2.67393e-017
			vertex	-5.00000	5.50000	-3.36778e-016
		endloop
	endfacet
	facet normal	4.12672e-024	-6.12323e-017	-1.00000
		outer loop
			vertex	-1.51458	0.329476	-2.01746e-017
			vertex	-5.00000	5.50000	-3.36778e-016
			vertex	-1.48721	0.436685	-2.67393e-017
		endloop
	endfacet
	facet normal	-3.49305e-024	-6.12323e-017	-1.00000
		outer loop
			vertex	-5.00000	5.50000	-3.36778e-016
			vertex	-1.51458	0.329476	-2.01746e-017
			vertex	-1.53422	0.220588	-1.35071e-017
		endloop
	endfacet
	facet normal	-2.86169e-024	-6.12323e-017	-1.00000
		outer loop
			vertex	-1.40993	-0.643893	3.94271e-017
			vertex	-1.36040	-0.742836	4.54856e-017
			vertex	-5.00000	-5.50000	3.36778e-016
		endloop
	endfacet
	facet normal	-1.92245e-023	-6.12323e-017	-1.00000
		outer loop
			vertex	-1.30394	-0.837993	5.13123e-017
			vertex	-5.00000	-5.50000	3.36778e-016
			vertex	-1.36040	-0.742836	4.54856e-017
		endloop
	endfacet
	facet normal	3.07276e-023	-6.12324e-017	-1.00000
		outer loop
			vertex	-5.00000	-5.50000	3.36778e-016
			vertex	-1.30394	-0.837993	5.13123e-017
			vertex	-1.24084	-0.928880	5.68775e-017
		endloop
	endfacet
	facet normal	1.84863e-023	-6.12324e-017	-1.00000
		outer loop
			vertex	-5.00000	-5.50000	3.36778e-016
			vertex	-1.01503	-1.17141	7.17283e-017
			vertex	-0.928880	-1.24084	7.59795e-017
		endloop
	endfacet
	facet normal	3.21451e-023	-6.12324e-017	-1.00000
		outer loop
			vertex	-0.643893	-1.40993	8.63333e-017
			vertex	-0.541669	-1.45227	8.89260e-017
			vertex	-5.00000	-5.50000	3.36778e-016
		endloop
	endfacet
	facet normal	-2.69046e-023	-6.12323e-017	-1.00000
		outer loop
			vertex	-0.436685	-1.48721	9.10656e-017
			vertex	-5.00000	-5.50000	3.36778e-016
			vertex	-0.541669	-1.45227	8.89260e-017
		endloop
	endfacet
	facet normal	1.88309e-023	-6.12323e-017	-1.00000
		outer loop
			vertex	0.110576	-1.54605	9.46683e-017
			vertex	5.00000	-5.50000	3.36778e-016
			vertex	-8.67362e-016	-1.55000	9.49101e-017
		endloop
	endfacet
	facet normal	-0.000000	-6.12323e-017	-1.00000
		outer loop
			vertex	-5.00000	-5.50000	3.36778e-016
			vertex	-8.67362e-016	-1.55000	9.49101e-017
			vertex	5.00000	-5.50000	3.36778e-016
		endloop
	endfacet
	facet normal	-1.88309e-023	-6.12323e-017	-1.00000
		outer loop
			vertex	-8.67362e-016	-1.55000	9.49101e-017
			vertex	-5.00000	-5.50000	3.36778e-016
			vertex	-0.110576	-1.54605	9.46683e-017
		endloop
	endfacet
	facet normal	-2.78560e-023	-6.12324e-017	-1.00000
		outer loop
			vertex	0.220588	-1.53422	9.39441e-017
			vertex	0.329476	-1.51458	9.27411e-017
			vertex	5.00000	-5.50000	3.36778e-016
		endloop
	endfacet
	facet normal	1.17522e-023	-6.12323e-017	-1.00000
		outer loop
			vertex	0.436685	-1.48721	9.10656e-017
			vertex	5.00000	-5.50000	3.36778e-016
			vertex	0.329476	-1.51458	9.27411e-017
		endloop
	endfacet
	facet normal	2.69046e-023	-6.12323e-017	-1.00000
		outer loop
			vertex	5.00000	-5.50000	3.36778e-016
			vertex	0.436685	-1.48721	9.10656e-017
			vertex	0.541669	-1.45227	8.89260e-017
		endloop
	endfacet
	facet normal	-1.92245e-023	-6.12323e-017	-1.00000
		outer loop
			vertex	1.36040	0.742836	-4.54856e-017
			vertex	1.30394	0.837993	-5.13123e-017
			vertex	5.00000	5.50000	-3.36778e-016
		endloop
	endfacet
	facet normal	3.07276e-023	-6.12324e-017	-1.00000
		outer loop
			vertex	1.24084	0.928880	-5.68775e-017
			vertex	5.00000	5.50000	-3.36778e-016
			vertex	1.30394	0.837993	-5.13123e-017
		endloop
	endfacet
	facet normal	-1.95978e-023	-6.12323e-017	-1.00000
		outer loop
			vertex	5.00000	5.50000	-3.36778e-016
			vertex	1.24084	0.928880	-5.68775e-017
			vertex	1.17141	1.01503	-6.21529e-017
		endloop
	endfacet
	facet normal	1.92245e-023	-6.12323e-017	-1.00000
		outer loop
			vertex	-1.30394	0.837993	-5.13123e-017
			vertex	-1.36040	0.742836	-4.54856e-017
			vertex	-5.00000	5.50000	-3.36778e-016
		endloop
	endfacet
	facet normal	2.86169e-024	-6.12323e-017	-1.00000
		outer loop
			vertex	-1.40993	0.643893	-3.94271e-017
			vertex	-5.00000	5.50000	-3.36778e-016
			vertex	-1.36040	0.742836	-4.54856e-017
		endloop
	endfacet
	facet normal	-7.89767e-024	-6.12323e-017	-1.00000
		outer loop
			vertex	-5.00000	5.50000	-3.36778e-016
			vertex	-1.40993	0.643893	-3.94271e-017
			vertex	-1.45227	0.541669	-3.31677e-017
		endloop
	endfacet
	facet normal	-1.95978e-023	-6.12323e-017	-1.00000
		outer loop
			vertex	-1.24084	-0.928880	5.68775e-017
			vertex	-1.17141	-1.01503	6.21529e-017
			vertex	-5.00000	-5.50000	3.36778e-016
		endloop
	endfacet
	facet normal	-3.38629e-023	-6.12323e-017	-1.00000
		outer loop
			vertex	-1.09602	-1.09602	6.71116e-017
			vertex	-5.00000	-5.50000	3.36778e-016
			vertex	-1.17141	-1.01503	6.21529e-017
		endloop
	endfacet
	facet normal	3.57915e-023	-6.12324e-017	-1.00000
		outer loop
			vertex	-5.00000	-5.50000	3.36778e-016
			vertex	-1.09602	-1.09602	6.71116e-017
			vertex	-1.01503	-1.17141	7.17283e-017
		endloop
	endfacet
	facet normal	-3.23581e-023	-6.12323e-017	-1.00000
		outer loop
			vertex	-0.928880	-1.24084	7.59795e-017
			vertex	-0.837993	-1.30394	7.98435e-017
			vertex	-5.00000	-5.50000	3.36778e-016
		endloop
	endfacet
	facet normal	-8.35592e-024	-6.12323e-017	-1.00000
		outer loop
			vertex	-0.742836	-1.36040	8.33006e-017
			vertex	-5.00000	-5.50000	3.36778e-016
			vertex	-0.837993	-1.30394	7.98435e-017
		endloop
	endfacet
	facet normal	1.98041e-024	-6.12323e-017	-1.00000
		outer loop
			vertex	-5.00000	-5.50000	3.36778e-016
			vertex	-0.742836	-1.36040	8.33006e-017
			vertex	-0.643893	-1.40993	8.63333e-017
		endloop
	endfacet
	facet normal	-1.17522e-023	-6.12323e-017	-1.00000
		outer loop
			vertex	-0.436685	-1.48721	9.10656e-017
			vertex	-0.329476	-1.51458	9.27411e-017
			vertex	-5.00000	-5.50000	3.36778e-016
		endloop
	endfacet
	facet normal	2.78560e-023	-6.12324e-017	-1.00000
		outer loop
			vertex	-0.220588	-1.53422	9.39441e-017
			vertex	-5.00000	-5.50000	3.36778e-016
			vertex	-0.329476	-1.51458	9.27411e-017
		endloop
	endfacet
	facet normal	-3.95220e-024	-6.12323e-017	-1.00000
		outer loop
			vertex	-5.00000	-5.50000	3.36778e-016
			vertex	-0.220588	-1.53422	9.39441e-017
			vertex	-0.110576	-1.54605	9.46683e-017
		endloop
	endfacet
	facet normal	-1.98041e-024	-6.12323e-017	-1.00000
		outer loop
			vertex	0.643893	-1.40993	8.63333e-017
			vertex	0.742836	-1.36040	8.33006e-017
			vertex	5.00000	-5.50000	3.36778e-016
		endloop
	endfacet
	facet normal	8.35592e-024	-6.12323e-017	-1.00000
		outer loop
			vertex	0.837993	-1.30394	7.98435e-017
			vertex	5.00000	-5.50000	3.36778e-016
			vertex	0.742836	-1.36040	8.33006e-017
		endloop
	endfacet
	facet normal	3.23581e-023	-6.12323e-017	-1.00000
		outer loop
			vertex	5.00000	-5.50000	3.36778e-016
			vertex	0.837993	-1.30394	7.98435e-017
			vertex	0.928880	-1.24084	7.59795e-017
		endloop
	endfacet
	facet normal	3.49305e-024	-6.12323e-017	-1.00000
		outer loop
			vertex	1.53422	0.220588	-1.35071e-017
			vertex	1.51458	0.329476	-2.01746e-017
			vertex	5.00000	5.50000	-3.36778e-016
		endloop
	endfacet
	facet normal	-4.12672e-024	-6.12323e-017	-1.00000
		outer loop
			vertex	1.48721	0.436685	-2.67393e-017
			vertex	5.00000	5.50000	-3.36778e-016
			vertex	1.51458	0.329476	-2.01746e-017
		endloop
	endfacet
	facet normal	-3.11743e-024	-6.12323e-017	-1.00000
		outer loop
			vertex	1.48721	0.436685	-2.67393e-017
			vertex	1.45227	0.541669	-3.31677e-017
			vertex	5.00000	5.50000	-3.36778e-016
		endloop
	endfacet
	facet normal	7.89767e-024	-6.12323e-017	-1.00000
		outer loop
			vertex	1.40993	0.643893	-3.94271e-017
			vertex	5.00000	5.50000	-3.36778e-016
			vertex	1.45227	0.541669	-3.31677e-017
		endloop
	endfacet
	facet normal	-2.86169e-024	-6.12323e-017	-1.00000
		outer loop
			vertex	5.00000	5.50000	-3.36778e-016
			vertex	1.40993	0.643893	-3.94271e-017
			vertex	1.36040	0.742836	-4.54856e-017
		endloop
	endfacet
	facet normal	-1.84863e-023	-6.12324e-017	-1.00000
		outer loop
			vertex	0.928880	-1.24084	7.59795e-017
			vertex	1.01503	-1.17141	7.17283e-017
			vertex	5.00000	-5.50000	3.36778e-016
		endloop
	endfacet
	facet normal	-3.57915e-023	-6.12324e-017	-1.00000
		outer loop
			vertex	1.09602	-1.09602	6.71116e-017
			vertex	5.00000	-5.50000	3.36778e-016
			vertex	1.01503	-1.17141	7.17283e-017
		endloop
	endfacet
	facet normal	3.38629e-023	-6.12323e-017	-1.00000
		outer loop
			vertex	5.00000	-5.50000	3.36778e-016
			vertex	1.09602	-1.09602	6.71116e-017
			vertex	1.17141	-1.01503	6.21529e-017
		endloop
	endfacet
	facet normal	3.08113e-024	-6.12323e-017	-1.00000
		outer loop
			vertex	-1.53422	0.220588	-1.35071e-017
			vertex	-1.54605	0.110576	-6.77081e-018
			vertex	-5.00000	5.50000	-3.36778e-016
		endloop
	endfacet
	facet normal	5.11079e-025	-6.12323e-017	-1.00000
		outer loop
			vertex	-1.55000	0.000000	-4.81482e-032
			vertex	-5.00000	5.50000	-3.36778e-016
			vertex	-1.54605	0.110576	-6.77081e-018
		endloop
	endfacet
	facet normal	0.000000	-6.12323e-017	-1.00000
		outer loop
			vertex	-5.00000	5.50000	-3.36778e-016
			vertex	-1.55000	0.000000	-4.81482e-032
			vertex	-5.00000	-5.50000	3.36778e-016
		endloop
	endfacet
	facet normal	-5.11078e-025	-6.12323e-017	-1.00000
		outer loop
			vertex	-1.54605	-0.110576	6.77081e-018
			vertex	-5.00000	-5.50000	3.36778e-016
			vertex	-1.55000	0.000000	-4.81482e-032
		endloop
	endfacet
	facet normal	-3.08113e-024	-6.12323e-017	-1.00000
		outer loop
			vertex	-5.00000	-5.50000	3.36778e-016
			vertex	-1.54605	-0.110576	6.77081e-018
			vertex	-1.53422	-0.220588	1.35071e-017
		endloop
	endfacet
	facet normal	1.95978e-023	-6.12323e-017	-1.00000
		outer loop
			vertex	1.17141	-1.01503	6.21529e-017
			vertex	1.24084	-0.928880	5.68775e-017
			vertex	5.00000	-5.50000	3.36778e-016
		endloop
	endfacet
	facet normal	-3.07276e-023	-6.12324e-017	-1.00000
		outer loop
			vertex	1.30394	-0.837993	5.13123e-017
			vertex	5.00000	-5.50000	3.36778e-016
			vertex	1.24084	-0.928880	5.68775e-017
		endloop
	endfacet
	facet normal	1.92245e-023	-6.12323e-017	-1.00000
		outer loop
			vertex	5.00000	-5.50000	3.36778e-016
			vertex	1.30394	-0.837993	5.13123e-017
			vertex	1.36040	-0.742836	4.54856e-017
		endloop
	endfacet
	facet normal	-3.49305e-024	-6.12323e-017	-1.00000
		outer loop
			vertex	1.53422	-0.220588	1.35071e-017
			vertex	5.00000	-5.50000	3.36778e-016
			vertex	1.51458	-0.329476	2.01746e-017
		endloop
	endfacet
	facet normal	4.12672e-024	-6.12323e-017	-1.00000
		outer loop
			vertex	1.48721	-0.436685	2.67393e-017
			vertex	1.51458	-0.329476	2.01746e-017
			vertex	5.00000	-5.50000	3.36778e-016
		endloop
	endfacet
	facet normal	2.86169e-024	-6.12323e-017	-1.00000
		outer loop
			vertex	1.36040	-0.742836	4.54856e-017
			vertex	1.40993	-0.643893	3.94271e-017
			vertex	5.00000	-5.50000	3.36778e-016
		endloop
	endfacet
	facet normal	-7.89767e-024	-6.12323e-017	-1.00000
		outer loop
			vertex	1.45227	-0.541669	3.31677e-017
			vertex	5.00000	-5.50000	3.36778e-016
			vertex	1.40993	-0.643893	3.94271e-017
		endloop
	endfacet
	facet normal	3.11743e-024	-6.12323e-017	-1.00000
		outer loop
			vertex	5.00000	-5.50000	3.36778e-016
			vertex	1.45227	-0.541669	3.31677e-017
			vertex	1.48721	-0.436685	2.67393e-017
		endloop
	endfacet
	facet normal	3.08113e-024	-6.12323e-017	-1.00000
		outer loop
			vertex	1.53422	-0.220588	1.35071e-017
			vertex	1.54605	-0.110576	6.77081e-018
			vertex	5.00000	-5.50000	3.36778e-016
		endloop
	endfacet
	facet normal	5.11078e-025	-6.12323e-017	-1.00000
		outer loop
			vertex	1.55000	0.000000	-4.81482e-032
			vertex	5.00000	-5.50000	3.36778e-016
			vertex	1.54605	-0.110576	6.77081e-018
		endloop
	endfacet
	facet normal	2.07868e-032	-6.12323e-017	-1.00000
		outer loop
			vertex	5.00000	-5.50000	3.36778e-016
			vertex	1.55000	0.000000	-4.81482e-032
			vertex	5.00000	5.50000	-3.36778e-016
		endloop
	endfacet
	facet normal	-5.11079e-025	-6.12323e-017	-1.00000
		outer loop
			vertex	1.54605	0.110576	-6.77081e-018
			vertex	5.00000	5.50000	-3.36778e-016
			vertex	1.55000	0.000000	-4.81482e-032
		endloop
	endfacet
	facet normal	-3.08113e-024	-6.12323e-017	-1.00000
		outer loop
			vertex	5.00000	5.50000	-3.36778e-016
			vertex	1.54605	0.110576	-6.77081e-018
			vertex	1.53422	0.220588	-1.35071e-017
		endloop
	endfacet
	facet normal	-0.000000	0.000000	1.00000
		outer loop
			vertex	-5.00000	5.50000	1.50000
			vertex	-5.00000	3.50000	1.50000
			vertex	5.00000	5.50000	1.50000
		endloop
	endfacet
	facet normal	-0.000000	-0.000000	1.00000
		outer loop
			vertex	-4.35000	3.50000	1.50000
			vertex	5.00000	5.50000	1.50000
			vertex	-5.00000	3.50000	1.50000
		endloop
	endfacet
	facet normal	0.000000	0.000000	1.00000
		outer loop
			vertex	0.350000	3.50000	1.50000
			vertex	1.65000	3.50000	1.50000
			vertex	5.00000	5.50000	1.50000
		endloop
	endfacet
	facet normal	-0.000000	0.000000	1.00000
		outer loop
			vertex	-5.00000	-3.50000	1.50000
			vertex	-5.00000	-5.50000	1.50000
			vertex	-4.35000	-3.50000	1.50000
		endloop
	endfacet
	facet normal	-0.000000	-0.000000	1.00000
		outer loop
			vertex	5.00000	-5.50000	1.50000
			vertex	-4.35000	-3.50000	1.50000
			vertex	-5.00000	-5.50000	1.50000
		endloop
	endfacet
	facet normal	0.000000	0.000000	1.00000
		outer loop
			vertex	4.35000	3.50000	1.50000
			vertex	5.00000	3.50000	1.50000
			vertex	5.00000	5.50000	1.50000
		endloop
	endfacet
	facet normal	0.000000	-0.000000	1.00000
		outer loop
			vertex	-2.35000	3.50000	1.50000
			vertex	5.00000	5.50000	1.50000
			vertex	-3.65000	3.50000	1.50000
		endloop
	endfacet
	facet normal	-0.000000	-0.000000	1.00000
		outer loop
			vertex	-4.35000	3.50000	1.50000
			vertex	-3.65000	3.50000	1.50000
			vertex	5.00000	5.50000	1.50000
		endloop
	endfacet
	facet normal	0.000000	0.000000	1.00000
		outer loop
			vertex	-3.65000	3.50000	1.50000
			vertex	-4.35000	3.50000	1.50000
			vertex	-3.65000	-3.50000	1.50000
		endloop
	endfacet
	facet normal	0.000000	0.000000	1.00000
		outer loop
			vertex	5.00000	-5.50000	1.50000
			vertex	-0.350000	-3.50000	1.50000
			vertex	-1.65000	-3.50000	1.50000
		endloop
	endfacet
	facet normal	0.000000	-0.000000	1.00000
		outer loop
			vertex	5.00000	-5.50000	1.50000
			vertex	5.00000	-3.50000	1.50000
			vertex	4.35000	-3.50000	1.50000
		endloop
	endfacet
	facet normal	0.000000	0.000000	1.00000
		outer loop
			vertex	-0.110576	-1.54605	1.50000
			vertex	-0.220588	-1.53422	1.50000
			vertex	-0.350000	-3.50000	1.50000
		endloop
	endfacet
	facet normal	0.000000	-0.000000	1.00000
		outer loop
			vertex	-0.329476	-1.51458	1.50000
			vertex	-0.350000	-3.50000	1.50000
			vertex	-0.220588	-1.53422	1.50000
		endloop
	endfacet
	facet normal	0.000000	0.000000	1.00000
		outer loop
			vertex	-0.350000	-3.50000	1.50000
			vertex	-0.329476	-1.51458	1.50000
			vertex	-0.350000	-1.50997	1.50000
		endloop
	endfacet
	facet normal	-0.000000	0.000000	1.00000
		outer loop
			vertex	2.35000	-3.50000	1.50000
			vertex	5.00000	-5.50000	1.50000
			vertex	3.65000	-3.50000	1.50000
		endloop
	endfacet
	facet normal	-0.000000	-0.000000	1.00000
		outer loop
			vertex	4.35000	-3.50000	1.50000
			vertex	3.65000	-3.50000	1.50000
			vertex	5.00000	-5.50000	1.50000
		endloop
	endfacet
	facet normal	0.000000	0.000000	1.00000
		outer loop
			vertex	3.65000	-3.50000	1.50000
			vertex	4.35000	-3.50000	1.50000
			vertex	3.65000	3.50000	1.50000
		endloop
	endfacet
	facet normal	0.000000	0.000000	1.00000
		outer loop
			vertex	0.350000	-3.50000	1.50000
			vertex	0.110576	-1.54605	1.50000
			vertex	0.000000	-1.55000	1.50000
		endloop
	endfacet
	facet normal	0.000000	0.000000	1.00000
		outer loop
			vertex	0.350000	-1.50997	1.50000
			vertex	0.329476	-1.51458	1.50000
			vertex	0.350000	-3.50000	1.50000
		endloop
	endfacet
	facet normal	-0.000000	0.000000	1.00000
		outer loop
			vertex	0.220588	-1.53422	1.50000
			vertex	0.350000	-3.50000	1.50000
			vertex	0.329476	-1.51458	1.50000
		endloop
	endfacet
	facet normal	0.000000	0.000000	1.00000
		outer loop
			vertex	0.350000	-3.50000	1.50000
			vertex	0.220588	-1.53422	1.50000
			vertex	0.110576	-1.54605	1.50000
		endloop
	endfacet
	facet normal	-0.000000	0.000000	1.00000
		outer loop
			vertex	0.329476	1.51458	1.50000
			vertex	0.350000	1.50997	1.50000
			vertex	0.350000	3.50000	1.50000
		endloop
	endfacet
	facet normal	0.000000	-0.000000	1.00000
		outer loop
			vertex	4.35000	-3.50000	1.50000
			vertex	4.35000	3.50000	1.50000
			vertex	3.65000	3.50000	1.50000
		endloop
	endfacet
	facet normal	-0.000000	-0.000000	1.00000
		outer loop
			vertex	5.00000	5.50000	1.50000
			vertex	3.65000	3.50000	1.50000
			vertex	4.35000	3.50000	1.50000
		endloop
	endfacet
	facet normal	0.000000	-0.000000	1.00000
		outer loop
			vertex	3.65000	3.50000	1.50000
			vertex	5.00000	5.50000	1.50000
			vertex	2.35000	3.50000	1.50000
		endloop
	endfacet
	facet normal	-0.000000	-0.000000	1.00000
		outer loop
			vertex	1.65000	3.50000	1.50000
			vertex	2.35000	3.50000	1.50000
			vertex	5.00000	5.50000	1.50000
		endloop
	endfacet
	facet normal	0.000000	0.000000	1.00000
		outer loop
			vertex	2.35000	3.50000	1.50000
			vertex	1.65000	3.50000	1.50000
			vertex	2.35000	-3.50000	1.50000
		endloop
	endfacet
	facet normal	-0.000000	-0.000000	1.00000
		outer loop
			vertex	1.65000	-3.50000	1.50000
			vertex	2.35000	-3.50000	1.50000
			vertex	1.65000	3.50000	1.50000
		endloop
	endfacet
	facet normal	0.000000	0.000000	1.00000
		outer loop
			vertex	2.35000	-3.50000	1.50000
			vertex	1.65000	-3.50000	1.50000
			vertex	5.00000	-5.50000	1.50000
		endloop
	endfacet
	facet normal	0.000000	0.000000	1.00000
		outer loop
			vertex	0.350000	-3.50000	1.50000
			vertex	5.00000	-5.50000	1.50000
			vertex	1.65000	-3.50000	1.50000
		endloop
	endfacet
	facet normal	0.000000	0.000000	1.00000
		outer loop
			vertex	5.00000	-5.50000	1.50000
			vertex	0.350000	-3.50000	1.50000
			vertex	-0.350000	-3.50000	1.50000
		endloop
	endfacet
	facet normal	-0.000000	-0.000000	1.00000
		outer loop
			vertex	0.000000	-1.55000	1.50000
			vertex	-0.350000	-3.50000	1.50000
			vertex	0.350000	-3.50000	1.50000
		endloop
	endfacet
	facet normal	0.000000	0.000000	1.00000
		outer loop
			vertex	-0.350000	-3.50000	1.50000
			vertex	0.000000	-1.55000	1.50000
			vertex	-0.110576	-1.54605	1.50000
		endloop
	endfacet
	facet normal	0.000000	0.000000	1.00000
		outer loop
			vertex	-0.350000	1.50997	1.50000
			vertex	-0.329476	1.51458	1.50000
			vertex	-0.350000	3.50000	1.50000
		endloop
	endfacet
	facet normal	-0.000000	-0.000000	1.00000
		outer loop
			vertex	-0.220588	1.53422	1.50000
			vertex	-0.350000	3.50000	1.50000
			vertex	-0.329476	1.51458	1.50000
		endloop
	endfacet
	facet normal	0.000000	0.000000	1.00000
		outer loop
			vertex	-0.350000	3.50000	1.50000
			vertex	-0.220588	1.53422	1.50000
			vertex	-0.110576	1.54605	1.50000
		endloop
	endfacet
	facet normal	-0.000000	0.000000	1.00000
		outer loop
			vertex	0.000000	1.55000	1.50000
			vertex	0.110576	1.54605	1.50000
			vertex	0.350000	3.50000	1.50000
		endloop
	endfacet
	facet normal	-0.000000	-0.000000	1.00000
		outer loop
			vertex	0.220588	1.53422	1.50000
			vertex	0.350000	3.50000	1.50000
			vertex	0.110576	1.54605	1.50000
		endloop
	endfacet
	facet normal	0.000000	0.000000	1.00000
		outer loop
			vertex	0.350000	3.50000	1.50000
			vertex	0.220588	1.53422	1.50000
			vertex	0.329476	1.51458	1.50000
		endloop
	endfacet
	facet normal	0.000000	0.000000	1.00000
		outer loop
			vertex	-4.35000	3.50000	1.50000
			vertex	-4.35000	-3.50000	1.50000
			vertex	-3.65000	-3.50000	1.50000
		endloop
	endfacet
	facet normal	-0.000000	-0.000000	1.00000
		outer loop
			vertex	5.00000	-5.50000	1.50000
			vertex	-3.65000	-3.50000	1.50000
			vertex	-4.35000	-3.50000	1.50000
		endloop
	endfacet
	facet normal	-0.000000	0.000000	1.00000
		outer loop
			vertex	-3.65000	-3.50000	1.50000
			vertex	5.00000	-5.50000	1.50000
			vertex	-2.35000	-3.50000	1.50000
		endloop
	endfacet
	facet normal	-0.000000	-0.000000	1.00000
		outer loop
			vertex	-1.65000	-3.50000	1.50000
			vertex	-2.35000	-3.50000	1.50000
			vertex	5.00000	-5.50000	1.50000
		endloop
	endfacet
	facet normal	0.000000	0.000000	1.00000
		outer loop
			vertex	-2.35000	-3.50000	1.50000
			vertex	-1.65000	-3.50000	1.50000
			vertex	-2.35000	3.50000	1.50000
		endloop
	endfacet
	facet normal	-0.000000	-0.000000	1.00000
		outer loop
			vertex	-1.65000	3.50000	1.50000
			vertex	-2.35000	3.50000	1.50000
			vertex	-1.65000	-3.50000	1.50000
		endloop
	endfacet
	facet normal	0.000000	0.000000	1.00000
		outer loop
			vertex	-2.35000	3.50000	1.50000
			vertex	-1.65000	3.50000	1.50000
			vertex	5.00000	5.50000	1.50000
		endloop
	endfacet
	facet normal	-0.000000	-0.000000	1.00000
		outer loop
			vertex	-0.350000	3.50000	1.50000
			vertex	5.00000	5.50000	1.50000
			vertex	-1.65000	3.50000	1.50000
		endloop
	endfacet
	facet normal	0.000000	0.000000	1.00000
		outer loop
			vertex	5.00000	5.50000	1.50000
			vertex	-0.350000	3.50000	1.50000
			vertex	0.350000	3.50000	1.50000
		endloop
	endfacet
	facet normal	-0.000000	-0.000000	1.00000
		outer loop
			vertex	-0.110576	1.54605	1.50000
			vertex	0.350000	3.50000	1.50000
			vertex	-0.350000	3.50000	1.50000
		endloop
	endfacet
	facet normal	0.000000	0.000000	1.00000
		outer loop
			vertex	0.350000	3.50000	1.50000
			vertex	-0.110576	1.54605	1.50000
			vertex	0.000000	1.55000	1.50000
		endloop
	endfacet
endsolid Extrude24-Extrude26
