solid OpenSCAD_Model
  facet normal -1 -0 -0
    outer loop
      vertex 0 6 0
      vertex 0 6 14
      vertex 0 10 0
    endloop
  endfacet
  facet normal -1 0 0
    outer loop
      vertex 0 10 0
      vertex 0 6 14
      vertex 0 10 14
    endloop
  endfacet
  facet normal -0.994522 -0.104528 -0
    outer loop
      vertex 0 6 0
      vertex 0.131114 4.75253 0
      vertex 0 6 14
    endloop
  endfacet
  facet normal -0.994522 -0.104528 0
    outer loop
      vertex 0 6 14
      vertex 0.131114 4.75253 0
      vertex 0.131114 4.75253 14
    endloop
  endfacet
  facet normal -0 -0 -1
    outer loop
      vertex 0 6 0
      vertex 0 10 0
      vertex 0.131114 4.75253 0
    endloop
  endfacet
  facet normal 0 0 -1
    outer loop
      vertex 0.131114 4.75253 0
      vertex 0 10 0
      vertex 0.032869 10 0
    endloop
  endfacet
  facet normal 0 0 -1
    outer loop
      vertex 0.131114 4.75253 0
      vertex 0.032869 10 0
      vertex 0.032869 10.6272 0
    endloop
  endfacet
  facet normal 0 -0 -1
    outer loop
      vertex 0.131114 4.75253 0
      vertex 0.032869 10.6272 0
      vertex 0.293661 11.8541 0
    endloop
  endfacet
  facet normal 0 0 -1
    outer loop
      vertex 0.131114 4.75253 0
      vertex 0.293661 11.8541 0
      vertex 0.803848 13 0
    endloop
  endfacet
  facet normal 0 0 -1
    outer loop
      vertex 0.131114 4.75253 0
      vertex 0.803848 13 0
      vertex 1.54113 14.0148 0
    endloop
  endfacet
  facet normal 0 0 -1
    outer loop
      vertex 0.131114 4.75253 0
      vertex 1.54113 14.0148 0
      vertex 2.47329 14.8541 0
    endloop
  endfacet
  facet normal 0 0 -1
    outer loop
      vertex 0.131114 4.75253 0
      vertex 2.47329 14.8541 0
      vertex 3.55958 15.4813 0
    endloop
  endfacet
  facet normal 0 0 -1
    outer loop
      vertex 0.131114 4.75253 0
      vertex 3.55958 15.4813 0
      vertex 4.75253 15.8689 0
    endloop
  endfacet
  facet normal 0 0 -1
    outer loop
      vertex 0.131114 4.75253 0
      vertex 4.75253 15.8689 0
      vertex 6 16 0
    endloop
  endfacet
  facet normal 0 -0 -1
    outer loop
      vertex 8.14389 9.55763 0
      vertex 6 16 0
      vertex 28 16 0
    endloop
  endfacet
  facet normal -0 0 -1
    outer loop
      vertex 8.5203 7.1811 0
      vertex 33.4813 12.4404 0
      vertex 8.14389 6.44237 0
    endloop
  endfacet
  facet normal 0 0 -1
    outer loop
      vertex 8.65 8 0
      vertex 28.6272 15.9671 0
      vertex 29.8541 15.7063 0
    endloop
  endfacet
  facet normal 0 0 -1
    outer loop
      vertex 8.5203 7.1811 0
      vertex 32.0148 14.4589 0
      vertex 32.8541 13.5267 0
    endloop
  endfacet
  facet normal -0 0 -1
    outer loop
      vertex 8.65 8 0
      vertex 32.0148 14.4589 0
      vertex 8.5203 7.1811 0
    endloop
  endfacet
  facet normal 0 0 -1
    outer loop
      vertex 28.8189 10.5203 0
      vertex 33.4813 12.4404 0
      vertex 33.8689 11.2475 0
    endloop
  endfacet
  facet normal 0 0 -1
    outer loop
      vertex 30.1439 9.55763 0
      vertex 33.8689 11.2475 0
      vertex 34 10 0
    endloop
  endfacet
  facet normal -0 0 -1
    outer loop
      vertex 33.9671 6 0
      vertex 34 10 0
      vertex 34 6 0
    endloop
  endfacet
  facet normal -0 0 -1
    outer loop
      vertex 30.5203 7.1811 0
      vertex 34 10 0
      vertex 33.9671 6 0
    endloop
  endfacet
  facet normal -0 -0 -1
    outer loop
      vertex 5.37283 0.032869 0
      vertex 0.131114 4.75253 0
      vertex 6 0.032869 0
    endloop
  endfacet
  facet normal -0 0 -1
    outer loop
      vertex 0.131114 4.75253 0
      vertex 33.9671 5.37283 0
      vertex 33.7063 4.1459 0
    endloop
  endfacet
  facet normal 0 0 -1
    outer loop
      vertex 0.131114 4.75253 0
      vertex 33.7063 4.1459 0
      vertex 33.1962 3 0
    endloop
  endfacet
  facet normal 0 0 -1
    outer loop
      vertex 0.131114 4.75253 0
      vertex 33.1962 3 0
      vertex 32.4589 1.98522 0
    endloop
  endfacet
  facet normal 0 0 -1
    outer loop
      vertex 0.131114 4.75253 0
      vertex 32.4589 1.98522 0
      vertex 31.5267 1.1459 0
    endloop
  endfacet
  facet normal 0 0 -1
    outer loop
      vertex 0.131114 4.75253 0
      vertex 31.5267 1.1459 0
      vertex 30.4404 0.518727 0
    endloop
  endfacet
  facet normal 0 0 -1
    outer loop
      vertex 0.131114 4.75253 0
      vertex 30.4404 0.518727 0
      vertex 29.2475 0.131114 0
    endloop
  endfacet
  facet normal 0 0 -1
    outer loop
      vertex 0.131114 4.75253 0
      vertex 29.2475 0.131114 0
      vertex 28 0 0
    endloop
  endfacet
  facet normal 0 0 -1
    outer loop
      vertex 6 0.032869 0
      vertex 28 0 0
      vertex 6 0 0
    endloop
  endfacet
  facet normal 0 0 -1
    outer loop
      vertex 0.131114 4.75253 0
      vertex 28 0 0
      vertex 6 0.032869 0
    endloop
  endfacet
  facet normal 0 0 -1
    outer loop
      vertex 4.44237 5.8561 0
      vertex 0.131114 4.75253 0
      vertex 3.8561 6.44237 0
    endloop
  endfacet
  facet normal 0 0 -1
    outer loop
      vertex 0.131114 4.75253 0
      vertex 5.37283 0.032869 0
      vertex 4.1459 0.293661 0
    endloop
  endfacet
  facet normal 0 0 -1
    outer loop
      vertex 0.131114 4.75253 0
      vertex 4.1459 0.293661 0
      vertex 3 0.803848 0
    endloop
  endfacet
  facet normal 0 0 -1
    outer loop
      vertex 0.131114 4.75253 0
      vertex 3 0.803848 0
      vertex 1.98522 1.54113 0
    endloop
  endfacet
  facet normal 0 0 -1
    outer loop
      vertex 0.131114 4.75253 0
      vertex 1.98522 1.54113 0
      vertex 1.1459 2.47329 0
    endloop
  endfacet
  facet normal 0 0 -1
    outer loop
      vertex 0.131114 4.75253 0
      vertex 1.1459 2.47329 0
      vertex 0.518727 3.55958 0
    endloop
  endfacet
  facet normal 0 -0 -1
    outer loop
      vertex 25.35 8 0
      vertex 7.55763 5.8561 0
      vertex 25.4797 8.81889 0
    endloop
  endfacet
  facet normal 0 0 -1
    outer loop
      vertex 0.131114 4.75253 0
      vertex 3.35 8 0
      vertex 3.4797 7.1811 0
    endloop
  endfacet
  facet normal 0 0 -1
    outer loop
      vertex 27.1811 5.4797 0
      vertex 6.81889 5.4797 0
      vertex 26.4424 5.8561 0
    endloop
  endfacet
  facet normal 0 0 -1
    outer loop
      vertex 0.131114 4.75253 0
      vertex 3.4797 7.1811 0
      vertex 3.8561 6.44237 0
    endloop
  endfacet
  facet normal 0 0 -1
    outer loop
      vertex 5.1811 5.4797 0
      vertex 0.131114 4.75253 0
      vertex 4.44237 5.8561 0
    endloop
  endfacet
  facet normal 0 0 -1
    outer loop
      vertex 0.131114 4.75253 0
      vertex 5.1811 5.4797 0
      vertex 6 5.35 0
    endloop
  endfacet
  facet normal 0 0 -1
    outer loop
      vertex 7.55763 5.8561 0
      vertex 25.35 8 0
      vertex 25.4797 7.1811 0
    endloop
  endfacet
  facet normal 0 0 -1
    outer loop
      vertex 26.4424 5.8561 0
      vertex 7.55763 5.8561 0
      vertex 25.8561 6.44237 0
    endloop
  endfacet
  facet normal -0 0 -1
    outer loop
      vertex 28.8189 10.5203 0
      vertex 33.8689 11.2475 0
      vertex 29.5576 10.1439 0
    endloop
  endfacet
  facet normal 0 0 -1
    outer loop
      vertex 8.5203 7.1811 0
      vertex 32.8541 13.5267 0
      vertex 33.4813 12.4404 0
    endloop
  endfacet
  facet normal -0 0 -1
    outer loop
      vertex 8.14389 9.55763 0
      vertex 28 16 0
      vertex 8.5203 8.81889 0
    endloop
  endfacet
  facet normal -0 -0 -1
    outer loop
      vertex 7.55763 10.1439 0
      vertex 6 16 0
      vertex 8.14389 9.55763 0
    endloop
  endfacet
  facet normal 0 0 -1
    outer loop
      vertex 3.8561 9.55763 0
      vertex 6 16 0
      vertex 4.44237 10.1439 0
    endloop
  endfacet
  facet normal -0 -0 -1
    outer loop
      vertex 6.81889 10.5203 0
      vertex 6 16 0
      vertex 7.55763 10.1439 0
    endloop
  endfacet
  facet normal -0 -0 -1
    outer loop
      vertex 6 10.65 0
      vertex 6 16 0
      vertex 6.81889 10.5203 0
    endloop
  endfacet
  facet normal 0 0 -1
    outer loop
      vertex 5.1811 10.5203 0
      vertex 6 16 0
      vertex 6 10.65 0
    endloop
  endfacet
  facet normal 0 0 -1
    outer loop
      vertex 4.44237 10.1439 0
      vertex 6 16 0
      vertex 5.1811 10.5203 0
    endloop
  endfacet
  facet normal 0 -0 -1
    outer loop
      vertex 25.4797 8.81889 0
      vertex 8.14389 6.44237 0
      vertex 25.8561 9.55763 0
    endloop
  endfacet
  facet normal 0 0 -1
    outer loop
      vertex 0.131114 4.75253 0
      vertex 6 16 0
      vertex 3.8561 9.55763 0
    endloop
  endfacet
  facet normal 0 0 -1
    outer loop
      vertex 0.131114 4.75253 0
      vertex 3.8561 9.55763 0
      vertex 3.4797 8.81889 0
    endloop
  endfacet
  facet normal 0 0 -1
    outer loop
      vertex 0.131114 4.75253 0
      vertex 3.4797 8.81889 0
      vertex 3.35 8 0
    endloop
  endfacet
  facet normal -0 0 -1
    outer loop
      vertex 8.14389 6.44237 0
      vertex 25.4797 8.81889 0
      vertex 7.55763 5.8561 0
    endloop
  endfacet
  facet normal 0 0 -1
    outer loop
      vertex 30.1439 6.44237 0
      vertex 33.9671 6 0
      vertex 29.5576 5.8561 0
    endloop
  endfacet
  facet normal 0 0 -1
    outer loop
      vertex 0.131114 4.75253 0
      vertex 27.1811 5.4797 0
      vertex 28 5.35 0
    endloop
  endfacet
  facet normal 0 0 -1
    outer loop
      vertex 0.131114 4.75253 0
      vertex 28 5.35 0
      vertex 33.9671 5.37283 0
    endloop
  endfacet
  facet normal -0 0 -1
    outer loop
      vertex 29.5576 5.8561 0
      vertex 33.9671 6 0
      vertex 28.8189 5.4797 0
    endloop
  endfacet
  facet normal 0 0 -1
    outer loop
      vertex 30.5203 7.1811 0
      vertex 33.9671 6 0
      vertex 30.1439 6.44237 0
    endloop
  endfacet
  facet normal -0 0 -1
    outer loop
      vertex 30.65 8 0
      vertex 34 10 0
      vertex 30.5203 7.1811 0
    endloop
  endfacet
  facet normal -0 0 -1
    outer loop
      vertex 30.1439 9.55763 0
      vertex 34 10 0
      vertex 30.5203 8.81889 0
    endloop
  endfacet
  facet normal -0 0 -1
    outer loop
      vertex 30.5203 8.81889 0
      vertex 34 10 0
      vertex 30.65 8 0
    endloop
  endfacet
  facet normal -0 0 -1
    outer loop
      vertex 29.5576 10.1439 0
      vertex 33.8689 11.2475 0
      vertex 30.1439 9.55763 0
    endloop
  endfacet
  facet normal 0 0 -1
    outer loop
      vertex 7.55763 5.8561 0
      vertex 25.4797 7.1811 0
      vertex 25.8561 6.44237 0
    endloop
  endfacet
  facet normal -0 0 -1
    outer loop
      vertex 28 10.65 0
      vertex 33.4813 12.4404 0
      vertex 28.8189 10.5203 0
    endloop
  endfacet
  facet normal 0 -0 -1
    outer loop
      vertex 26.4424 10.1439 0
      vertex 8.14389 6.44237 0
      vertex 27.1811 10.5203 0
    endloop
  endfacet
  facet normal 0 0 -1
    outer loop
      vertex 27.1811 10.5203 0
      vertex 33.4813 12.4404 0
      vertex 28 10.65 0
    endloop
  endfacet
  facet normal 0 0 -1
    outer loop
      vertex 8.14389 6.44237 0
      vertex 33.4813 12.4404 0
      vertex 27.1811 10.5203 0
    endloop
  endfacet
  facet normal 0 -0 -1
    outer loop
      vertex 25.8561 9.55763 0
      vertex 8.14389 6.44237 0
      vertex 26.4424 10.1439 0
    endloop
  endfacet
  facet normal 0 0 -1
    outer loop
      vertex 7.55763 5.8561 0
      vertex 26.4424 5.8561 0
      vertex 6.81889 5.4797 0
    endloop
  endfacet
  facet normal 0 0 -1
    outer loop
      vertex 27.1811 5.4797 0
      vertex 0.131114 4.75253 0
      vertex 6 5.35 0
    endloop
  endfacet
  facet normal 0 0 -1
    outer loop
      vertex 27.1811 5.4797 0
      vertex 6 5.35 0
      vertex 6.81889 5.4797 0
    endloop
  endfacet
  facet normal 0 0 -1
    outer loop
      vertex 28.8189 5.4797 0
      vertex 33.9671 5.37283 0
      vertex 28 5.35 0
    endloop
  endfacet
  facet normal 0 0 -1
    outer loop
      vertex 33.9671 5.37283 0
      vertex 28.8189 5.4797 0
      vertex 33.9671 6 0
    endloop
  endfacet
  facet normal 0 0 -1
    outer loop
      vertex 8.65 8 0
      vertex 29.8541 15.7063 0
      vertex 31 15.1962 0
    endloop
  endfacet
  facet normal 0 0 -1
    outer loop
      vertex 8.5203 8.81889 0
      vertex 28 16 0
      vertex 28 15.9671 0
    endloop
  endfacet
  facet normal 0 0 -1
    outer loop
      vertex 8.5203 8.81889 0
      vertex 28 15.9671 0
      vertex 28.6272 15.9671 0
    endloop
  endfacet
  facet normal -0 0 -1
    outer loop
      vertex 8.5203 8.81889 0
      vertex 28.6272 15.9671 0
      vertex 8.65 8 0
    endloop
  endfacet
  facet normal 0 0 -1
    outer loop
      vertex 8.65 8 0
      vertex 31 15.1962 0
      vertex 32.0148 14.4589 0
    endloop
  endfacet
  facet normal 0 1 0
    outer loop
      vertex 0.032869 10 14
      vertex 0.032869 10 0
      vertex 0 10 14
    endloop
  endfacet
  facet normal 0 1 -0
    outer loop
      vertex 0 10 14
      vertex 0.032869 10 0
      vertex 0 10 0
    endloop
  endfacet
  facet normal 0 -0 1
    outer loop
      vertex 0 10 14
      vertex 0 6 14
      vertex 0.131114 4.75253 14
    endloop
  endfacet
  facet normal 0 0 1
    outer loop
      vertex 1.1459 2.47329 14
      vertex 0 10 14
      vertex 0.518727 3.55958 14
    endloop
  endfacet
  facet normal 0 0 1
    outer loop
      vertex 0.518727 3.55958 14
      vertex 0 10 14
      vertex 0.131114 4.75253 14
    endloop
  endfacet
  facet normal 0 0 1
    outer loop
      vertex 1.98522 1.54113 14
      vertex 0 10 14
      vertex 1.1459 2.47329 14
    endloop
  endfacet
  facet normal 0 0 1
    outer loop
      vertex 3 0.803848 14
      vertex 0 10 14
      vertex 1.98522 1.54113 14
    endloop
  endfacet
  facet normal 0 0 1
    outer loop
      vertex 4.1459 0.293661 14
      vertex 0 10 14
      vertex 3 0.803848 14
    endloop
  endfacet
  facet normal 0 0 1
    outer loop
      vertex 5.37283 0.032869 14
      vertex 0 10 14
      vertex 4.1459 0.293661 14
    endloop
  endfacet
  facet normal 0 0 1
    outer loop
      vertex 6 0.032869 14
      vertex 0 10 14
      vertex 5.37283 0.032869 14
    endloop
  endfacet
  facet normal -0 -0 1
    outer loop
      vertex 3.4797 7.1811 14
      vertex 0 10 14
      vertex 6 0.032869 14
    endloop
  endfacet
  facet normal -0 0 1
    outer loop
      vertex 13.4286 0 14
      vertex 6 0.032869 14
      vertex 6 0 14
    endloop
  endfacet
  facet normal 0 0 1
    outer loop
      vertex 5.1811 10.5203 14
      vertex 6 10.65 14
      vertex 13.4286 16 14
    endloop
  endfacet
  facet normal 0 0 1
    outer loop
      vertex 3.4797 7.1811 14
      vertex 0.032869 10 14
      vertex 0 10 14
    endloop
  endfacet
  facet normal 0 0 1
    outer loop
      vertex 3.4797 7.1811 14
      vertex 3.35 8 14
      vertex 0.032869 10 14
    endloop
  endfacet
  facet normal -0 -0 1
    outer loop
      vertex 3.8561 6.44237 14
      vertex 3.4797 7.1811 14
      vertex 6 0.032869 14
    endloop
  endfacet
  facet normal 0 0 1
    outer loop
      vertex 6 10.65 14
      vertex 6.81889 10.5203 14
      vertex 13.4286 16 14
    endloop
  endfacet
  facet normal -0 0 1
    outer loop
      vertex 3.4797 8.81889 14
      vertex 0.032869 10 14
      vertex 3.35 8 14
    endloop
  endfacet
  facet normal 0 0 1
    outer loop
      vertex 8.5203 8.81889 14
      vertex 8.65 8 14
      vertex 13.4286 0 14
    endloop
  endfacet
  facet normal -0 0 1
    outer loop
      vertex 3.8561 9.55763 14
      vertex 0.032869 10 14
      vertex 3.4797 8.81889 14
    endloop
  endfacet
  facet normal 0 0 1
    outer loop
      vertex 4.44237 10.1439 14
      vertex 0.032869 10 14
      vertex 3.8561 9.55763 14
    endloop
  endfacet
  facet normal 0 0 1
    outer loop
      vertex 13.4286 16 14
      vertex 0.032869 10 14
      vertex 4.44237 10.1439 14
    endloop
  endfacet
  facet normal 0 0 1
    outer loop
      vertex 13.4286 16 14
      vertex 4.44237 10.1439 14
      vertex 5.1811 10.5203 14
    endloop
  endfacet
  facet normal 0 -0 1
    outer loop
      vertex 6.81889 5.4797 14
      vertex 6 5.35 14
      vertex 13.4286 0 14
    endloop
  endfacet
  facet normal 0 -0 1
    outer loop
      vertex 8.65 8 14
      vertex 8.5203 7.1811 14
      vertex 13.4286 0 14
    endloop
  endfacet
  facet normal 0 0 1
    outer loop
      vertex 13.4286 16 14
      vertex 6.81889 10.5203 14
      vertex 7.55763 10.1439 14
    endloop
  endfacet
  facet normal 0 0 1
    outer loop
      vertex 13.4286 16 14
      vertex 8.14389 9.55763 14
      vertex 13.4286 0 14
    endloop
  endfacet
  facet normal 0 0 1
    outer loop
      vertex 13.4286 16 14
      vertex 7.55763 10.1439 14
      vertex 8.14389 9.55763 14
    endloop
  endfacet
  facet normal 0 0 1
    outer loop
      vertex 8.14389 9.55763 14
      vertex 8.5203 8.81889 14
      vertex 13.4286 0 14
    endloop
  endfacet
  facet normal 0 -0 1
    outer loop
      vertex 8.5203 7.1811 14
      vertex 8.14389 6.44237 14
      vertex 13.4286 0 14
    endloop
  endfacet
  facet normal 0 -0 1
    outer loop
      vertex 8.14389 6.44237 14
      vertex 7.55763 5.8561 14
      vertex 13.4286 0 14
    endloop
  endfacet
  facet normal 0 -0 1
    outer loop
      vertex 7.55763 5.8561 14
      vertex 6.81889 5.4797 14
      vertex 13.4286 0 14
    endloop
  endfacet
  facet normal 0 0 1
    outer loop
      vertex 13.4286 0 14
      vertex 6 5.35 14
      vertex 6 0.032869 14
    endloop
  endfacet
  facet normal -0 0 1
    outer loop
      vertex 6 5.35 14
      vertex 5.1811 5.4797 14
      vertex 6 0.032869 14
    endloop
  endfacet
  facet normal -0 -0 1
    outer loop
      vertex 5.1811 5.4797 14
      vertex 4.44237 5.8561 14
      vertex 6 0.032869 14
    endloop
  endfacet
  facet normal -0 -0 1
    outer loop
      vertex 4.44237 5.8561 14
      vertex 3.8561 6.44237 14
      vertex 6 0.032869 14
    endloop
  endfacet
  facet normal 0 0 1
    outer loop
      vertex 0.032869 10.6272 14
      vertex 0.803848 13 14
      vertex 0.293661 11.8541 14
    endloop
  endfacet
  facet normal 0 0 1
    outer loop
      vertex 0.032869 10.6272 14
      vertex 1.54113 14.0148 14
      vertex 0.803848 13 14
    endloop
  endfacet
  facet normal 0 0 1
    outer loop
      vertex 0.032869 10.6272 14
      vertex 2.47329 14.8541 14
      vertex 1.54113 14.0148 14
    endloop
  endfacet
  facet normal 0 0 1
    outer loop
      vertex 0.032869 10.6272 14
      vertex 3.55958 15.4813 14
      vertex 2.47329 14.8541 14
    endloop
  endfacet
  facet normal 0 0 1
    outer loop
      vertex 0.032869 10.6272 14
      vertex 4.75253 15.8689 14
      vertex 3.55958 15.4813 14
    endloop
  endfacet
  facet normal 0 0 1
    outer loop
      vertex 0.032869 10.6272 14
      vertex 6 16 14
      vertex 4.75253 15.8689 14
    endloop
  endfacet
  facet normal 0 0 1
    outer loop
      vertex 0.032869 10.6272 14
      vertex 13.4286 16 14
      vertex 6 16 14
    endloop
  endfacet
  facet normal 0 -0 1
    outer loop
      vertex 0.032869 10.6272 14
      vertex 0.032869 10 14
      vertex 13.4286 16 14
    endloop
  endfacet
  facet normal -0.951057 -0.309017 -0
    outer loop
      vertex 0.131114 4.75253 0
      vertex 0.518727 3.55958 0
      vertex 0.131114 4.75253 14
    endloop
  endfacet
  facet normal -0.951057 -0.309017 0
    outer loop
      vertex 0.131114 4.75253 14
      vertex 0.518727 3.55958 0
      vertex 0.518727 3.55958 14
    endloop
  endfacet
  facet normal -0.866025 -0.5 -0
    outer loop
      vertex 0.518727 3.55958 0
      vertex 1.1459 2.47329 0
      vertex 0.518727 3.55958 14
    endloop
  endfacet
  facet normal -0.866025 -0.5 0
    outer loop
      vertex 0.518727 3.55958 14
      vertex 1.1459 2.47329 0
      vertex 1.1459 2.47329 14
    endloop
  endfacet
  facet normal -0.743145 -0.669131 -0
    outer loop
      vertex 1.1459 2.47329 0
      vertex 1.98522 1.54113 0
      vertex 1.1459 2.47329 14
    endloop
  endfacet
  facet normal -0.743145 -0.669131 0
    outer loop
      vertex 1.1459 2.47329 14
      vertex 1.98522 1.54113 0
      vertex 1.98522 1.54113 14
    endloop
  endfacet
  facet normal -0.587785 -0.809017 0
    outer loop
      vertex 1.98522 1.54113 14
      vertex 1.98522 1.54113 0
      vertex 3 0.803848 0
    endloop
  endfacet
  facet normal -0.587785 -0.809017 0
    outer loop
      vertex 3 0.803848 14
      vertex 1.98522 1.54113 14
      vertex 3 0.803848 0
    endloop
  endfacet
  facet normal -0.406737 -0.913545 0
    outer loop
      vertex 3 0.803848 14
      vertex 3 0.803848 0
      vertex 4.1459 0.293661 0
    endloop
  endfacet
  facet normal -0.406737 -0.913545 0
    outer loop
      vertex 4.1459 0.293661 14
      vertex 3 0.803848 14
      vertex 4.1459 0.293661 0
    endloop
  endfacet
  facet normal -0.207912 -0.978148 0
    outer loop
      vertex 4.1459 0.293661 14
      vertex 4.1459 0.293661 0
      vertex 5.37283 0.032869 0
    endloop
  endfacet
  facet normal -0.207912 -0.978148 0
    outer loop
      vertex 5.37283 0.032869 14
      vertex 4.1459 0.293661 14
      vertex 5.37283 0.032869 0
    endloop
  endfacet
  facet normal -1.21702e-16 -1 0
    outer loop
      vertex 5.37283 0.032869 14
      vertex 5.37283 0.032869 0
      vertex 6 0.032869 0
    endloop
  endfacet
  facet normal -1.21702e-16 -1 0
    outer loop
      vertex 6 0.032869 14
      vertex 5.37283 0.032869 14
      vertex 6 0.032869 0
    endloop
  endfacet
  facet normal -1 0 0
    outer loop
      vertex 6 0.032869 14
      vertex 6 0.032869 0
      vertex 6 0 14
    endloop
  endfacet
  facet normal -1 0 0
    outer loop
      vertex 6 0 14
      vertex 6 0.032869 0
      vertex 6 0 0
    endloop
  endfacet
  facet normal 0 -1 0
    outer loop
      vertex 18.5914 0 4.20206
      vertex 6 0 0
      vertex 28 0 0
    endloop
  endfacet
  facet normal 0 -1 0
    outer loop
      vertex 12.2952 0 7.00531
      vertex 11.9625 0 8.02925
      vertex 6 0 14
    endloop
  endfacet
  facet normal 0 -1 0
    outer loop
      vertex 28 0 14
      vertex 20.5714 0 14
      vertex 28 0 0
    endloop
  endfacet
  facet normal 0 -1 0
    outer loop
      vertex 20.446 0 5.2728
      vertex 19.575 0 4.63997
      vertex 28 0 0
    endloop
  endfacet
  facet normal 0 -1 0
    outer loop
      vertex 20.5714 0 14
      vertex 20.5714 0 12.7879
      vertex 21.1664 0 12.1271
    endloop
  endfacet
  facet normal 0 -1 0
    outer loop
      vertex 20.5714 0 14
      vertex 21.7048 0 11.1947
      vertex 28 0 0
    endloop
  endfacet
  facet normal 0 -1 0
    outer loop
      vertex 20.5714 0 14
      vertex 21.1664 0 12.1271
      vertex 21.7048 0 11.1947
    endloop
  endfacet
  facet normal 0 -1 0
    outer loop
      vertex 22.0375 0 10.1707
      vertex 22.15 0 9.1
      vertex 28 0 0
    endloop
  endfacet
  facet normal 0 -1 0
    outer loop
      vertex 22.15 0 9.1
      vertex 22.0375 0 8.02925
      vertex 28 0 0
    endloop
  endfacet
  facet normal 0 -1 -0
    outer loop
      vertex 12.8336 0 12.1271
      vertex 13.4286 0 12.7879
      vertex 6 0 14
    endloop
  endfacet
  facet normal 0 -1 0
    outer loop
      vertex 22.0375 0 8.02925
      vertex 21.7048 0 7.00531
      vertex 28 0 0
    endloop
  endfacet
  facet normal 0 -1 0
    outer loop
      vertex 21.7048 0 7.00531
      vertex 21.1664 0 6.07291
      vertex 28 0 0
    endloop
  endfacet
  facet normal 0 -1 0
    outer loop
      vertex 21.1664 0 6.07291
      vertex 20.446 0 5.2728
      vertex 28 0 0
    endloop
  endfacet
  facet normal 0 -1 0
    outer loop
      vertex 19.575 0 4.63997
      vertex 18.5914 0 4.20206
      vertex 28 0 0
    endloop
  endfacet
  facet normal 0 -1 0
    outer loop
      vertex 12.8336 0 6.07291
      vertex 12.2952 0 7.00531
      vertex 6 0 14
    endloop
  endfacet
  facet normal 0 -1 0
    outer loop
      vertex 16.4617 0 3.97821
      vertex 6 0 0
      vertex 17.5383 0 3.97821
    endloop
  endfacet
  facet normal 0 -1 -0
    outer loop
      vertex 11.85 0 9.1
      vertex 11.9625 0 10.1707
      vertex 6 0 14
    endloop
  endfacet
  facet normal 0 -1 0
    outer loop
      vertex 15.4086 0 4.20206
      vertex 6 0 0
      vertex 16.4617 0 3.97821
    endloop
  endfacet
  facet normal 0 -1 0
    outer loop
      vertex 14.425 0 4.63997
      vertex 6 0 0
      vertex 15.4086 0 4.20206
    endloop
  endfacet
  facet normal 0 -1 0
    outer loop
      vertex 13.554 0 5.2728
      vertex 6 0 0
      vertex 14.425 0 4.63997
    endloop
  endfacet
  facet normal 0 -1 0
    outer loop
      vertex 12.8336 0 6.07291
      vertex 6 0 0
      vertex 13.554 0 5.2728
    endloop
  endfacet
  facet normal 0 -1 0
    outer loop
      vertex 6 0 14
      vertex 6 0 0
      vertex 12.8336 0 6.07291
    endloop
  endfacet
  facet normal 0 -1 0
    outer loop
      vertex 11.9625 0 8.02925
      vertex 11.85 0 9.1
      vertex 6 0 14
    endloop
  endfacet
  facet normal 0 -1 -0
    outer loop
      vertex 11.9625 0 10.1707
      vertex 12.2952 0 11.1947
      vertex 6 0 14
    endloop
  endfacet
  facet normal 0 -1 0
    outer loop
      vertex 18.5914 0 4.20206
      vertex 17.5383 0 3.97821
      vertex 6 0 0
    endloop
  endfacet
  facet normal 0 -1 0
    outer loop
      vertex 13.4286 0 12.7879
      vertex 13.4286 0 14
      vertex 6 0 14
    endloop
  endfacet
  facet normal 0 -1 0
    outer loop
      vertex 21.7048 0 11.1947
      vertex 22.0375 0 10.1707
      vertex 28 0 0
    endloop
  endfacet
  facet normal 0 -1 -0
    outer loop
      vertex 12.2952 0 11.1947
      vertex 12.8336 0 12.1271
      vertex 6 0 14
    endloop
  endfacet
  facet normal 0.104528 -0.994522 0
    outer loop
      vertex 28 0 14
      vertex 28 0 0
      vertex 29.2475 0.131114 0
    endloop
  endfacet
  facet normal 0.104528 -0.994522 0
    outer loop
      vertex 29.2475 0.131114 14
      vertex 28 0 14
      vertex 29.2475 0.131114 0
    endloop
  endfacet
  facet normal 0.309017 -0.951057 0
    outer loop
      vertex 29.2475 0.131114 14
      vertex 29.2475 0.131114 0
      vertex 30.4404 0.518727 0
    endloop
  endfacet
  facet normal 0.309017 -0.951057 0
    outer loop
      vertex 30.4404 0.518727 14
      vertex 29.2475 0.131114 14
      vertex 30.4404 0.518727 0
    endloop
  endfacet
  facet normal 0.5 -0.866025 0
    outer loop
      vertex 30.4404 0.518727 14
      vertex 30.4404 0.518727 0
      vertex 31.5267 1.1459 0
    endloop
  endfacet
  facet normal 0.5 -0.866025 0
    outer loop
      vertex 31.5267 1.1459 14
      vertex 30.4404 0.518727 14
      vertex 31.5267 1.1459 0
    endloop
  endfacet
  facet normal 0.669131 -0.743145 0
    outer loop
      vertex 31.5267 1.1459 14
      vertex 31.5267 1.1459 0
      vertex 32.4589 1.98522 0
    endloop
  endfacet
  facet normal 0.669131 -0.743145 0
    outer loop
      vertex 32.4589 1.98522 14
      vertex 31.5267 1.1459 14
      vertex 32.4589 1.98522 0
    endloop
  endfacet
  facet normal 0.809017 -0.587785 0
    outer loop
      vertex 32.4589 1.98522 14
      vertex 32.4589 1.98522 0
      vertex 33.1962 3 0
    endloop
  endfacet
  facet normal 0.809017 -0.587785 0
    outer loop
      vertex 33.1962 3 14
      vertex 32.4589 1.98522 14
      vertex 33.1962 3 0
    endloop
  endfacet
  facet normal 0.913545 -0.406737 0
    outer loop
      vertex 33.1962 3 14
      vertex 33.1962 3 0
      vertex 33.7063 4.1459 0
    endloop
  endfacet
  facet normal 0.913545 -0.406737 0
    outer loop
      vertex 33.7063 4.1459 14
      vertex 33.1962 3 14
      vertex 33.7063 4.1459 0
    endloop
  endfacet
  facet normal 0.978148 -0.207912 0
    outer loop
      vertex 33.7063 4.1459 14
      vertex 33.7063 4.1459 0
      vertex 33.9671 5.37283 0
    endloop
  endfacet
  facet normal 0.978148 -0.207912 0
    outer loop
      vertex 33.9671 5.37283 14
      vertex 33.7063 4.1459 14
      vertex 33.9671 5.37283 0
    endloop
  endfacet
  facet normal 1 0 -0
    outer loop
      vertex 33.9671 5.37283 14
      vertex 33.9671 5.37283 0
      vertex 33.9671 6 0
    endloop
  endfacet
  facet normal 1 0 0
    outer loop
      vertex 33.9671 6 14
      vertex 33.9671 5.37283 14
      vertex 33.9671 6 0
    endloop
  endfacet
  facet normal 0 -1 0
    outer loop
      vertex 34 6 0
      vertex 34 6 14
      vertex 33.9671 6 14
    endloop
  endfacet
  facet normal -0 -1 -0
    outer loop
      vertex 33.9671 6 0
      vertex 34 6 0
      vertex 33.9671 6 14
    endloop
  endfacet
  facet normal 1 0 -0
    outer loop
      vertex 34 6 14
      vertex 34 6 0
      vertex 34 10 0
    endloop
  endfacet
  facet normal 1 0 0
    outer loop
      vertex 34 10 14
      vertex 34 6 14
      vertex 34 10 0
    endloop
  endfacet
  facet normal 0.994522 0.104528 0
    outer loop
      vertex 34 10 0
      vertex 33.8689 11.2475 0
      vertex 33.8689 11.2475 14
    endloop
  endfacet
  facet normal 0.994522 0.104528 -0
    outer loop
      vertex 34 10 14
      vertex 34 10 0
      vertex 33.8689 11.2475 14
    endloop
  endfacet
  facet normal 0.951057 0.309017 0
    outer loop
      vertex 33.8689 11.2475 0
      vertex 33.4813 12.4404 0
      vertex 33.4813 12.4404 14
    endloop
  endfacet
  facet normal 0.951057 0.309017 -0
    outer loop
      vertex 33.8689 11.2475 14
      vertex 33.8689 11.2475 0
      vertex 33.4813 12.4404 14
    endloop
  endfacet
  facet normal 0.866025 0.5 0
    outer loop
      vertex 33.4813 12.4404 0
      vertex 32.8541 13.5267 0
      vertex 32.8541 13.5267 14
    endloop
  endfacet
  facet normal 0.866025 0.5 -0
    outer loop
      vertex 33.4813 12.4404 14
      vertex 33.4813 12.4404 0
      vertex 32.8541 13.5267 14
    endloop
  endfacet
  facet normal 0.743145 0.669131 0
    outer loop
      vertex 32.8541 13.5267 0
      vertex 32.0148 14.4589 0
      vertex 32.0148 14.4589 14
    endloop
  endfacet
  facet normal 0.743145 0.669131 -0
    outer loop
      vertex 32.8541 13.5267 14
      vertex 32.8541 13.5267 0
      vertex 32.0148 14.4589 14
    endloop
  endfacet
  facet normal 0.587785 0.809017 0
    outer loop
      vertex 31 15.1962 0
      vertex 31 15.1962 14
      vertex 32.0148 14.4589 0
    endloop
  endfacet
  facet normal 0.587785 0.809017 0
    outer loop
      vertex 32.0148 14.4589 0
      vertex 31 15.1962 14
      vertex 32.0148 14.4589 14
    endloop
  endfacet
  facet normal 0.406737 0.913545 0
    outer loop
      vertex 29.8541 15.7063 0
      vertex 29.8541 15.7063 14
      vertex 31 15.1962 0
    endloop
  endfacet
  facet normal 0.406737 0.913545 0
    outer loop
      vertex 31 15.1962 0
      vertex 29.8541 15.7063 14
      vertex 31 15.1962 14
    endloop
  endfacet
  facet normal 0.207912 0.978148 0
    outer loop
      vertex 28.6272 15.9671 0
      vertex 28.6272 15.9671 14
      vertex 29.8541 15.7063 0
    endloop
  endfacet
  facet normal 0.207912 0.978148 0
    outer loop
      vertex 29.8541 15.7063 0
      vertex 28.6272 15.9671 14
      vertex 29.8541 15.7063 14
    endloop
  endfacet
  facet normal 0 1 0
    outer loop
      vertex 28 15.9671 0
      vertex 28 15.9671 14
      vertex 28.6272 15.9671 0
    endloop
  endfacet
  facet normal 0 1 0
    outer loop
      vertex 28.6272 15.9671 0
      vertex 28 15.9671 14
      vertex 28.6272 15.9671 14
    endloop
  endfacet
  facet normal 1 0 0
    outer loop
      vertex 28 16 0
      vertex 28 16 14
      vertex 28 15.9671 14
    endloop
  endfacet
  facet normal 1 0 0
    outer loop
      vertex 28 15.9671 0
      vertex 28 16 0
      vertex 28 15.9671 14
    endloop
  endfacet
  facet normal -0 1 -0
    outer loop
      vertex 16.4617 16 3.97821
      vertex 28 16 0
      vertex 15.4086 16 4.20206
    endloop
  endfacet
  facet normal 0 1 0
    outer loop
      vertex 13.4286 16 12.7879
      vertex 6 16 14
      vertex 13.4286 16 14
    endloop
  endfacet
  facet normal 0 1 0
    outer loop
      vertex 12.8336 16 12.1271
      vertex 6 16 14
      vertex 13.4286 16 12.7879
    endloop
  endfacet
  facet normal 0 1 0
    outer loop
      vertex 12.2952 16 11.1947
      vertex 6 16 14
      vertex 12.8336 16 12.1271
    endloop
  endfacet
  facet normal 0 1 0
    outer loop
      vertex 6 16 0
      vertex 6 16 14
      vertex 11.9625 16 10.1707
    endloop
  endfacet
  facet normal 0 1 0
    outer loop
      vertex 6 16 0
      vertex 11.9625 16 10.1707
      vertex 11.85 16 9.1
    endloop
  endfacet
  facet normal 0 1 0
    outer loop
      vertex 6 16 0
      vertex 11.85 16 9.1
      vertex 11.9625 16 8.02926
    endloop
  endfacet
  facet normal 0 1 0
    outer loop
      vertex 6 16 0
      vertex 11.9625 16 8.02926
      vertex 12.2952 16 7.00531
    endloop
  endfacet
  facet normal 0 1 0
    outer loop
      vertex 6 16 0
      vertex 12.2952 16 7.00531
      vertex 12.8336 16 6.07291
    endloop
  endfacet
  facet normal 0 1 0
    outer loop
      vertex 6 16 0
      vertex 12.8336 16 6.07291
      vertex 13.554 16 5.2728
    endloop
  endfacet
  facet normal 0 1 0
    outer loop
      vertex 6 16 0
      vertex 13.554 16 5.2728
      vertex 14.425 16 4.63997
    endloop
  endfacet
  facet normal 0 1 0
    outer loop
      vertex 6 16 0
      vertex 14.425 16 4.63997
      vertex 15.4086 16 4.20206
    endloop
  endfacet
  facet normal 0 1 0
    outer loop
      vertex 6 16 0
      vertex 15.4086 16 4.20206
      vertex 28 16 0
    endloop
  endfacet
  facet normal 0 1 -0
    outer loop
      vertex 17.5383 16 3.97821
      vertex 28 16 0
      vertex 16.4617 16 3.97821
    endloop
  endfacet
  facet normal 0 1 -0
    outer loop
      vertex 18.5914 16 4.20206
      vertex 28 16 0
      vertex 17.5383 16 3.97821
    endloop
  endfacet
  facet normal 0 1 -0
    outer loop
      vertex 19.575 16 4.63997
      vertex 28 16 0
      vertex 18.5914 16 4.20206
    endloop
  endfacet
  facet normal 0 1 -0
    outer loop
      vertex 20.446 16 5.2728
      vertex 28 16 0
      vertex 19.575 16 4.63997
    endloop
  endfacet
  facet normal 0 1 -0
    outer loop
      vertex 21.7048 16 7.00531
      vertex 28 16 0
      vertex 21.1664 16 6.07291
    endloop
  endfacet
  facet normal 0 1 0
    outer loop
      vertex 28 16 0
      vertex 21.7048 16 7.00531
      vertex 22.0375 16 8.02926
    endloop
  endfacet
  facet normal 0 1 0
    outer loop
      vertex 22.0375 16 8.02926
      vertex 22.15 16 9.1
      vertex 28 16 0
    endloop
  endfacet
  facet normal 0 1 0
    outer loop
      vertex 22.15 16 9.1
      vertex 22.0375 16 10.1707
      vertex 28 16 0
    endloop
  endfacet
  facet normal 0 1 0
    outer loop
      vertex 22.0375 16 10.1707
      vertex 21.7048 16 11.1947
      vertex 28 16 0
    endloop
  endfacet
  facet normal 0 1 0
    outer loop
      vertex 21.7048 16 11.1947
      vertex 20.5714 16 14
      vertex 28 16 0
    endloop
  endfacet
  facet normal 0 1 0
    outer loop
      vertex 21.1664 16 12.1271
      vertex 20.5714 16 12.7879
      vertex 20.5714 16 14
    endloop
  endfacet
  facet normal 0 1 0
    outer loop
      vertex 21.1664 16 12.1271
      vertex 20.5714 16 14
      vertex 21.7048 16 11.1947
    endloop
  endfacet
  facet normal 0 1 0
    outer loop
      vertex 28 16 0
      vertex 20.5714 16 14
      vertex 28 16 14
    endloop
  endfacet
  facet normal 0 1 0
    outer loop
      vertex 11.9625 16 10.1707
      vertex 6 16 14
      vertex 12.2952 16 11.1947
    endloop
  endfacet
  facet normal 0 1 -0
    outer loop
      vertex 21.1664 16 6.07291
      vertex 28 16 0
      vertex 20.446 16 5.2728
    endloop
  endfacet
  facet normal -0.104528 0.994522 0
    outer loop
      vertex 4.75253 15.8689 0
      vertex 4.75253 15.8689 14
      vertex 6 16 0
    endloop
  endfacet
  facet normal -0.104528 0.994522 0
    outer loop
      vertex 6 16 0
      vertex 4.75253 15.8689 14
      vertex 6 16 14
    endloop
  endfacet
  facet normal -0.309017 0.951057 0
    outer loop
      vertex 3.55958 15.4813 0
      vertex 3.55958 15.4813 14
      vertex 4.75253 15.8689 0
    endloop
  endfacet
  facet normal -0.309017 0.951057 0
    outer loop
      vertex 4.75253 15.8689 0
      vertex 3.55958 15.4813 14
      vertex 4.75253 15.8689 14
    endloop
  endfacet
  facet normal -0.5 0.866025 0
    outer loop
      vertex 2.47329 14.8541 0
      vertex 2.47329 14.8541 14
      vertex 3.55958 15.4813 0
    endloop
  endfacet
  facet normal -0.5 0.866025 0
    outer loop
      vertex 3.55958 15.4813 0
      vertex 2.47329 14.8541 14
      vertex 3.55958 15.4813 14
    endloop
  endfacet
  facet normal -0.669131 0.743145 0
    outer loop
      vertex 1.54113 14.0148 0
      vertex 1.54113 14.0148 14
      vertex 2.47329 14.8541 0
    endloop
  endfacet
  facet normal -0.669131 0.743145 0
    outer loop
      vertex 2.47329 14.8541 0
      vertex 1.54113 14.0148 14
      vertex 2.47329 14.8541 14
    endloop
  endfacet
  facet normal -0.809017 0.587785 0
    outer loop
      vertex 0.803848 13 0
      vertex 0.803848 13 14
      vertex 1.54113 14.0148 0
    endloop
  endfacet
  facet normal -0.809017 0.587785 0
    outer loop
      vertex 1.54113 14.0148 0
      vertex 0.803848 13 14
      vertex 1.54113 14.0148 14
    endloop
  endfacet
  facet normal -0.913545 0.406737 0
    outer loop
      vertex 0.293661 11.8541 0
      vertex 0.293661 11.8541 14
      vertex 0.803848 13 0
    endloop
  endfacet
  facet normal -0.913545 0.406737 0
    outer loop
      vertex 0.803848 13 0
      vertex 0.293661 11.8541 14
      vertex 0.803848 13 14
    endloop
  endfacet
  facet normal -0.978148 0.207912 0
    outer loop
      vertex 0.032869 10.6272 0
      vertex 0.032869 10.6272 14
      vertex 0.293661 11.8541 0
    endloop
  endfacet
  facet normal -0.978148 0.207912 0
    outer loop
      vertex 0.293661 11.8541 0
      vertex 0.032869 10.6272 14
      vertex 0.293661 11.8541 14
    endloop
  endfacet
  facet normal -1 2.21276e-16 0
    outer loop
      vertex 0.032869 10 0
      vertex 0.032869 10 14
      vertex 0.032869 10.6272 0
    endloop
  endfacet
  facet normal -1 2.21276e-16 0
    outer loop
      vertex 0.032869 10.6272 0
      vertex 0.032869 10 14
      vertex 0.032869 10.6272 14
    endloop
  endfacet
  facet normal 0.987688 -0.156434 0
    outer loop
      vertex 3.4797 8.81889 0
      vertex 3.4797 8.81889 14
      vertex 3.35 8 14
    endloop
  endfacet
  facet normal 0.987688 -0.156434 0
    outer loop
      vertex 3.35 8 0
      vertex 3.4797 8.81889 0
      vertex 3.35 8 14
    endloop
  endfacet
  facet normal 0.987688 0.156434 0
    outer loop
      vertex 3.35 8 14
      vertex 3.4797 7.1811 14
      vertex 3.4797 7.1811 0
    endloop
  endfacet
  facet normal 0.987688 0.156434 0
    outer loop
      vertex 3.35 8 0
      vertex 3.35 8 14
      vertex 3.4797 7.1811 0
    endloop
  endfacet
  facet normal 0.891006 -0.453991 0
    outer loop
      vertex 3.8561 9.55763 0
      vertex 3.8561 9.55763 14
      vertex 3.4797 8.81889 14
    endloop
  endfacet
  facet normal 0.891006 -0.453991 0
    outer loop
      vertex 3.4797 8.81889 0
      vertex 3.8561 9.55763 0
      vertex 3.4797 8.81889 14
    endloop
  endfacet
  facet normal 0.707107 -0.707107 0
    outer loop
      vertex 4.44237 10.1439 0
      vertex 4.44237 10.1439 14
      vertex 3.8561 9.55763 14
    endloop
  endfacet
  facet normal 0.707107 -0.707107 0
    outer loop
      vertex 3.8561 9.55763 0
      vertex 4.44237 10.1439 0
      vertex 3.8561 9.55763 14
    endloop
  endfacet
  facet normal 0.453991 -0.891006 0
    outer loop
      vertex 5.1811 10.5203 0
      vertex 5.1811 10.5203 14
      vertex 4.44237 10.1439 14
    endloop
  endfacet
  facet normal 0.453991 -0.891006 0
    outer loop
      vertex 4.44237 10.1439 0
      vertex 5.1811 10.5203 0
      vertex 4.44237 10.1439 14
    endloop
  endfacet
  facet normal 0.156434 -0.987688 0
    outer loop
      vertex 6 10.65 0
      vertex 6 10.65 14
      vertex 5.1811 10.5203 14
    endloop
  endfacet
  facet normal 0.156434 -0.987688 0
    outer loop
      vertex 5.1811 10.5203 0
      vertex 6 10.65 0
      vertex 5.1811 10.5203 14
    endloop
  endfacet
  facet normal -0.156434 -0.987688 -0
    outer loop
      vertex 6.81889 10.5203 0
      vertex 6.81889 10.5203 14
      vertex 6 10.65 14
    endloop
  endfacet
  facet normal -0.156434 -0.987688 -0
    outer loop
      vertex 6 10.65 0
      vertex 6.81889 10.5203 0
      vertex 6 10.65 14
    endloop
  endfacet
  facet normal -0.453991 -0.891006 -0
    outer loop
      vertex 7.55763 10.1439 0
      vertex 7.55763 10.1439 14
      vertex 6.81889 10.5203 14
    endloop
  endfacet
  facet normal -0.453991 -0.891006 -0
    outer loop
      vertex 6.81889 10.5203 0
      vertex 7.55763 10.1439 0
      vertex 6.81889 10.5203 14
    endloop
  endfacet
  facet normal -0.707107 -0.707107 -0
    outer loop
      vertex 8.14389 9.55763 0
      vertex 8.14389 9.55763 14
      vertex 7.55763 10.1439 14
    endloop
  endfacet
  facet normal -0.707107 -0.707107 -0
    outer loop
      vertex 7.55763 10.1439 0
      vertex 8.14389 9.55763 0
      vertex 7.55763 10.1439 14
    endloop
  endfacet
  facet normal -0.891006 -0.453991 0
    outer loop
      vertex 8.5203 8.81889 14
      vertex 8.14389 9.55763 14
      vertex 8.5203 8.81889 0
    endloop
  endfacet
  facet normal -0.891006 -0.453991 0
    outer loop
      vertex 8.5203 8.81889 0
      vertex 8.14389 9.55763 14
      vertex 8.14389 9.55763 0
    endloop
  endfacet
  facet normal -0.987688 -0.156434 0
    outer loop
      vertex 8.65 8 14
      vertex 8.5203 8.81889 14
      vertex 8.65 8 0
    endloop
  endfacet
  facet normal -0.987688 -0.156434 0
    outer loop
      vertex 8.65 8 0
      vertex 8.5203 8.81889 14
      vertex 8.5203 8.81889 0
    endloop
  endfacet
  facet normal -0.987688 0.156434 0
    outer loop
      vertex 8.65 8 14
      vertex 8.65 8 0
      vertex 8.5203 7.1811 14
    endloop
  endfacet
  facet normal -0.987688 0.156434 0
    outer loop
      vertex 8.5203 7.1811 14
      vertex 8.65 8 0
      vertex 8.5203 7.1811 0
    endloop
  endfacet
  facet normal -0.891006 0.453991 0
    outer loop
      vertex 8.5203 7.1811 14
      vertex 8.5203 7.1811 0
      vertex 8.14389 6.44237 14
    endloop
  endfacet
  facet normal -0.891006 0.453991 0
    outer loop
      vertex 8.14389 6.44237 14
      vertex 8.5203 7.1811 0
      vertex 8.14389 6.44237 0
    endloop
  endfacet
  facet normal -0.707107 0.707107 0
    outer loop
      vertex 8.14389 6.44237 14
      vertex 8.14389 6.44237 0
      vertex 7.55763 5.8561 14
    endloop
  endfacet
  facet normal -0.707107 0.707107 0
    outer loop
      vertex 7.55763 5.8561 14
      vertex 8.14389 6.44237 0
      vertex 7.55763 5.8561 0
    endloop
  endfacet
  facet normal -0.453991 0.891006 0
    outer loop
      vertex 7.55763 5.8561 14
      vertex 7.55763 5.8561 0
      vertex 6.81889 5.4797 14
    endloop
  endfacet
  facet normal -0.453991 0.891006 0
    outer loop
      vertex 6.81889 5.4797 14
      vertex 7.55763 5.8561 0
      vertex 6.81889 5.4797 0
    endloop
  endfacet
  facet normal -0.156434 0.987688 0
    outer loop
      vertex 6.81889 5.4797 14
      vertex 6.81889 5.4797 0
      vertex 6 5.35 14
    endloop
  endfacet
  facet normal -0.156434 0.987688 0
    outer loop
      vertex 6 5.35 14
      vertex 6.81889 5.4797 0
      vertex 6 5.35 0
    endloop
  endfacet
  facet normal 0.156434 0.987688 -0
    outer loop
      vertex 6 5.35 14
      vertex 6 5.35 0
      vertex 5.1811 5.4797 14
    endloop
  endfacet
  facet normal 0.156434 0.987688 -0
    outer loop
      vertex 5.1811 5.4797 14
      vertex 6 5.35 0
      vertex 5.1811 5.4797 0
    endloop
  endfacet
  facet normal 0.453991 0.891006 -0
    outer loop
      vertex 5.1811 5.4797 14
      vertex 5.1811 5.4797 0
      vertex 4.44237 5.8561 14
    endloop
  endfacet
  facet normal 0.453991 0.891006 -0
    outer loop
      vertex 4.44237 5.8561 14
      vertex 5.1811 5.4797 0
      vertex 4.44237 5.8561 0
    endloop
  endfacet
  facet normal 0.707107 0.707107 -0
    outer loop
      vertex 4.44237 5.8561 14
      vertex 4.44237 5.8561 0
      vertex 3.8561 6.44237 14
    endloop
  endfacet
  facet normal 0.707107 0.707107 -0
    outer loop
      vertex 3.8561 6.44237 14
      vertex 4.44237 5.8561 0
      vertex 3.8561 6.44237 0
    endloop
  endfacet
  facet normal 0.891006 0.453991 0
    outer loop
      vertex 3.4797 7.1811 14
      vertex 3.8561 6.44237 14
      vertex 3.8561 6.44237 0
    endloop
  endfacet
  facet normal 0.891006 0.453991 0
    outer loop
      vertex 3.4797 7.1811 0
      vertex 3.4797 7.1811 14
      vertex 3.8561 6.44237 0
    endloop
  endfacet
  facet normal 0.987688 -0.156434 0
    outer loop
      vertex 25.4797 8.81889 0
      vertex 25.4797 8.81889 14
      vertex 25.35 8 14
    endloop
  endfacet
  facet normal 0.987688 -0.156434 0
    outer loop
      vertex 25.35 8 0
      vertex 25.4797 8.81889 0
      vertex 25.35 8 14
    endloop
  endfacet
  facet normal 0.987688 0.156434 0
    outer loop
      vertex 25.35 8 14
      vertex 25.4797 7.1811 14
      vertex 25.4797 7.1811 0
    endloop
  endfacet
  facet normal 0.987688 0.156434 0
    outer loop
      vertex 25.35 8 0
      vertex 25.35 8 14
      vertex 25.4797 7.1811 0
    endloop
  endfacet
  facet normal 0.891006 -0.453991 0
    outer loop
      vertex 25.8561 9.55763 0
      vertex 25.8561 9.55763 14
      vertex 25.4797 8.81889 14
    endloop
  endfacet
  facet normal 0.891006 -0.453991 0
    outer loop
      vertex 25.4797 8.81889 0
      vertex 25.8561 9.55763 0
      vertex 25.4797 8.81889 14
    endloop
  endfacet
  facet normal 0.707107 -0.707107 0
    outer loop
      vertex 26.4424 10.1439 0
      vertex 26.4424 10.1439 14
      vertex 25.8561 9.55763 14
    endloop
  endfacet
  facet normal 0.707107 -0.707107 0
    outer loop
      vertex 25.8561 9.55763 0
      vertex 26.4424 10.1439 0
      vertex 25.8561 9.55763 14
    endloop
  endfacet
  facet normal 0.453991 -0.891006 0
    outer loop
      vertex 27.1811 10.5203 0
      vertex 27.1811 10.5203 14
      vertex 26.4424 10.1439 14
    endloop
  endfacet
  facet normal 0.453991 -0.891006 0
    outer loop
      vertex 26.4424 10.1439 0
      vertex 27.1811 10.5203 0
      vertex 26.4424 10.1439 14
    endloop
  endfacet
  facet normal 0.156434 -0.987688 0
    outer loop
      vertex 28 10.65 0
      vertex 28 10.65 14
      vertex 27.1811 10.5203 14
    endloop
  endfacet
  facet normal 0.156434 -0.987688 0
    outer loop
      vertex 27.1811 10.5203 0
      vertex 28 10.65 0
      vertex 27.1811 10.5203 14
    endloop
  endfacet
  facet normal -0.156434 -0.987688 -0
    outer loop
      vertex 28.8189 10.5203 0
      vertex 28.8189 10.5203 14
      vertex 28 10.65 14
    endloop
  endfacet
  facet normal -0.156434 -0.987688 -0
    outer loop
      vertex 28 10.65 0
      vertex 28.8189 10.5203 0
      vertex 28 10.65 14
    endloop
  endfacet
  facet normal -0.453991 -0.891006 -0
    outer loop
      vertex 29.5576 10.1439 0
      vertex 29.5576 10.1439 14
      vertex 28.8189 10.5203 14
    endloop
  endfacet
  facet normal -0.453991 -0.891006 -0
    outer loop
      vertex 28.8189 10.5203 0
      vertex 29.5576 10.1439 0
      vertex 28.8189 10.5203 14
    endloop
  endfacet
  facet normal -0.707107 -0.707107 -0
    outer loop
      vertex 30.1439 9.55763 0
      vertex 30.1439 9.55763 14
      vertex 29.5576 10.1439 14
    endloop
  endfacet
  facet normal -0.707107 -0.707107 -0
    outer loop
      vertex 29.5576 10.1439 0
      vertex 30.1439 9.55763 0
      vertex 29.5576 10.1439 14
    endloop
  endfacet
  facet normal -0.891006 -0.453991 0
    outer loop
      vertex 30.5203 8.81889 14
      vertex 30.1439 9.55763 14
      vertex 30.5203 8.81889 0
    endloop
  endfacet
  facet normal -0.891006 -0.453991 0
    outer loop
      vertex 30.5203 8.81889 0
      vertex 30.1439 9.55763 14
      vertex 30.1439 9.55763 0
    endloop
  endfacet
  facet normal -0.987688 -0.156434 0
    outer loop
      vertex 30.65 8 14
      vertex 30.5203 8.81889 14
      vertex 30.65 8 0
    endloop
  endfacet
  facet normal -0.987688 -0.156434 0
    outer loop
      vertex 30.65 8 0
      vertex 30.5203 8.81889 14
      vertex 30.5203 8.81889 0
    endloop
  endfacet
  facet normal -0.987688 0.156434 0
    outer loop
      vertex 30.65 8 14
      vertex 30.65 8 0
      vertex 30.5203 7.1811 14
    endloop
  endfacet
  facet normal -0.987688 0.156434 0
    outer loop
      vertex 30.5203 7.1811 14
      vertex 30.65 8 0
      vertex 30.5203 7.1811 0
    endloop
  endfacet
  facet normal -0.891006 0.453991 0
    outer loop
      vertex 30.5203 7.1811 14
      vertex 30.5203 7.1811 0
      vertex 30.1439 6.44237 14
    endloop
  endfacet
  facet normal -0.891006 0.453991 0
    outer loop
      vertex 30.1439 6.44237 14
      vertex 30.5203 7.1811 0
      vertex 30.1439 6.44237 0
    endloop
  endfacet
  facet normal -0.707107 0.707107 0
    outer loop
      vertex 30.1439 6.44237 14
      vertex 30.1439 6.44237 0
      vertex 29.5576 5.8561 14
    endloop
  endfacet
  facet normal -0.707107 0.707107 0
    outer loop
      vertex 29.5576 5.8561 14
      vertex 30.1439 6.44237 0
      vertex 29.5576 5.8561 0
    endloop
  endfacet
  facet normal -0.453991 0.891006 0
    outer loop
      vertex 29.5576 5.8561 14
      vertex 29.5576 5.8561 0
      vertex 28.8189 5.4797 14
    endloop
  endfacet
  facet normal -0.453991 0.891006 0
    outer loop
      vertex 28.8189 5.4797 14
      vertex 29.5576 5.8561 0
      vertex 28.8189 5.4797 0
    endloop
  endfacet
  facet normal -0.156434 0.987688 0
    outer loop
      vertex 28.8189 5.4797 14
      vertex 28.8189 5.4797 0
      vertex 28 5.35 14
    endloop
  endfacet
  facet normal -0.156434 0.987688 0
    outer loop
      vertex 28 5.35 14
      vertex 28.8189 5.4797 0
      vertex 28 5.35 0
    endloop
  endfacet
  facet normal 0.156434 0.987688 -0
    outer loop
      vertex 28 5.35 14
      vertex 28 5.35 0
      vertex 27.1811 5.4797 14
    endloop
  endfacet
  facet normal 0.156434 0.987688 -0
    outer loop
      vertex 27.1811 5.4797 14
      vertex 28 5.35 0
      vertex 27.1811 5.4797 0
    endloop
  endfacet
  facet normal 0.453991 0.891006 -0
    outer loop
      vertex 27.1811 5.4797 14
      vertex 27.1811 5.4797 0
      vertex 26.4424 5.8561 14
    endloop
  endfacet
  facet normal 0.453991 0.891006 -0
    outer loop
      vertex 26.4424 5.8561 14
      vertex 27.1811 5.4797 0
      vertex 26.4424 5.8561 0
    endloop
  endfacet
  facet normal 0.707107 0.707107 -0
    outer loop
      vertex 26.4424 5.8561 14
      vertex 26.4424 5.8561 0
      vertex 25.8561 6.44237 14
    endloop
  endfacet
  facet normal 0.707107 0.707107 -0
    outer loop
      vertex 25.8561 6.44237 14
      vertex 26.4424 5.8561 0
      vertex 25.8561 6.44237 0
    endloop
  endfacet
  facet normal 0.891006 0.453991 0
    outer loop
      vertex 25.4797 7.1811 14
      vertex 25.8561 6.44237 14
      vertex 25.8561 6.44237 0
    endloop
  endfacet
  facet normal 0.891006 0.453991 0
    outer loop
      vertex 25.4797 7.1811 0
      vertex 25.4797 7.1811 14
      vertex 25.8561 6.44237 0
    endloop
  endfacet
  facet normal 1 0 0
    outer loop
      vertex 13.4286 16 12.7879
      vertex 13.4286 16 14
      vertex 13.4286 0 14
    endloop
  endfacet
  facet normal 1 0 0
    outer loop
      vertex 13.4286 0 12.7879
      vertex 13.4286 16 12.7879
      vertex 13.4286 0 14
    endloop
  endfacet
  facet normal 0.743145 1.48262e-16 -0.669131
    outer loop
      vertex 12.8336 16 12.1271
      vertex 13.4286 16 12.7879
      vertex 13.4286 0 12.7879
    endloop
  endfacet
  facet normal 0.743145 1.48577e-16 -0.669131
    outer loop
      vertex 12.8336 0 12.1271
      vertex 12.8336 16 12.1271
      vertex 13.4286 0 12.7879
    endloop
  endfacet
  facet normal 0.866026 1.16009e-16 -0.5
    outer loop
      vertex 12.2952 16 11.1947
      vertex 12.8336 16 12.1271
      vertex 12.8336 0 12.1271
    endloop
  endfacet
  facet normal 0.866026 1.11022e-16 -0.5
    outer loop
      vertex 12.2952 0 11.1947
      vertex 12.2952 16 11.1947
      vertex 12.8336 0 12.1271
    endloop
  endfacet
  facet normal 0.951057 7.08942e-17 -0.309017
    outer loop
      vertex 11.9625 16 10.1707
      vertex 12.2952 16 11.1947
      vertex 12.2952 0 11.1947
    endloop
  endfacet
  facet normal 0.951057 6.86155e-17 -0.309017
    outer loop
      vertex 11.9625 0 10.1707
      vertex 11.9625 16 10.1707
      vertex 12.2952 0 11.1947
    endloop
  endfacet
  facet normal 0.994522 2.25573e-17 -0.104529
    outer loop
      vertex 11.85 16 9.1
      vertex 11.9625 16 10.1707
      vertex 11.9625 0 10.1707
    endloop
  endfacet
  facet normal 0.994522 2.321e-17 -0.104529
    outer loop
      vertex 11.85 0 9.1
      vertex 11.85 16 9.1
      vertex 11.9625 0 10.1707
    endloop
  endfacet
  facet normal 0.994522 -2.321e-17 0.104529
    outer loop
      vertex 11.9625 0 8.02925
      vertex 11.9625 16 8.02926
      vertex 11.85 16 9.1
    endloop
  endfacet
  facet normal 0.994522 -2.321e-17 0.104529
    outer loop
      vertex 11.85 0 9.1
      vertex 11.9625 0 8.02925
      vertex 11.85 16 9.1
    endloop
  endfacet
  facet normal 0.951057 -6.86155e-17 0.309017
    outer loop
      vertex 12.2952 0 7.00531
      vertex 12.2952 16 7.00531
      vertex 11.9625 16 8.02926
    endloop
  endfacet
  facet normal 0.951057 -6.86155e-17 0.309017
    outer loop
      vertex 11.9625 0 8.02925
      vertex 12.2952 0 7.00531
      vertex 11.9625 16 8.02926
    endloop
  endfacet
  facet normal 0.866026 -1.11022e-16 0.5
    outer loop
      vertex 12.8336 0 6.07291
      vertex 12.8336 16 6.07291
      vertex 12.2952 16 7.00531
    endloop
  endfacet
  facet normal 0.866026 -1.11022e-16 0.5
    outer loop
      vertex 12.2952 0 7.00531
      vertex 12.8336 0 6.07291
      vertex 12.2952 16 7.00531
    endloop
  endfacet
  facet normal 0.743145 -1.48577e-16 0.669131
    outer loop
      vertex 13.554 0 5.2728
      vertex 13.554 16 5.2728
      vertex 12.8336 16 6.07291
    endloop
  endfacet
  facet normal 0.743145 -1.48577e-16 0.669131
    outer loop
      vertex 12.8336 0 6.07291
      vertex 13.554 0 5.2728
      vertex 12.8336 16 6.07291
    endloop
  endfacet
  facet normal 0.587785 -1.79638e-16 0.809017
    outer loop
      vertex 14.425 0 4.63997
      vertex 14.425 16 4.63997
      vertex 13.554 16 5.2728
    endloop
  endfacet
  facet normal 0.587785 -1.79638e-16 0.809017
    outer loop
      vertex 13.554 0 5.2728
      vertex 14.425 0 4.63997
      vertex 13.554 16 5.2728
    endloop
  endfacet
  facet normal 0.406737 -2.02848e-16 0.913545
    outer loop
      vertex 15.4086 0 4.20206
      vertex 15.4086 16 4.20206
      vertex 14.425 16 4.63997
    endloop
  endfacet
  facet normal 0.406737 -2.02848e-16 0.913545
    outer loop
      vertex 14.425 0 4.63997
      vertex 15.4086 0 4.20206
      vertex 14.425 16 4.63997
    endloop
  endfacet
  facet normal 0.207912 -2.17192e-16 0.978148
    outer loop
      vertex 16.4617 0 3.97821
      vertex 16.4617 16 3.97821
      vertex 15.4086 16 4.20206
    endloop
  endfacet
  facet normal 0.207912 -2.17192e-16 0.978148
    outer loop
      vertex 15.4086 0 4.20206
      vertex 16.4617 0 3.97821
      vertex 15.4086 16 4.20206
    endloop
  endfacet
  facet normal 0 -2.22045e-16 1
    outer loop
      vertex 17.5383 0 3.97821
      vertex 17.5383 16 3.97821
      vertex 16.4617 16 3.97821
    endloop
  endfacet
  facet normal 0 -2.22045e-16 1
    outer loop
      vertex 16.4617 0 3.97821
      vertex 17.5383 0 3.97821
      vertex 16.4617 16 3.97821
    endloop
  endfacet
  facet normal -0.207912 -2.17192e-16 0.978148
    outer loop
      vertex 18.5914 0 4.20206
      vertex 18.5914 16 4.20206
      vertex 17.5383 16 3.97821
    endloop
  endfacet
  facet normal -0.207912 -2.17192e-16 0.978148
    outer loop
      vertex 17.5383 0 3.97821
      vertex 18.5914 0 4.20206
      vertex 17.5383 16 3.97821
    endloop
  endfacet
  facet normal -0.406737 -2.02848e-16 0.913545
    outer loop
      vertex 19.575 0 4.63997
      vertex 19.575 16 4.63997
      vertex 18.5914 16 4.20206
    endloop
  endfacet
  facet normal -0.406737 -2.02848e-16 0.913545
    outer loop
      vertex 18.5914 0 4.20206
      vertex 19.575 0 4.63997
      vertex 18.5914 16 4.20206
    endloop
  endfacet
  facet normal -0.587785 -1.79638e-16 0.809017
    outer loop
      vertex 20.446 0 5.2728
      vertex 20.446 16 5.2728
      vertex 19.575 16 4.63997
    endloop
  endfacet
  facet normal -0.587785 -1.79638e-16 0.809017
    outer loop
      vertex 19.575 0 4.63997
      vertex 20.446 0 5.2728
      vertex 19.575 16 4.63997
    endloop
  endfacet
  facet normal -0.743145 -1.48577e-16 0.669131
    outer loop
      vertex 21.1664 16 6.07291
      vertex 20.446 16 5.2728
      vertex 21.1664 0 6.07291
    endloop
  endfacet
  facet normal -0.743145 -1.48233e-16 0.669131
    outer loop
      vertex 21.1664 0 6.07291
      vertex 20.446 16 5.2728
      vertex 20.446 0 5.2728
    endloop
  endfacet
  facet normal -0.866026 -1.11022e-16 0.5
    outer loop
      vertex 21.7048 16 7.00531
      vertex 21.1664 16 6.07291
      vertex 21.7048 0 7.00531
    endloop
  endfacet
  facet normal -0.866026 -1.09564e-16 0.5
    outer loop
      vertex 21.7048 0 7.00531
      vertex 21.1664 16 6.07291
      vertex 21.1664 0 6.07291
    endloop
  endfacet
  facet normal -0.951057 -6.86155e-17 0.309017
    outer loop
      vertex 22.0375 16 8.02926
      vertex 21.7048 16 7.00531
      vertex 22.0375 0 8.02925
    endloop
  endfacet
  facet normal -0.951057 -6.76718e-17 0.309017
    outer loop
      vertex 22.0375 0 8.02925
      vertex 21.7048 16 7.00531
      vertex 21.7048 0 7.00531
    endloop
  endfacet
  facet normal -0.994522 -2.321e-17 0.104529
    outer loop
      vertex 22.15 16 9.1
      vertex 22.0375 16 8.02926
      vertex 22.15 0 9.1
    endloop
  endfacet
  facet normal -0.994522 -2.33629e-17 0.104529
    outer loop
      vertex 22.15 0 9.1
      vertex 22.0375 16 8.02926
      vertex 22.0375 0 8.02925
    endloop
  endfacet
  facet normal -0.994522 2.321e-17 -0.104529
    outer loop
      vertex 22.15 16 9.1
      vertex 22.15 0 9.1
      vertex 22.0375 16 10.1707
    endloop
  endfacet
  facet normal -0.994522 2.321e-17 -0.104529
    outer loop
      vertex 22.0375 16 10.1707
      vertex 22.15 0 9.1
      vertex 22.0375 0 10.1707
    endloop
  endfacet
  facet normal -0.951057 6.86155e-17 -0.309017
    outer loop
      vertex 22.0375 16 10.1707
      vertex 22.0375 0 10.1707
      vertex 21.7048 16 11.1947
    endloop
  endfacet
  facet normal -0.951057 6.86155e-17 -0.309017
    outer loop
      vertex 21.7048 16 11.1947
      vertex 22.0375 0 10.1707
      vertex 21.7048 0 11.1947
    endloop
  endfacet
  facet normal -0.866026 1.11022e-16 -0.5
    outer loop
      vertex 21.7048 16 11.1947
      vertex 21.7048 0 11.1947
      vertex 21.1664 16 12.1271
    endloop
  endfacet
  facet normal -0.866026 1.11022e-16 -0.5
    outer loop
      vertex 21.1664 16 12.1271
      vertex 21.7048 0 11.1947
      vertex 21.1664 0 12.1271
    endloop
  endfacet
  facet normal -0.743145 1.48577e-16 -0.669131
    outer loop
      vertex 21.1664 16 12.1271
      vertex 21.1664 0 12.1271
      vertex 20.5714 16 12.7879
    endloop
  endfacet
  facet normal -0.743145 1.48577e-16 -0.669131
    outer loop
      vertex 20.5714 16 12.7879
      vertex 21.1664 0 12.1271
      vertex 20.5714 0 12.7879
    endloop
  endfacet
  facet normal -1 0 0
    outer loop
      vertex 20.5714 16 14
      vertex 20.5714 16 12.7879
      vertex 20.5714 0 14
    endloop
  endfacet
  facet normal -1 0 0
    outer loop
      vertex 20.5714 0 14
      vertex 20.5714 16 12.7879
      vertex 20.5714 0 12.7879
    endloop
  endfacet
  facet normal 0 -0 1
    outer loop
      vertex 20.5714 16 14
      vertex 20.5714 0 14
      vertex 28 0 14
    endloop
  endfacet
  facet normal -0 -0 1
    outer loop
      vertex 25.8561 6.44237 14
      vertex 20.5714 16 14
      vertex 29.2475 0.131114 14
    endloop
  endfacet
  facet normal -0 0 1
    outer loop
      vertex 29.2475 0.131114 14
      vertex 20.5714 16 14
      vertex 28 0 14
    endloop
  endfacet
  facet normal -0 -0 1
    outer loop
      vertex 28 5.35 14
      vertex 27.1811 5.4797 14
      vertex 30.4404 0.518727 14
    endloop
  endfacet
  facet normal 0 0 1
    outer loop
      vertex 26.4424 10.1439 14
      vertex 27.1811 10.5203 14
      vertex 20.5714 16 14
    endloop
  endfacet
  facet normal 0 -0 1
    outer loop
      vertex 30.1439 6.44237 14
      vertex 29.5576 5.8561 14
      vertex 33.1962 3 14
    endloop
  endfacet
  facet normal 0 0 1
    outer loop
      vertex 30.65 8 14
      vertex 33.7063 4.1459 14
      vertex 33.9671 5.37283 14
    endloop
  endfacet
  facet normal 0 0 1
    outer loop
      vertex 30.5203 8.81889 14
      vertex 33.9671 5.37283 14
      vertex 33.9671 6 14
    endloop
  endfacet
  facet normal 0 0 1
    outer loop
      vertex 30.1439 9.55763 14
      vertex 30.5203 8.81889 14
      vertex 34 6 14
    endloop
  endfacet
  facet normal -0 -0 1
    outer loop
      vertex 33.8689 11.2475 14
      vertex 20.5714 16 14
      vertex 34 10 14
    endloop
  endfacet
  facet normal -0 -0 1
    outer loop
      vertex 33.4813 12.4404 14
      vertex 20.5714 16 14
      vertex 33.8689 11.2475 14
    endloop
  endfacet
  facet normal -0 -0 1
    outer loop
      vertex 32.8541 13.5267 14
      vertex 20.5714 16 14
      vertex 33.4813 12.4404 14
    endloop
  endfacet
  facet normal -0 -0 1
    outer loop
      vertex 32.0148 14.4589 14
      vertex 20.5714 16 14
      vertex 32.8541 13.5267 14
    endloop
  endfacet
  facet normal -0 -0 1
    outer loop
      vertex 31 15.1962 14
      vertex 20.5714 16 14
      vertex 32.0148 14.4589 14
    endloop
  endfacet
  facet normal -0 -0 1
    outer loop
      vertex 29.8541 15.7063 14
      vertex 20.5714 16 14
      vertex 31 15.1962 14
    endloop
  endfacet
  facet normal -0 -0 1
    outer loop
      vertex 28 15.9671 14
      vertex 20.5714 16 14
      vertex 29.8541 15.7063 14
    endloop
  endfacet
  facet normal 0 -0 1
    outer loop
      vertex 28.6272 15.9671 14
      vertex 28 15.9671 14
      vertex 29.8541 15.7063 14
    endloop
  endfacet
  facet normal -0 -0 1
    outer loop
      vertex 25.35 8 14
      vertex 20.5714 16 14
      vertex 25.4797 7.1811 14
    endloop
  endfacet
  facet normal -0 -0 1
    outer loop
      vertex 26.4424 5.8561 14
      vertex 25.8561 6.44237 14
      vertex 29.2475 0.131114 14
    endloop
  endfacet
  facet normal -0 -0 1
    outer loop
      vertex 27.1811 5.4797 14
      vertex 26.4424 5.8561 14
      vertex 30.4404 0.518727 14
    endloop
  endfacet
  facet normal 0 -0 1
    outer loop
      vertex 29.5576 5.8561 14
      vertex 28.8189 5.4797 14
      vertex 32.4589 1.98522 14
    endloop
  endfacet
  facet normal 0 -0 1
    outer loop
      vertex 30.5203 7.1811 14
      vertex 30.1439 6.44237 14
      vertex 33.7063 4.1459 14
    endloop
  endfacet
  facet normal 0 0 1
    outer loop
      vertex 34 10 14
      vertex 20.5714 16 14
      vertex 28 10.65 14
    endloop
  endfacet
  facet normal 0 0 1
    outer loop
      vertex 30.5203 8.81889 14
      vertex 33.9671 6 14
      vertex 34 6 14
    endloop
  endfacet
  facet normal 0 0 1
    outer loop
      vertex 34 10 14
      vertex 28 10.65 14
      vertex 28.8189 10.5203 14
    endloop
  endfacet
  facet normal -0 0 1
    outer loop
      vertex 34 10 14
      vertex 29.5576 10.1439 14
      vertex 34 6 14
    endloop
  endfacet
  facet normal 0 0 1
    outer loop
      vertex 34 10 14
      vertex 28.8189 10.5203 14
      vertex 29.5576 10.1439 14
    endloop
  endfacet
  facet normal 0 0 1
    outer loop
      vertex 29.5576 10.1439 14
      vertex 30.1439 9.55763 14
      vertex 34 6 14
    endloop
  endfacet
  facet normal 0 -0 1
    outer loop
      vertex 28.8189 5.4797 14
      vertex 28 5.35 14
      vertex 31.5267 1.1459 14
    endloop
  endfacet
  facet normal 0 0 1
    outer loop
      vertex 30.5203 8.81889 14
      vertex 30.65 8 14
      vertex 33.9671 5.37283 14
    endloop
  endfacet
  facet normal 0 -0 1
    outer loop
      vertex 30.65 8 14
      vertex 30.5203 7.1811 14
      vertex 33.7063 4.1459 14
    endloop
  endfacet
  facet normal -0 0 1
    outer loop
      vertex 33.7063 4.1459 14
      vertex 30.1439 6.44237 14
      vertex 33.1962 3 14
    endloop
  endfacet
  facet normal -0 0 1
    outer loop
      vertex 33.1962 3 14
      vertex 29.5576 5.8561 14
      vertex 32.4589 1.98522 14
    endloop
  endfacet
  facet normal -0 0 1
    outer loop
      vertex 32.4589 1.98522 14
      vertex 28.8189 5.4797 14
      vertex 31.5267 1.1459 14
    endloop
  endfacet
  facet normal -0 0 1
    outer loop
      vertex 31.5267 1.1459 14
      vertex 28 5.35 14
      vertex 30.4404 0.518727 14
    endloop
  endfacet
  facet normal 0 0 1
    outer loop
      vertex 25.4797 8.81889 14
      vertex 25.8561 9.55763 14
      vertex 20.5714 16 14
    endloop
  endfacet
  facet normal -0 0 1
    outer loop
      vertex 30.4404 0.518727 14
      vertex 26.4424 5.8561 14
      vertex 29.2475 0.131114 14
    endloop
  endfacet
  facet normal -0 -0 1
    outer loop
      vertex 25.4797 7.1811 14
      vertex 20.5714 16 14
      vertex 25.8561 6.44237 14
    endloop
  endfacet
  facet normal 0 0 1
    outer loop
      vertex 28 15.9671 14
      vertex 28 16 14
      vertex 20.5714 16 14
    endloop
  endfacet
  facet normal 0 0 1
    outer loop
      vertex 25.35 8 14
      vertex 25.4797 8.81889 14
      vertex 20.5714 16 14
    endloop
  endfacet
  facet normal 0 0 1
    outer loop
      vertex 25.8561 9.55763 14
      vertex 26.4424 10.1439 14
      vertex 20.5714 16 14
    endloop
  endfacet
  facet normal 0 0 1
    outer loop
      vertex 27.1811 10.5203 14
      vertex 28 10.65 14
      vertex 20.5714 16 14
    endloop
  endfacet
endsolid OpenSCAD_Model
